<?xml version="1.0" encoding="UTF-8"?>
<svg id="Layer_2" data-name="Layer 2" xmlns="http://www.w3.org/2000/svg" viewBox="0 0 507 51.71">
  <defs>
    <style>
      .cls-1 {
        fill: #000;
        stroke-width: 0px;
      }
    </style>
  </defs>
  <g id="Layer_1-2" data-name="Layer 1">
    <g>
      <g>
        <rect class="cls-1" y="8.21" width="4.05" height="37.38"/>
        <rect class="cls-1" x="7.74" y="2.6" width="4.05" height="48.6"/>
        <rect class="cls-1" x="15.26" y="11.95" width="4.05" height="29.91"/>
        <rect class="cls-1" x="22.61" y="8.21" width="4.05" height="37.38"/>
        <rect class="cls-1" x="29.95" y="13.82" width="4.05" height="26.17"/>
      </g>
      <g>
        <path class="cls-1" d="M58.72,50.82c0-1,1-2.12,2.68-2.12s3.07.28,4.85.56c1.62-.89,3.46-2.51,3.46-8.42V13.05c0-5.13-.67-6.08-2.23-6.47v-.61h7.53v.61c-1.56.39-2.23,1.34-2.23,6.47v23.87c0,9.6-5.97,14.78-12.27,14.78-1.17,0-1.79-.11-1.79-.89Z"/>
        <path class="cls-1" d="M102.64,43.9v-10.66c-1.9,7.25-7.25,12.33-12.5,12.33-4.18,0-8.09-2.4-8.09-7.31,0-5.86,5.86-7.98,12.27-9.65l8.26-2.18c-.33-5.41-2.95-8.26-8.31-8.26-3.57,0-7.03,1.79-9.71,5.24l-.5-.39c3.23-4.13,7.08-6.3,11.71-6.3,6.75,0,9.76,3.85,9.76,9.6v11.6c0,5.13.67,6.08,2.23,6.47v.61h-4.02c-.72,0-1.12-.39-1.12-1.12ZM91.42,43.12c6.53,0,11.16-7.36,11.21-14.06v-1.95l-8.09,2.12c-5.86,1.56-9.48,3.4-9.43,7.92.06,3.57,2.46,5.97,6.3,5.97Z"/>
        <path class="cls-1" d="M113.64,44.4c1.56-.39,2.23-1.34,2.23-6.47V8.37c0-4.57-.56-5.08-2.23-5.8v-.5l4.74-2.06.39.33v33.02l10.6-9.93c3.79-3.51,4.57-5.3,3.23-6.02v-.28h6.08v.61c-1.62.5-3.07.72-6.8,4.24l-4.52,4.24,6.36,11.49c2.18,3.96,3.91,6.42,6.3,6.75v.56h-2.79c-2.73,0-3.68-1.67-6.47-6.7l-5.52-10.09-6.47,6.08v3.63c0,5.13.67,6.08,2.23,6.47v.61h-7.36v-.61Z"/>
        <path class="cls-1" d="M141.88,31.13c0-8.42,6.7-14.39,14.34-14.39,6.92,0,14.28,4.46,14.28,14.45s-7.7,14.39-14.28,14.39c-6.92,0-14.34-4.52-14.34-14.45ZM167.77,33.41c0-7.31-5.3-15.73-12.77-15.73-6.58,0-10.21,4.85-10.21,11.33,0,7.64,5.36,15.51,12.83,15.51,6.47,0,10.15-4.85,10.15-11.1Z"/>
        <path class="cls-1" d="M180.78,41.39l-1.28,3.63h-.56V8.37c0-4.57-.56-5.08-2.23-5.8v-.5l4.74-2.06.39.33v20.86c3.13-2.4,6.97-4.46,11.72-4.46,6.19,0,11.6,4.91,11.6,13.78,0,6.97-4.46,14.89-13.89,15.01-4.46.06-8.76-2.23-10.49-4.13ZM192.61,44.52c5.69,0,9.87-3.9,9.87-11.88,0-7.47-3.29-14.45-10.66-14.45-4.07,0-7.47,1.84-9.99,3.79v14c0,3.74,4.74,8.53,10.77,8.53Z"/>
        <path class="cls-1" d="M226.72,44.4c1.56-.39,2.23-1.34,2.23-6.47V14.06c0-5.8-1.17-7.03-3.01-7.48v-.61h4.96l15.45,25.27,13.95-22.7.05-.11,1.51-2.46h4.57v.61c-1.84.45-3.01,1.67-3.01,7.48v23.88c0,5.13.67,6.08,2.23,6.47v.61h-7.59v-.61c1.56-.39,2.23-1.34,2.23-6.47V10.1l-14.95,24.32h-.78l-14.61-23.99v26.5c0,5.8,1.28,7.03,3.35,7.48v.61h-6.58v-.61Z"/>
        <path class="cls-1" d="M294.07,43.9v-10.66c-1.9,7.25-7.25,12.33-12.5,12.33-4.18,0-8.09-2.4-8.09-7.31,0-5.86,5.86-7.98,12.27-9.65l8.26-2.18c-.33-5.41-2.95-8.26-8.31-8.26-3.57,0-7.03,1.79-9.71,5.24l-.5-.39c3.23-4.13,7.08-6.3,11.71-6.3,6.75,0,9.76,3.85,9.76,9.6v11.6c0,5.13.67,6.08,2.23,6.47v.61h-4.02c-.72,0-1.12-.39-1.12-1.12ZM282.86,43.12c6.53,0,11.16-7.36,11.21-14.06v-1.95l-8.09,2.12c-5.86,1.56-9.48,3.4-9.43,7.92.06,3.57,2.46,5.97,6.3,5.97Z"/>
        <path class="cls-1" d="M307.65,38.1v-20.3h-3.57v-.67l5.86-6.3h.61v6.3h8.37l-.33.67h-8.03v20.19c0,4.18,1.84,5.58,4.18,5.58,1.95,0,3.96-.95,5.8-3.07l.45.45c-1.73,2.06-4.69,4.63-7.81,4.63s-5.52-1.9-5.52-7.48Z"/>
        <path class="cls-1" d="M326.57,35.7v-10.6c0-4.57-.56-5.08-2.23-5.8v-.5l4.74-2.06.39.33v17.35c0,6.81,2.68,9.48,7.36,9.48,4.18,0,7.47-2.73,9.71-5.36v-13.44c0-4.57-.56-5.08-2.23-5.8v-.5l4.74-2.06.39.33v20.86c0,5.13.67,6.08,2.23,6.47v.61h-3.74c-1,0-1.39-.39-1.39-2.23v-3.24c-2.51,2.73-6.42,5.97-11.21,5.97-5.8,0-8.76-3.85-8.76-9.82Z"/>
        <path class="cls-1" d="M358.27,43.12l-.39-6.25.45-.11c2.23,5.24,6.19,7.92,11.32,7.92,3.52,0,6.42-1.84,6.42-5.63,0-4.52-5.08-5.63-8.81-6.92-4.63-1.56-8.65-2.79-8.65-7.98,0-4.57,4.18-7.42,9.43-7.42,4.13,0,7.19.95,8.76,1.62l.22,5.24-.45.11c-1.67-4.13-5.36-6.3-9.2-6.3-4.07,0-6.69,1.84-6.69,5.13,0,4.02,4.41,5.58,8.09,6.75,4.02,1.28,9.43,2.51,9.43,7.92s-4.41,8.31-9.65,8.37c-4.91.05-8.7-1.45-10.27-2.46Z"/>
        <path class="cls-1" d="M384.28,31.69c0-8.2,6.86-14.95,15.34-14.95,4.63,0,8.81,1.34,8.81,2.85,0,.84-1.28,2.34-3.18,2.34-1.23,0-3.91-1.51-8.65-4.35-5.47,1.12-9.48,5.47-9.48,12.22,0,8.09,5.13,13.33,12.5,13.33,4.52,0,7.47-2.06,10.32-5.3l.45.45c-3.12,3.9-7.42,7.31-12.83,7.31-6.14,0-13.28-4.52-13.28-13.89Z"/>
        <path class="cls-1" d="M414.2,44.4c1.56-.39,2.23-1.34,2.23-6.47V8.37c0-4.57-.56-5.08-2.23-5.8v-.5l4.74-2.06.39.33v21.59c3.4-2.79,7.87-5.19,12.16-5.19,5.86,0,9.09,3.68,9.09,10.26v10.94c0,5.13.67,6.08,2.23,6.47v.61h-7.36v-.61c1.56-.39,2.23-1.34,2.23-6.47v-9.76c0-6.64-2.73-9.99-8.53-9.99-3.51,0-7.14,2.29-9.82,4.58v15.17c0,5.13.67,6.08,2.23,6.47v.61h-7.36v-.61Z"/>
        <path class="cls-1" d="M448.41,31.69c0-8.65,6.3-14.95,14.73-14.95,6.41,0,10.6,3.96,10.88,9.71h-22.42c-.22,1.06-.33,2.18-.33,3.35,0,8.09,5.13,13.33,12.5,13.33,4.52,0,7.47-2.06,10.32-5.3l.45.45c-3.12,3.9-7.42,7.31-12.83,7.31-6.14,0-13.28-4.52-13.28-13.89ZM470.89,25.77c-.45-2.79-3.29-8.09-9.71-8.09-4.8,0-8.26,3.13-9.48,8.09h19.19Z"/>
        <path class="cls-1" d="M480.61,44.4c1.56-.39,2.23-1.34,2.23-6.47V8.37c0-4.57-.56-5.08-2.23-5.8v-.5l4.74-2.06.39.33v33.02l10.6-9.93c3.79-3.51,4.58-5.3,3.24-6.02v-.28h6.08v.61c-1.62.5-3.07.72-6.8,4.24l-4.52,4.24,6.36,11.49c2.18,3.96,3.91,6.42,6.3,6.75v.56h-2.79c-2.73,0-3.68-1.67-6.47-6.7l-5.52-10.09-6.47,6.08v3.63c0,5.13.67,6.08,2.23,6.47v.61h-7.36v-.61Z"/>
      </g>
    </g>
  </g>
</svg>