<?xml version="1.0" encoding="UTF-8"?>
<svg id="Layer_2" data-name="Layer 2" xmlns="http://www.w3.org/2000/svg" viewBox="0 0 1017.98 84">
  <defs>
    <style>
      .cls-1 {
        fill: #000;
        stroke-width: 0px;
      }
    </style>
  </defs>
  <g id="Layer_1-2" data-name="Layer 1">
    <g>
      <g>
        <path class="cls-1" d="M121.21,10.5v38.66c0,17.56-10.98,25.3-25.87,25.3-7.25,0-14.32-1.05-18.71-2.96l2.48-18.14c2.1.67,5.63,1.62,9.55,1.62,7.16,0,10.31-3.34,10.31-10.12V10.5h22.24Z"/>
        <path class="cls-1" d="M174.38,10.5l24.53,62.81h-25.3l-3.44-9.83h-20.81l-3.34,9.83h-25.3l24.53-62.81h29.12ZM154.05,47.16h11.55l-2.2-5.92c-1.15-3.44-3.25-11.46-3.25-11.46h-.76s-2.1,7.92-3.25,11.46l-2.1,5.92Z"/>
        <path class="cls-1" d="M223.55,10.5v23.2h2.29l17.47-23.2h26.44l-23.2,31.31v.1l25.11,31.41h-27.78l-17.85-21.67h-2.48v21.67h-22.24V10.5h22.24Z"/>
        <path class="cls-1" d="M334.66,41.53c0,18.9-13.84,32.93-35.8,32.93s-35.89-13.08-35.89-32.93c0-18.23,14.8-32.17,35.89-32.17s35.8,13.94,35.8,32.17ZM286.74,41.72c0,7.92,5.25,12.41,12.12,12.41s12.03-4.49,12.03-12.41c0-7.16-5.15-12.03-12.03-12.03s-12.12,4.87-12.12,12.03Z"/>
        <path class="cls-1" d="M388.12,38.19c6.68,2.77,10.31,8.4,10.31,15.56,0,10.6-6.87,19.57-24.15,19.57h-35.8V10.5h34.27c16.13,0,21.96,7.54,21.96,15.94,0,4.1-1.62,8.78-6.59,11.46v.29ZM369.41,35.32c2.67,0,4.3-2,4.3-4.77,0-3.05-1.62-4.96-5.63-4.96h-7.35v9.74h8.69ZM360.73,47.54v10.69h8.78c4.1,0,6.01-1.72,6.01-5.15s-1.72-5.54-5.92-5.54h-8.88Z"/>
        <path class="cls-1" d="M450.17,51.27c-1.72-2.39-5.25-8.69-5.25-8.69l-.29.1s.67,7.73.67,10.98v19.66h-22.24V10.5h22.72l15.37,22.43h.19l15.27-22.43h22.72v62.81h-22.24v-19.66c0-3.25.57-10.98.57-10.98l-.29-.1s-3.53,6.3-5.16,8.69l-9.74,14.41h-2.48l-9.83-14.41Z"/>
        <path class="cls-1" d="M555.37,10.5l24.53,62.81h-25.3l-3.44-9.83h-20.81l-3.34,9.83h-25.3l24.53-62.81h29.11ZM535.04,47.16h11.55l-2.2-5.92c-1.15-3.44-3.25-11.46-3.25-11.46h-.76s-2.1,7.92-3.25,11.46l-2.1,5.92Z"/>
        <path class="cls-1" d="M588.6,29.98h-19.09V10.5h60.43v19.47h-19.09v43.34h-22.24V29.98Z"/>
        <path class="cls-1" d="M696.47,10.5v35.89c0,19-13.17,28.06-31.79,28.06s-31.88-9.07-31.88-28.06V10.5h22.34v34.37c0,6.49,3.05,10.12,9.55,10.12s9.55-3.63,9.55-10.12V10.5h22.24Z"/>
        <path class="cls-1" d="M701.72,70.45l2.2-17.47c4.96,1.91,13.17,4.1,20.81,4.1,7.06,0,9.35-1.81,9.35-4.3,0-1.34-.57-2.2-2.29-2.67-1.72-.48-6.49-.86-11.55-1.53-4.96-.57-10.02-1.91-13.17-3.91-5.06-3.15-6.97-9.07-6.97-14.13,0-13.08,11.36-21.19,28.54-21.19,8.88,0,17.56,1.72,23.39,4.2l-2.86,16.61c-4.77-1.72-12.12-3.34-19.38-3.34-5.82,0-7.45,1.81-7.45,3.82,0,1.15.48,2.2,2.2,2.58,2.77.67,7.54.95,11.93,1.62,4.96.67,9.36,1.81,12.41,3.72,4.87,2.96,7.35,8.11,7.35,13.94,0,12.31-7.54,21.96-28.35,21.96-10.02,0-19.95-1.72-26.16-4.01Z"/>
        <path class="cls-1" d="M757.66,42.48c0-18.23,13.55-33.12,36.08-33.12,11.74,0,19.28,3.53,23.48,6.4l-5.54,17.95c-3.82-2.86-9.26-4.87-14.99-4.87-9.07,0-14.6,5.92-14.6,13.27s5.06,12.89,14.8,12.89c7.06,0,12.89-3.34,16.04-5.73l5.92,17.09c-3.25,2.96-12.12,8.11-25.11,8.11-25.58,0-36.08-15.75-36.08-31.98Z"/>
        <path class="cls-1" d="M844.34,10.5v21.19h18.23V10.5h22.24v62.81h-22.24v-22.15h-18.23v22.15h-22.24V10.5h22.24Z"/>
        <path class="cls-1" d="M913.46,48.78v6.68h29.88v17.85h-52.12V10.5h50.88v17.95h-28.64v6.11h24.15v14.22h-24.15Z"/>
        <path class="cls-1" d="M969.87,10.5v23.2h2.29l17.47-23.2h26.44l-23.2,31.31v.1l25.11,31.41h-27.78l-17.85-21.67h-2.48v21.67h-22.24V10.5h22.24Z"/>
      </g>
      <g>
        <rect class="cls-1" y="9.69" width="7" height="64.62"/>
        <rect class="cls-1" x="13.38" y="0" width="7" height="84"/>
        <rect class="cls-1" x="26.38" y="16.15" width="7" height="51.69"/>
        <rect class="cls-1" x="39.08" y="9.69" width="7" height="64.62"/>
        <rect class="cls-1" x="51.77" y="19.38" width="7" height="45.23"/>
      </g>
    </g>
  </g>
</svg>