<?xml version="1.0" encoding="UTF-8" standalone="no"?>
<!DOCTYPE svg PUBLIC "-//W3C//DTD SVG 1.1//EN" "http://www.w3.org/Graphics/SVG/1.1/DTD/svg11.dtd">
<svg width="100%" height="100%" viewBox="0 0 1638 579" version="1.1" xmlns="http://www.w3.org/2000/svg" xmlns:xlink="http://www.w3.org/1999/xlink" xml:space="preserve" xmlns:serif="http://www.serif.com/" style="fill-rule:evenodd;clip-rule:evenodd;stroke-linejoin:round;stroke-miterlimit:2;">
    <g transform="matrix(1,0,0,1,-340.177,-274.266)">
        <g>
            <g transform="matrix(42.0729,0,0,42.0729,-9354.81,-19357)">
                <path d="M231.358,473.34C231.194,473.34 231.041,473.296 230.9,473.208C230.759,473.119 230.646,473.002 230.561,472.855C230.476,472.708 230.433,472.55 230.433,472.379C230.433,472.127 230.518,471.882 230.689,471.644C230.859,471.406 231.114,471.217 231.455,471.076C231.52,471.052 231.573,471.04 231.614,471.04C231.661,471.04 231.684,471.058 231.684,471.093C231.684,471.123 231.669,471.146 231.64,471.164C231.493,471.264 231.361,471.391 231.244,471.547C231.126,471.703 231.032,471.867 230.962,472.04C230.891,472.214 230.856,472.377 230.856,472.529C230.856,472.7 230.909,472.843 231.015,472.961C231.12,473.078 231.297,473.137 231.543,473.137C231.89,473.137 232.211,473.037 232.508,472.838C232.804,472.638 233.078,472.369 233.327,472.031C233.577,471.694 233.807,471.312 234.019,470.886C234.23,470.46 234.427,470.018 234.609,469.56C234.791,469.102 234.958,468.659 235.111,468.23C235.24,467.872 235.325,467.605 235.367,467.428C235.408,467.252 235.422,467.164 235.411,467.164C235.37,467.164 235.28,467.176 235.142,467.199C235.004,467.223 234.815,467.258 234.574,467.305C234.121,467.387 233.884,467.42 233.86,467.402C233.796,467.373 233.763,467.329 233.763,467.27C233.763,467.211 233.79,467.155 233.843,467.103C233.895,467.05 233.951,467.023 234.01,467.023C234.033,467.023 234.051,467.026 234.063,467.032L234.072,467.041C234.072,467.053 234.063,467.069 234.045,467.089C234.028,467.11 234.019,467.123 234.019,467.129C234.03,467.141 234.042,467.147 234.054,467.147C234.077,467.147 234.119,467.138 234.177,467.12C234.242,467.097 234.331,467.076 234.446,467.058C234.561,467.041 234.7,467.02 234.864,466.997C235.07,466.967 235.229,466.947 235.34,466.935C235.452,466.923 235.513,466.915 235.525,466.909L235.596,466.759C235.648,466.653 235.698,466.6 235.745,466.6C235.816,466.6 235.939,466.688 236.115,466.865C236.973,466.865 237.457,466.891 237.569,466.944C237.639,466.979 237.681,467.023 237.692,467.076C237.692,467.123 237.666,467.164 237.613,467.199C237.566,467.229 237.54,467.226 237.534,467.191C237.516,467.085 237.393,467.032 237.164,467.032C237.111,467.032 237.032,467.035 236.926,467.041C236.82,467.047 236.747,467.05 236.706,467.05C236.565,467.05 236.318,467.082 235.966,467.147C235.883,467.358 235.789,467.619 235.684,467.931C235.578,468.242 235.466,468.563 235.349,468.895C235.231,469.227 235.114,469.534 234.997,469.816C234.791,470.309 234.566,470.769 234.323,471.195C234.079,471.62 233.81,471.995 233.517,472.318C233.223,472.641 232.898,472.892 232.543,473.071C232.188,473.25 231.793,473.34 231.358,473.34Z" style="fill:rgb(222,201,164);fill-rule:nonzero;"/>
                <path d="M237.587,472.186C237.469,472.186 237.362,472.147 237.265,472.071C237.168,471.995 237.111,471.921 237.093,471.851C237.076,471.769 237.184,471.475 237.419,470.97L237.217,471.261C237.129,471.39 237.04,471.504 236.952,471.604C236.864,471.704 236.782,471.792 236.706,471.869C236.482,472.08 236.295,472.168 236.142,472.133C235.789,472.051 235.613,471.851 235.613,471.534C235.613,471.281 235.734,470.958 235.974,470.565C236.051,470.447 236.148,470.33 236.265,470.212C236.383,470.095 236.518,469.98 236.67,469.869C237.064,469.581 237.443,469.437 237.807,469.437C238.03,469.437 238.241,469.496 238.441,469.613C238.506,469.66 238.538,469.71 238.538,469.763C238.538,469.804 238.526,469.825 238.503,469.825C238.497,469.825 238.491,469.822 238.485,469.816C238.362,469.681 238.197,469.613 237.992,469.613C237.751,469.613 237.49,469.704 237.208,469.886C236.926,470.068 236.673,470.312 236.45,470.618C236.133,471.058 235.974,471.416 235.974,471.692C235.974,471.851 236.03,471.951 236.142,471.992C236.283,472.051 236.582,471.789 237.04,471.208C237.228,470.979 237.385,470.773 237.512,470.591C237.638,470.409 237.739,470.253 237.816,470.124C237.851,470.06 237.915,470.027 238.009,470.027C238.186,470.027 238.274,470.08 238.274,470.186C238.274,470.203 238.271,470.215 238.265,470.221C237.754,471.032 237.499,471.581 237.499,471.869C237.499,471.939 237.519,471.977 237.56,471.983C237.684,472.018 237.889,471.927 238.177,471.71C238.523,471.452 238.849,471.108 239.155,470.679C239.219,470.591 239.278,470.547 239.331,470.547C239.349,470.547 239.357,470.553 239.357,470.565C239.357,470.594 239.331,470.65 239.278,470.732C239.155,470.926 239.018,471.108 238.868,471.278C238.719,471.449 238.553,471.607 238.371,471.754C238.112,471.971 237.901,472.106 237.736,472.159C237.695,472.177 237.645,472.186 237.587,472.186Z" style="fill:rgb(222,201,164);fill-rule:nonzero;"/>
                <path d="M240.987,472.846C240.829,472.846 240.676,472.791 240.529,472.679C240.089,472.332 239.748,471.684 239.507,470.732C239.149,471.143 238.814,471.61 238.503,472.133C238.491,472.145 238.459,472.15 238.406,472.15C238.147,472.15 238.03,472.115 238.054,472.045C238.171,471.728 238.308,471.394 238.463,471.045C238.619,470.695 238.794,470.333 238.987,469.957C239.633,468.694 240.124,467.939 240.459,467.693C240.529,467.64 240.626,467.613 240.749,467.613C240.955,467.613 241.058,467.655 241.058,467.737C241.058,467.754 241.04,467.778 241.005,467.807C240.177,468.424 239.478,469.499 238.908,471.032L239.454,470.503C239.431,470.421 239.412,470.342 239.397,470.265C239.382,470.189 239.375,470.115 239.375,470.045C239.375,469.986 239.398,469.935 239.445,469.891C239.492,469.847 239.542,469.825 239.595,469.825C239.636,469.825 239.672,469.848 239.701,469.895C239.73,469.948 239.81,469.986 239.939,470.01C240.121,469.839 240.285,469.697 240.432,469.582C240.579,469.468 240.711,469.381 240.829,469.323C241.034,469.217 241.196,469.164 241.313,469.164C241.478,469.164 241.56,469.267 241.56,469.472C241.56,469.643 241.46,469.798 241.26,469.939C241.061,470.08 240.826,470.174 240.555,470.221C240.461,470.239 240.356,470.248 240.238,470.248C240.197,470.248 240.158,470.246 240.119,470.243C240.081,470.24 240.039,470.236 239.992,470.23L239.877,470.336C239.924,470.612 239.968,470.851 240.009,471.054C240.05,471.256 240.091,471.422 240.133,471.551C240.285,472.056 240.485,472.403 240.732,472.591C240.826,472.667 240.934,472.705 241.058,472.705C241.298,472.705 241.466,472.609 241.56,472.415C241.583,472.356 241.616,472.321 241.657,472.309C241.692,472.291 241.71,472.3 241.71,472.335C241.71,472.359 241.701,472.385 241.683,472.415C241.536,472.702 241.304,472.846 240.987,472.846ZM240.212,470.036C240.271,470.036 240.329,470.027 240.388,470.01C240.488,469.98 240.588,469.939 240.688,469.886C240.787,469.833 240.887,469.775 240.987,469.71C241.187,469.581 241.287,469.484 241.287,469.419C241.287,469.402 241.278,469.393 241.26,469.393C241.131,469.393 240.79,469.599 240.238,470.01L240.212,470.036Z" style="fill:rgb(222,201,164);fill-rule:nonzero;"/>
                <path d="M241.569,472.186C241.14,472.186 240.925,471.921 240.925,471.393C240.925,470.864 241.137,470.359 241.56,469.878C241.566,469.872 241.563,469.85 241.551,469.811C241.539,469.773 241.533,469.745 241.533,469.728C241.533,469.693 241.545,469.666 241.569,469.648C241.774,469.484 242.015,469.402 242.291,469.402C242.367,469.402 242.429,469.416 242.476,469.446C242.535,469.469 242.59,469.493 242.643,469.516C242.696,469.54 242.746,469.566 242.793,469.596C243.016,469.731 243.172,469.872 243.26,470.018C243.407,470.013 243.53,470.007 243.63,470.001C243.73,469.995 243.806,469.989 243.859,469.983L243.894,469.983C243.947,469.983 243.974,470.004 243.974,470.045C243.974,470.057 243.962,470.065 243.938,470.071C243.874,470.083 243.79,470.098 243.687,470.115C243.584,470.133 243.46,470.151 243.313,470.168C243.33,470.209 243.339,470.256 243.339,470.309C243.339,470.35 243.336,470.38 243.33,470.397C243.242,470.873 243.01,471.29 242.635,471.648C242.27,472.007 241.915,472.186 241.569,472.186ZM243.049,470.018C242.955,469.872 242.77,469.798 242.494,469.798C242.282,469.798 242.144,469.822 242.08,469.869C242.062,469.875 242.044,469.886 242.027,469.904C242.009,469.922 241.988,469.942 241.965,469.966C242.294,470.007 242.655,470.024 243.049,470.018ZM241.595,472.045C241.853,472.045 242.15,471.86 242.485,471.49C242.825,471.12 243.028,470.761 243.093,470.415C243.098,470.386 243.103,470.361 243.106,470.34C243.109,470.319 243.11,470.3 243.11,470.283C243.11,470.248 243.104,470.212 243.093,470.177C242.981,470.183 242.867,470.186 242.749,470.186L242.075,470.186C241.978,470.186 241.892,470.183 241.815,470.177C241.58,470.494 241.433,470.75 241.375,470.943C241.304,471.161 241.269,471.369 241.269,471.569C241.269,471.886 241.378,472.045 241.595,472.045Z" style="fill:rgb(222,201,164);fill-rule:nonzero;"/>
                <path d="M243.868,472.23C243.639,472.23 243.463,472.133 243.339,471.939C243.333,471.933 243.33,471.913 243.33,471.877C243.33,471.736 243.422,471.446 243.604,471.005C243.686,470.805 243.769,470.616 243.855,470.437C243.94,470.258 244.026,470.086 244.115,469.922C244.608,469.011 245.054,468.292 245.454,467.763C245.548,467.646 245.727,467.599 245.991,467.622C246.05,467.628 246.079,467.655 246.079,467.702C246.079,467.766 246.059,467.81 246.017,467.834C245.536,468.204 244.893,469.179 244.088,470.758C244.117,470.729 244.182,470.665 244.282,470.565C244.382,470.465 244.523,470.327 244.705,470.151C245.163,469.71 245.495,469.49 245.7,469.49C245.741,469.502 245.797,469.512 245.868,469.521C245.938,469.53 246.02,469.54 246.114,469.552C246.22,469.552 246.273,469.622 246.273,469.763C246.273,470.157 246.044,470.623 245.586,471.164C245.351,471.44 245.084,471.678 244.784,471.877C244.438,472.112 244.132,472.23 243.868,472.23ZM243.762,471.948C243.944,471.948 244.188,471.848 244.493,471.648C244.652,471.548 244.796,471.44 244.925,471.322C245.054,471.205 245.166,471.082 245.26,470.952C245.647,470.43 245.841,470.054 245.841,469.825C245.841,469.737 245.803,469.693 245.727,469.693C245.509,469.693 245.092,469.995 244.476,470.6C243.9,471.187 243.612,471.592 243.612,471.816C243.612,471.904 243.662,471.948 243.762,471.948Z" style="fill:rgb(222,201,164);fill-rule:nonzero;"/>
            </g>
            <g transform="matrix(30.8885,0,0,30.8885,-6441.02,-13789.8)">
                <path d="M243.103,474.045C242.591,474.045 242.299,473.701 242.227,473.013C242.203,472.781 242.191,472.549 242.191,472.317C242.191,471.805 242.265,471.261 242.413,470.685C242.561,470.109 242.757,469.517 243.001,468.909C243.245,468.301 243.521,467.689 243.829,467.073C244.137,466.457 244.451,465.857 244.771,465.273C244.827,465.185 244.855,465.109 244.855,465.045C244.855,464.989 244.835,464.961 244.795,464.961C244.643,464.961 244.271,465.221 243.679,465.741C243.359,466.021 243.059,466.319 242.779,466.635C242.499,466.951 242.247,467.249 242.023,467.529C241.719,467.921 241.461,468.255 241.249,468.531C241.037,468.807 240.875,469.033 240.763,469.209C240.619,469.425 240.445,469.707 240.241,470.055C240.037,470.403 239.799,470.813 239.527,471.285C239.519,471.293 239.411,471.541 239.203,472.029C239.067,472.357 238.955,472.521 238.867,472.521C238.731,472.505 238.609,472.451 238.501,472.359C238.393,472.267 238.347,472.165 238.363,472.053C238.403,471.709 238.511,471.265 238.687,470.721C238.863,470.177 239.111,469.529 239.431,468.777C240.031,467.337 240.331,466.545 240.331,466.401C240.331,466.297 240.251,466.245 240.091,466.245C239.507,466.245 238.543,467.041 237.199,468.633C235.863,470.225 235.135,471.385 235.015,472.113C234.999,472.225 234.935,472.317 234.823,472.389C234.711,472.461 234.595,472.497 234.475,472.497C234.347,472.497 234.283,472.453 234.283,472.365C234.283,471.861 234.675,470.793 235.459,469.161C236.043,467.961 236.387,467.237 236.491,466.989C236.651,466.597 236.779,466.239 236.875,465.915C236.971,465.591 237.019,465.329 237.019,465.129C237.019,464.897 236.963,464.749 236.851,464.685C236.739,464.621 236.555,464.589 236.299,464.589C235.507,464.589 234.579,464.837 233.515,465.333C233.195,465.485 232.895,465.661 232.615,465.861C232.335,466.061 232.071,466.289 231.823,466.545C231.295,467.097 231.031,467.597 231.031,468.045C231.031,468.197 231.051,468.335 231.091,468.459C231.131,468.583 231.211,468.693 231.331,468.789C231.427,468.869 231.569,468.931 231.757,468.975C231.945,469.019 232.151,469.041 232.375,469.041C232.727,469.041 233.087,468.993 233.455,468.897C233.471,468.889 233.495,468.885 233.527,468.885C233.559,468.885 233.575,468.897 233.575,468.921C233.575,468.985 233.511,469.051 233.383,469.119C233.255,469.187 233.093,469.245 232.897,469.293C232.701,469.341 232.495,469.365 232.279,469.365C231.871,469.365 231.487,469.297 231.127,469.161C230.711,469.009 230.503,468.697 230.503,468.225C230.503,467.865 230.619,467.485 230.851,467.085C231.059,466.733 231.407,466.365 231.895,465.981C232.175,465.765 232.513,465.551 232.909,465.339C233.305,465.127 233.725,464.937 234.169,464.769C234.613,464.601 235.053,464.467 235.489,464.367C235.925,464.267 236.323,464.217 236.683,464.217C237.371,464.217 237.715,464.473 237.715,464.985C237.715,465.241 237.615,465.629 237.415,466.149C237.215,466.669 236.939,467.297 236.587,468.033C236.339,468.553 236.099,469.067 235.867,469.575C235.635,470.083 235.391,470.597 235.135,471.117C235.143,471.133 235.559,470.525 236.383,469.293C236.591,468.989 236.841,468.663 237.133,468.315C237.425,467.967 237.767,467.605 238.159,467.229C238.871,466.541 239.415,466.093 239.791,465.885C240.007,465.765 240.223,465.705 240.439,465.705C240.767,465.705 240.931,465.873 240.931,466.209C240.931,466.329 240.915,466.449 240.883,466.569C240.683,467.057 240.447,467.655 240.175,468.363C239.903,469.071 239.591,469.893 239.239,470.829C239.223,470.877 239.215,470.909 239.215,470.925C239.215,470.933 239.219,470.937 239.227,470.937C239.267,470.937 239.579,470.477 240.163,469.557C240.491,469.029 240.773,468.591 241.009,468.243C241.245,467.895 241.431,467.641 241.567,467.481C242.679,466.105 243.587,465.157 244.291,464.637C244.579,464.421 244.935,464.313 245.359,464.313C245.719,464.313 245.899,464.425 245.899,464.649C245.899,464.817 245.795,465.029 245.587,465.285C244.827,466.245 244.151,467.541 243.559,469.173C243.287,469.933 243.073,470.587 242.917,471.135C242.761,471.683 242.683,472.189 242.683,472.653C242.683,473.069 242.725,473.349 242.809,473.493C242.893,473.637 243.015,473.709 243.175,473.709C243.287,473.709 243.409,473.691 243.541,473.655C243.673,473.619 243.819,473.573 243.979,473.517C244.011,473.509 244.037,473.503 244.057,473.499C244.077,473.495 244.095,473.493 244.111,473.493C244.151,473.493 244.171,473.505 244.171,473.529C244.171,473.609 244.055,473.709 243.823,473.829C243.575,473.973 243.335,474.045 243.103,474.045Z" style="fill:rgb(222,201,164);fill-rule:nonzero;"/>
                <path d="M246.955,472.221C246.795,472.221 246.649,472.169 246.517,472.065C246.385,471.961 246.307,471.861 246.283,471.765C246.259,471.653 246.407,471.253 246.727,470.565L246.451,470.961C246.331,471.137 246.211,471.293 246.091,471.429C245.971,471.565 245.859,471.685 245.755,471.789C245.451,472.077 245.195,472.197 244.987,472.149C244.507,472.037 244.267,471.765 244.267,471.333C244.267,470.989 244.431,470.549 244.759,470.013C244.863,469.853 244.995,469.693 245.155,469.533C245.315,469.373 245.499,469.217 245.707,469.065C246.243,468.673 246.759,468.477 247.255,468.477C247.559,468.477 247.847,468.557 248.119,468.717C248.207,468.781 248.251,468.849 248.251,468.921C248.251,468.977 248.235,469.005 248.203,469.005C248.195,469.005 248.187,469.001 248.179,468.993C248.011,468.809 247.787,468.717 247.507,468.717C247.179,468.717 246.823,468.841 246.439,469.089C246.055,469.337 245.711,469.669 245.407,470.085C244.975,470.685 244.759,471.173 244.759,471.549C244.759,471.765 244.835,471.901 244.987,471.957C245.179,472.037 245.587,471.681 246.211,470.889C246.467,470.577 246.681,470.297 246.853,470.049C247.025,469.801 247.163,469.589 247.267,469.413C247.315,469.325 247.403,469.281 247.531,469.281C247.771,469.281 247.891,469.353 247.891,469.497C247.891,469.521 247.887,469.537 247.879,469.545C247.183,470.649 246.835,471.397 246.835,471.789C246.835,471.885 246.863,471.937 246.919,471.945C247.087,471.993 247.367,471.869 247.759,471.573C248.231,471.221 248.675,470.753 249.091,470.169C249.179,470.049 249.259,469.989 249.331,469.989C249.355,469.989 249.367,469.997 249.367,470.013C249.367,470.053 249.331,470.129 249.259,470.241C249.091,470.505 248.905,470.753 248.701,470.985C248.497,471.217 248.271,471.433 248.023,471.633C247.671,471.929 247.383,472.113 247.159,472.185C247.103,472.209 247.035,472.221 246.955,472.221Z" style="fill:rgb(222,201,164);fill-rule:nonzero;"/>
                <path d="M249.235,472.293C248.619,472.157 248.311,471.877 248.311,471.453C248.311,471.333 248.331,471.191 248.371,471.027C248.411,470.863 248.475,470.681 248.563,470.481L249.583,468.189C249.463,468.205 249.331,468.221 249.187,468.237C249.043,468.253 248.883,468.269 248.707,468.285C248.675,468.285 248.659,468.257 248.659,468.201C248.659,468.089 248.679,468.025 248.719,468.009L249.727,467.865L250.507,466.281C250.579,466.137 250.803,466.065 251.179,466.065C251.355,466.065 251.431,466.085 251.407,466.125C251.231,466.405 251.053,466.687 250.873,466.971C250.693,467.255 250.515,467.537 250.339,467.817C250.363,467.809 250.415,467.801 250.495,467.793C250.575,467.785 250.679,467.777 250.807,467.769C250.903,467.761 250.995,467.755 251.083,467.751C251.171,467.747 251.255,467.745 251.335,467.745C251.671,467.745 251.831,467.761 251.815,467.793C251.759,467.849 251.215,467.957 250.183,468.117C249.311,469.765 248.875,470.929 248.875,471.609C248.875,471.857 248.947,472.005 249.091,472.053C249.203,472.085 249.487,471.937 249.943,471.609C250.207,471.417 250.447,471.207 250.663,470.979C250.879,470.751 251.075,470.509 251.251,470.253C251.307,470.173 251.359,470.133 251.407,470.133C251.439,470.133 251.455,470.149 251.455,470.181C251.455,470.213 251.435,470.261 251.395,470.325C251.091,470.813 250.687,471.273 250.183,471.705C249.695,472.129 249.379,472.325 249.235,472.293Z" style="fill:rgb(222,201,164);fill-rule:nonzero;"/>
                <path d="M253.123,472.173C252.915,472.125 252.719,472.013 252.535,471.837C252.495,471.797 252.475,471.737 252.475,471.657C252.475,471.337 252.619,470.889 252.907,470.313C252.683,470.601 252.499,470.837 252.355,471.021C252.211,471.205 252.103,471.337 252.031,471.417C251.719,471.777 251.459,471.993 251.251,472.065C251.179,472.089 251.107,472.101 251.035,472.101C250.739,472.101 250.567,471.981 250.519,471.741C250.487,471.669 250.471,471.569 250.471,471.441C250.471,471.049 250.731,470.301 251.251,469.197C251.371,468.941 251.507,468.813 251.659,468.813C251.771,468.813 251.879,468.897 251.983,469.065L251.479,470.061C251.303,470.405 251.169,470.701 251.077,470.949C250.985,471.197 250.939,471.389 250.939,471.525C250.939,471.717 251.003,471.813 251.131,471.813C251.339,471.813 251.675,471.545 252.139,471.009C252.387,470.721 252.629,470.401 252.865,470.049C253.101,469.697 253.335,469.313 253.567,468.897C253.615,468.801 253.687,468.753 253.783,468.753C253.863,468.753 253.941,468.787 254.017,468.855C254.093,468.923 254.123,468.973 254.107,469.005C253.331,470.613 252.943,471.537 252.943,471.777C252.943,471.873 252.975,471.913 253.039,471.897C253.687,471.841 254.383,471.269 255.127,470.181C255.167,470.109 255.211,470.069 255.259,470.061C255.307,470.045 255.331,470.061 255.331,470.109C255.331,470.141 255.315,470.185 255.283,470.241C254.931,470.793 254.511,471.277 254.023,471.693C253.591,472.053 253.291,472.213 253.123,472.173Z" style="fill:rgb(222,201,164);fill-rule:nonzero;"/>
                <path d="M254.611,472.581C254.579,472.581 254.563,472.569 254.563,472.545C254.563,472.441 254.835,472.249 255.379,471.969C255.515,471.905 255.639,471.839 255.751,471.771C255.863,471.703 255.959,471.641 256.039,471.585C256.527,471.225 256.771,470.913 256.771,470.649C256.771,470.449 256.575,470.349 256.183,470.349C255.271,470.333 254.815,470.133 254.815,469.749C254.815,469.581 254.887,469.421 255.031,469.269C255.199,469.077 255.479,468.893 255.871,468.717C256.295,468.525 256.683,468.429 257.035,468.429C257.347,468.429 257.583,468.505 257.743,468.657C257.815,468.729 257.851,468.817 257.851,468.921C257.851,469.033 257.815,469.133 257.743,469.221C257.671,469.309 257.591,469.353 257.503,469.353C257.343,469.353 257.255,469.245 257.239,469.029C257.239,468.877 257.215,468.789 257.167,468.765C257.119,468.741 256.991,468.729 256.783,468.729C256.519,468.729 256.223,468.817 255.895,468.993C255.503,469.193 255.319,469.433 255.343,469.713C255.359,469.873 255.663,469.953 256.255,469.953C257.063,469.953 257.467,470.149 257.467,470.541C257.467,470.965 257.119,471.389 256.423,471.813C255.983,472.085 255.447,472.325 254.815,472.533C254.727,472.565 254.659,472.581 254.611,472.581Z" style="fill:rgb(222,201,164);fill-rule:nonzero;"/>
                <path d="M259.207,472.185C259.039,472.185 258.869,472.145 258.697,472.065C258.525,471.985 258.379,471.863 258.259,471.699C258.139,471.535 258.079,471.337 258.079,471.105C258.079,470.785 258.199,470.421 258.439,470.013C258.679,469.605 258.995,469.245 259.387,468.933C259.635,468.733 259.843,468.597 260.011,468.525C260.251,468.421 260.479,468.369 260.695,468.369C260.967,468.369 261.179,468.457 261.331,468.633C261.411,468.713 261.451,468.797 261.451,468.885C261.451,469.029 261.383,469.101 261.247,469.101C261.151,469.101 261.079,469.041 261.031,468.921C260.975,468.753 260.855,468.669 260.671,468.669C260.447,468.669 260.195,468.793 259.915,469.041C259.603,469.289 259.319,469.629 259.063,470.061C258.783,470.525 258.643,470.933 258.643,471.285C258.643,471.629 258.747,471.845 258.955,471.933C259.027,471.965 259.119,471.981 259.231,471.981C259.615,471.981 260.051,471.821 260.539,471.501C261.075,471.157 261.535,470.713 261.919,470.169C262.007,470.049 262.087,469.989 262.159,469.989C262.183,469.989 262.195,469.997 262.195,470.013C262.195,470.053 262.159,470.129 262.087,470.241C261.719,470.809 261.203,471.297 260.539,471.705C260.235,471.889 259.993,472.015 259.813,472.083C259.633,472.151 259.431,472.185 259.207,472.185Z" style="fill:rgb(222,201,164);fill-rule:nonzero;"/>
                <path d="M263.767,472.209C263.591,472.225 263.423,472.179 263.263,472.071C263.103,471.963 263.023,471.841 263.023,471.705C263.023,471.457 263.259,470.981 263.731,470.277C264.251,469.493 264.511,469.041 264.511,468.921C264.511,468.849 264.471,468.813 264.391,468.813C264.183,468.813 263.783,469.121 263.191,469.737C262.839,470.089 262.509,470.467 262.201,470.871C261.893,471.275 261.603,471.701 261.331,472.149C261.315,472.165 261.271,472.173 261.199,472.173C260.847,472.173 260.687,472.125 260.719,472.029C260.855,471.661 261.027,471.249 261.235,470.793C261.443,470.337 261.691,469.829 261.979,469.269C262.931,467.429 263.579,466.377 263.923,466.113C264.019,466.041 264.151,466.005 264.319,466.005C264.599,466.005 264.739,466.061 264.739,466.173C264.739,466.197 264.715,466.229 264.667,466.269C263.619,467.045 262.691,468.505 261.883,470.649C261.891,470.641 261.933,470.603 262.009,470.535C262.085,470.467 262.195,470.365 262.339,470.229C262.491,470.093 262.621,469.967 262.729,469.851C262.837,469.735 262.931,469.633 263.011,469.545C263.403,469.105 263.835,468.777 264.307,468.561C264.419,468.513 264.547,468.489 264.691,468.489C265.019,468.489 265.183,468.609 265.183,468.849C265.183,469.001 265.107,469.181 264.955,469.389C264.091,470.597 263.659,471.409 263.659,471.825C263.659,471.913 263.687,471.969 263.743,471.993C263.871,472.049 264.187,471.917 264.691,471.597C265.283,471.213 265.787,470.737 266.203,470.169C266.291,470.049 266.371,469.989 266.443,469.989C266.467,469.989 266.479,469.997 266.479,470.013C266.479,470.053 266.443,470.129 266.371,470.241C266.019,470.793 265.531,471.281 264.907,471.705C264.347,472.073 263.967,472.241 263.767,472.209Z" style="fill:rgb(222,201,164);fill-rule:nonzero;"/>
                <path d="M266.227,472.185C265.995,472.185 265.791,472.129 265.615,472.017C265.383,471.857 265.267,471.625 265.267,471.321C265.267,470.993 265.407,470.593 265.687,470.121C266.063,469.505 266.615,468.965 267.343,468.501C267.527,468.381 267.711,468.321 267.895,468.321C268.135,468.321 268.307,468.397 268.411,468.549C268.475,468.637 268.507,468.737 268.507,468.849C268.507,469.185 268.235,469.553 267.691,469.953C267.531,470.065 267.361,470.167 267.181,470.259C267.001,470.351 266.807,470.417 266.599,470.457L266.083,470.565C265.891,470.909 265.795,471.197 265.795,471.429C265.795,471.749 265.983,471.909 266.359,471.909C266.655,471.909 267.015,471.785 267.439,471.537C268.007,471.209 268.495,470.753 268.903,470.169C268.967,470.073 269.027,470.025 269.083,470.025C269.107,470.025 269.119,470.041 269.119,470.073C269.119,470.113 269.091,470.173 269.035,470.253C268.259,471.421 267.383,472.061 266.407,472.173C266.375,472.181 266.345,472.185 266.317,472.185L266.227,472.185ZM266.227,470.361C266.451,470.361 266.739,470.261 267.091,470.061C267.587,469.781 267.935,469.421 268.135,468.981C268.191,468.869 268.219,468.777 268.219,468.705C268.219,468.633 268.191,468.597 268.135,468.597C268.031,468.597 267.819,468.725 267.499,468.981C267.267,469.181 267.041,469.395 266.821,469.623C266.601,469.851 266.391,470.093 266.191,470.349C266.183,470.357 266.195,470.361 266.227,470.361Z" style="fill:rgb(222,201,164);fill-rule:nonzero;"/>
                <path d="M271.579,473.121C271.363,473.121 271.155,473.045 270.955,472.893C270.355,472.421 269.891,471.537 269.563,470.241C269.075,470.801 268.619,471.437 268.195,472.149C268.179,472.165 268.135,472.173 268.063,472.173C267.711,472.173 267.551,472.125 267.583,472.029C267.743,471.597 267.929,471.143 268.141,470.667C268.353,470.191 268.591,469.697 268.855,469.185C269.735,467.465 270.403,466.437 270.859,466.101C270.955,466.029 271.087,465.993 271.255,465.993C271.535,465.993 271.675,466.049 271.675,466.161C271.675,466.185 271.651,466.217 271.603,466.257C270.475,467.097 269.523,468.561 268.747,470.649L269.491,469.929C269.459,469.817 269.433,469.709 269.413,469.605C269.393,469.501 269.383,469.401 269.383,469.305C269.383,469.225 269.415,469.155 269.479,469.095C269.543,469.035 269.611,469.005 269.683,469.005C269.739,469.005 269.787,469.037 269.827,469.101C269.867,469.173 269.975,469.225 270.151,469.257C270.399,469.025 270.623,468.831 270.823,468.675C271.023,468.519 271.203,468.401 271.363,468.321C271.643,468.177 271.863,468.105 272.023,468.105C272.247,468.105 272.359,468.245 272.359,468.525C272.359,468.757 272.223,468.969 271.951,469.161C271.679,469.353 271.359,469.481 270.991,469.545C270.863,469.569 270.719,469.581 270.559,469.581C270.503,469.581 270.449,469.579 270.397,469.575C270.345,469.571 270.287,469.565 270.223,469.557L270.067,469.701C270.131,470.077 270.191,470.403 270.247,470.679C270.303,470.955 270.359,471.181 270.415,471.357C270.623,472.045 270.895,472.517 271.231,472.773C271.359,472.877 271.507,472.929 271.675,472.929C272.003,472.929 272.231,472.797 272.359,472.533C272.391,472.453 272.435,472.405 272.491,472.389C272.539,472.365 272.563,472.377 272.563,472.425C272.563,472.457 272.551,472.493 272.527,472.533C272.327,472.925 272.011,473.121 271.579,473.121ZM270.523,469.293C270.603,469.293 270.683,469.281 270.763,469.257C270.899,469.217 271.035,469.161 271.171,469.089C271.307,469.017 271.443,468.937 271.579,468.849C271.851,468.673 271.987,468.541 271.987,468.453C271.987,468.429 271.975,468.417 271.951,468.417C271.775,468.417 271.311,468.697 270.559,469.257L270.523,469.293Z" style="fill:rgb(222,201,164);fill-rule:nonzero;"/>
            </g>
        </g>
    </g>
</svg>
