<?xml version="1.0" encoding="UTF-8" standalone="no"?>
<!DOCTYPE svg PUBLIC "-//W3C//DTD SVG 1.1//EN" "http://www.w3.org/Graphics/SVG/1.1/DTD/svg11.dtd">
<svg width="100%" height="100%" viewBox="0 0 850 283" version="1.1" xmlns="http://www.w3.org/2000/svg" xmlns:xlink="http://www.w3.org/1999/xlink" xml:space="preserve" xmlns:serif="http://www.serif.com/" style="fill-rule:evenodd;clip-rule:evenodd;stroke-linejoin:round;stroke-miterlimit:2;">
    <g transform="matrix(1,0,0,1,-2494.7,-948.433)">
        <g transform="matrix(30.8885,0,0,30.8885,-4657.45,-13385)">
            <path d="M232.723,473.181C232.411,473.141 232.159,472.997 231.967,472.749C231.775,472.501 231.679,472.193 231.679,471.825C231.679,471.249 231.903,470.665 232.351,470.073C232.423,469.977 232.487,469.929 232.543,469.929C232.575,469.929 232.591,469.949 232.591,469.989C232.591,470.045 232.559,470.117 232.495,470.205C232.159,470.669 231.991,471.185 231.991,471.753C231.991,472.073 232.055,472.333 232.183,472.533C232.311,472.733 232.495,472.833 232.735,472.833C233.631,472.825 234.691,471.581 235.915,469.101C235.899,469.093 235.877,469.087 235.849,469.083C235.821,469.079 235.787,469.077 235.747,469.077C235.587,469.061 235.507,469.005 235.507,468.909C235.507,468.813 235.683,468.777 236.035,468.801C236.195,468.473 236.361,468.117 236.533,467.733C236.705,467.349 236.879,466.941 237.055,466.509C237.239,466.077 237.607,465.213 237.607,465.213C237.639,465.133 237.715,465.093 237.835,465.093C237.931,465.093 238.025,465.125 238.117,465.189C238.209,465.253 238.255,465.325 238.255,465.405C238.255,465.413 238.247,465.441 238.231,465.489C238.103,465.785 237.899,466.213 237.619,466.773C237.339,467.333 236.987,468.025 236.563,468.849C237.571,468.897 238.507,468.705 239.371,468.273C240.155,467.897 240.667,467.453 240.907,466.941C241.051,466.637 241.123,466.357 241.123,466.101C241.123,465.581 240.851,465.157 240.307,464.829C239.891,464.565 239.371,464.397 238.747,464.325C238.331,464.277 237.915,464.253 237.499,464.253C235.987,464.253 234.663,464.557 233.527,465.165C232.495,465.701 231.979,466.249 231.979,466.809C231.979,466.873 231.995,466.951 232.027,467.043C232.059,467.135 232.075,467.201 232.075,467.241C232.075,467.273 232.063,467.289 232.039,467.289C232.007,467.289 231.947,467.257 231.859,467.193C231.651,467.033 231.547,466.837 231.547,466.605C231.547,466.005 232.031,465.449 232.999,464.937C234.143,464.337 235.643,464.037 237.499,464.037C237.707,464.037 237.915,464.041 238.123,464.049C238.331,464.057 238.543,464.069 238.759,464.085C239.407,464.133 240.039,464.325 240.655,464.661C241.431,465.093 241.819,465.633 241.819,466.281C241.819,466.529 241.767,466.773 241.663,467.013C241.455,467.517 240.883,467.969 239.947,468.369C239.435,468.593 238.887,468.763 238.303,468.879C237.719,468.995 237.095,469.061 236.431,469.077C234.863,471.917 233.627,473.285 232.723,473.181Z" style="fill:rgb(222,201,164);fill-rule:nonzero;"/>
            <path d="M241.987,472.221C241.827,472.221 241.681,472.169 241.549,472.065C241.417,471.961 241.339,471.861 241.315,471.765C241.291,471.653 241.439,471.253 241.759,470.565L241.483,470.961C241.363,471.137 241.243,471.293 241.123,471.429C241.003,471.565 240.891,471.685 240.787,471.789C240.483,472.077 240.227,472.197 240.019,472.149C239.539,472.037 239.299,471.765 239.299,471.333C239.299,470.989 239.463,470.549 239.791,470.013C239.895,469.853 240.027,469.693 240.187,469.533C240.347,469.373 240.531,469.217 240.739,469.065C241.275,468.673 241.791,468.477 242.287,468.477C242.591,468.477 242.879,468.557 243.151,468.717C243.239,468.781 243.283,468.849 243.283,468.921C243.283,468.977 243.267,469.005 243.235,469.005C243.227,469.005 243.219,469.001 243.211,468.993C243.043,468.809 242.819,468.717 242.539,468.717C242.211,468.717 241.855,468.841 241.471,469.089C241.087,469.337 240.743,469.669 240.439,470.085C240.007,470.685 239.791,471.173 239.791,471.549C239.791,471.765 239.867,471.901 240.019,471.957C240.211,472.037 240.619,471.681 241.243,470.889C241.499,470.577 241.713,470.297 241.885,470.049C242.057,469.801 242.195,469.589 242.299,469.413C242.347,469.325 242.435,469.281 242.563,469.281C242.803,469.281 242.923,469.353 242.923,469.497C242.923,469.521 242.919,469.537 242.911,469.545C242.215,470.649 241.867,471.397 241.867,471.789C241.867,471.885 241.895,471.937 241.951,471.945C242.119,471.993 242.399,471.869 242.791,471.573C243.263,471.221 243.707,470.753 244.123,470.169C244.211,470.049 244.291,469.989 244.363,469.989C244.387,469.989 244.399,469.997 244.399,470.013C244.399,470.053 244.363,470.129 244.291,470.241C244.123,470.505 243.937,470.753 243.733,470.985C243.529,471.217 243.303,471.433 243.055,471.633C242.703,471.929 242.415,472.113 242.191,472.185C242.135,472.209 242.067,472.221 241.987,472.221Z" style="fill:rgb(222,201,164);fill-rule:nonzero;"/>
            <path d="M243.403,472.581C243.371,472.581 243.355,472.569 243.355,472.545C243.355,472.441 243.627,472.249 244.171,471.969C244.307,471.905 244.431,471.839 244.543,471.771C244.655,471.703 244.751,471.641 244.831,471.585C245.319,471.225 245.563,470.913 245.563,470.649C245.563,470.449 245.367,470.349 244.975,470.349C244.063,470.333 243.607,470.133 243.607,469.749C243.607,469.581 243.679,469.421 243.823,469.269C243.991,469.077 244.271,468.893 244.663,468.717C245.087,468.525 245.475,468.429 245.827,468.429C246.139,468.429 246.375,468.505 246.535,468.657C246.607,468.729 246.643,468.817 246.643,468.921C246.643,469.033 246.607,469.133 246.535,469.221C246.463,469.309 246.383,469.353 246.295,469.353C246.135,469.353 246.047,469.245 246.031,469.029C246.031,468.877 246.007,468.789 245.959,468.765C245.911,468.741 245.783,468.729 245.575,468.729C245.311,468.729 245.015,468.817 244.687,468.993C244.295,469.193 244.111,469.433 244.135,469.713C244.151,469.873 244.455,469.953 245.047,469.953C245.855,469.953 246.259,470.149 246.259,470.541C246.259,470.965 245.911,471.389 245.215,471.813C244.775,472.085 244.239,472.325 243.607,472.533C243.519,472.565 243.451,472.581 243.403,472.581Z" style="fill:rgb(222,201,164);fill-rule:nonzero;"/>
            <path d="M246.943,472.581C246.911,472.581 246.895,472.569 246.895,472.545C246.895,472.441 247.167,472.249 247.711,471.969C247.847,471.905 247.971,471.839 248.083,471.771C248.195,471.703 248.291,471.641 248.371,471.585C248.859,471.225 249.103,470.913 249.103,470.649C249.103,470.449 248.907,470.349 248.515,470.349C247.603,470.333 247.147,470.133 247.147,469.749C247.147,469.581 247.219,469.421 247.363,469.269C247.531,469.077 247.811,468.893 248.203,468.717C248.627,468.525 249.015,468.429 249.367,468.429C249.679,468.429 249.915,468.505 250.075,468.657C250.147,468.729 250.183,468.817 250.183,468.921C250.183,469.033 250.147,469.133 250.075,469.221C250.003,469.309 249.923,469.353 249.835,469.353C249.675,469.353 249.587,469.245 249.571,469.029C249.571,468.877 249.547,468.789 249.499,468.765C249.451,468.741 249.323,468.729 249.115,468.729C248.851,468.729 248.555,468.817 248.227,468.993C247.835,469.193 247.651,469.433 247.675,469.713C247.691,469.873 247.995,469.953 248.587,469.953C249.395,469.953 249.799,470.149 249.799,470.541C249.799,470.965 249.451,471.389 248.755,471.813C248.315,472.085 247.779,472.325 247.147,472.533C247.059,472.565 246.991,472.581 246.943,472.581Z" style="fill:rgb(222,201,164);fill-rule:nonzero;"/>
            <path d="M253.111,472.221C252.951,472.221 252.805,472.169 252.673,472.065C252.541,471.961 252.463,471.861 252.439,471.765C252.415,471.653 252.563,471.253 252.883,470.565L252.607,470.961C252.487,471.137 252.367,471.293 252.247,471.429C252.127,471.565 252.015,471.685 251.911,471.789C251.607,472.077 251.351,472.197 251.143,472.149C250.663,472.037 250.423,471.765 250.423,471.333C250.423,470.989 250.587,470.549 250.915,470.013C251.019,469.853 251.151,469.693 251.311,469.533C251.471,469.373 251.655,469.217 251.863,469.065C252.399,468.673 252.915,468.477 253.411,468.477C253.715,468.477 254.003,468.557 254.275,468.717C254.363,468.781 254.407,468.849 254.407,468.921C254.407,468.977 254.391,469.005 254.359,469.005C254.351,469.005 254.343,469.001 254.335,468.993C254.167,468.809 253.943,468.717 253.663,468.717C253.335,468.717 252.979,468.841 252.595,469.089C252.211,469.337 251.867,469.669 251.563,470.085C251.131,470.685 250.915,471.173 250.915,471.549C250.915,471.765 250.991,471.901 251.143,471.957C251.335,472.037 251.743,471.681 252.367,470.889C252.623,470.577 252.837,470.297 253.009,470.049C253.181,469.801 253.319,469.589 253.423,469.413C253.471,469.325 253.559,469.281 253.687,469.281C253.927,469.281 254.047,469.353 254.047,469.497C254.047,469.521 254.043,469.537 254.035,469.545C253.339,470.649 252.991,471.397 252.991,471.789C252.991,471.885 253.019,471.937 253.075,471.945C253.243,471.993 253.523,471.869 253.915,471.573C254.387,471.221 254.831,470.753 255.247,470.169C255.335,470.049 255.415,469.989 255.487,469.989C255.511,469.989 255.523,469.997 255.523,470.013C255.523,470.053 255.487,470.129 255.415,470.241C255.247,470.505 255.061,470.753 254.857,470.985C254.653,471.217 254.427,471.433 254.179,471.633C253.827,471.929 253.539,472.113 253.315,472.185C253.259,472.209 253.191,472.221 253.111,472.221Z" style="fill:rgb(222,201,164);fill-rule:nonzero;"/>
            <path d="M256.855,472.173C256.647,472.125 256.451,472.013 256.267,471.837C256.227,471.797 256.207,471.737 256.207,471.657C256.207,471.337 256.351,470.889 256.639,470.313C256.415,470.601 256.231,470.837 256.087,471.021C255.943,471.205 255.835,471.337 255.763,471.417C255.451,471.777 255.191,471.993 254.983,472.065C254.911,472.089 254.839,472.101 254.767,472.101C254.471,472.101 254.299,471.981 254.251,471.741C254.219,471.669 254.203,471.569 254.203,471.441C254.203,471.049 254.463,470.301 254.983,469.197C255.103,468.941 255.239,468.813 255.391,468.813C255.503,468.813 255.611,468.897 255.715,469.065L255.211,470.061C255.035,470.405 254.901,470.701 254.809,470.949C254.717,471.197 254.671,471.389 254.671,471.525C254.671,471.717 254.735,471.813 254.863,471.813C255.071,471.813 255.407,471.545 255.871,471.009C256.119,470.721 256.361,470.401 256.597,470.049C256.833,469.697 257.067,469.313 257.299,468.897C257.347,468.801 257.419,468.753 257.515,468.753C257.595,468.753 257.673,468.787 257.749,468.855C257.825,468.923 257.855,468.973 257.839,469.005C257.063,470.613 256.675,471.537 256.675,471.777C256.675,471.873 256.707,471.913 256.771,471.897C257.419,471.841 258.115,471.269 258.859,470.181C258.899,470.109 258.943,470.069 258.991,470.061C259.039,470.045 259.063,470.061 259.063,470.109C259.063,470.141 259.047,470.185 259.015,470.241C258.663,470.793 258.243,471.277 257.755,471.693C257.323,472.053 257.023,472.213 256.855,472.173Z" style="fill:rgb(222,201,164);fill-rule:nonzero;"/>
        </g>
    </g>
</svg>
