<?xml version="1.0" encoding="UTF-8" standalone="no"?>
<!DOCTYPE svg PUBLIC "-//W3C//DTD SVG 1.1//EN" "http://www.w3.org/Graphics/SVG/1.1/DTD/svg11.dtd">
<svg width="100%" height="100%" viewBox="0 0 64 64" version="1.1" xmlns="http://www.w3.org/2000/svg" xmlns:xlink="http://www.w3.org/1999/xlink" xml:space="preserve" xmlns:serif="http://www.serif.com/" style="fill-rule:evenodd;clip-rule:evenodd;stroke-linejoin:round;stroke-miterlimit:2;">
    <path d="M63.798,15.779L63.798,47.746C63.798,56.543 56.656,63.684 47.859,63.684L15.982,63.684C7.185,63.684 0.043,56.543 0.043,47.746L0.043,15.779C0.043,6.983 7.185,-0.159 15.982,-0.159L47.859,-0.159C56.656,-0.159 63.798,6.983 63.798,15.779Z" style="fill:rgb(222,201,164);"/>
    <g transform="matrix(0.702218,0,0,0.702218,-260.417,-783.623)">
        <g transform="matrix(0.592778,0,0,0.592778,189.102,369.445)">
            <rect x="330.126" y="1292.76" width="8.545" height="81.427" style="fill:rgb(64,64,64);"/>
        </g>
        <g transform="matrix(0.592778,0,0,0.592778,246.254,369.445)">
            <rect x="330.126" y="1292.76" width="8.545" height="81.427" style="fill:rgb(64,64,64);"/>
        </g>
        <g transform="matrix(1.01045,0,0,0.808,63.722,82.4528)">
            <rect x="331.892" y="1292.76" width="5.013" height="81.427" style="fill:rgb(64,64,64);"/>
        </g>
        <g transform="matrix(1.01045,0,0,0.808,91.9534,82.4528)">
            <rect x="331.892" y="1292.76" width="5.013" height="81.427" style="fill:rgb(64,64,64);"/>
        </g>
        <g transform="matrix(0.660995,0,0,0.531355,194.869,451.352)">
            <rect x="330.567" y="1292.76" width="7.664" height="81.427" style="fill:rgb(64,64,64);"/>
        </g>
    </g>
</svg>
