<?xml version="1.0" encoding="UTF-8"?><svg id="Ebene_2" xmlns="http://www.w3.org/2000/svg" viewBox="0 0 722.81 325.68"><defs><style>.cls-1{fill:#c3943a;}</style></defs><g id="Ebene_1-2"><path class="cls-1" d="M.43,287.97c21.36,12.58,44.97,21.2,68.96,27.22,46.58,11.54,96.09,10.89,142.24-2.33,31.2-9,60.67-23.35,87.64-41.37,15.07-10.05,27.77-24.45,33.2-41.87,19.75-65.61-47.77-146.56-84.81-196.45-2.8-3.86-5.64-7.73-8.01-11.96-.92-1.79-1.76-3.22-2.09-5.53-.05-.71-.14-1.64.44-2.91.55-1.17,1.71-2.12,2.97-2.44,3.18-.79,6.22.73,8.89,1.71,14.41,6.49,27.62,15.12,41.01,23.2,21.18,13.11,42.11,26.55,63.02,40.01,52.83,33.3,140.56,87.06,203.51,61.31,46.95-19.97,64.93-72.55,98.3-107.66,17.93-19.11,40.44-30.33,67.09-28.73,0,0-.02.8-.02.8-12.36.03-24.77,2.31-35.75,7.8-22.39,11-37.2,31.95-50.68,52.27-20.43,31.1-40.37,66.55-76.19,82.02-52.39,22.15-116.04-6.68-162.54-31.97-38.12-21.11-73.59-46.8-110.5-69.84-13.1-8.08-25.98-16.64-39.84-23.08-1.59-.65-3.05-1.27-4.49-1.45-.17-.03-.26.01-.04-.04.06-.02.16-.04.23-.09.39-.17.79-.57.97-.96.23-.57.14-.68.16-.63.11.83.8,2.19,1.29,3.1,2.16,3.93,4.82,7.62,7.45,11.32,37.65,51.36,105.16,134.3,84.01,201.63-5.9,18.36-19.34,33.46-35.26,43.9-26.15,17.15-54.57,30.87-84.6,39.64-59.9,17.8-125.61,13.87-183.48-9.45-11.56-4.66-22.87-9.95-33.5-16.48,0,0,.43-.67.43-.67H.43Z"/></g></svg>