<?xml version="1.0" encoding="UTF-8"?><svg id="Ebene_2" xmlns="http://www.w3.org/2000/svg" viewBox="0 0 1134.74 127.65"><defs><style>.cls-1{fill:#c3943a;}</style></defs><g id="Ebene_1-2"><path d="M113.96,5.62c-.09,1.32-.35.97-1.14,1.67-.44.35-.7.79-1.05,1.4-.97,1.67-2.11,2.9-3.42,4.57-1.84,2.11-4.39,3.42-6.06,5.62-1.14,1.49-3.07,1.84-4.13,3.34-1.14,1.67-2.63,2.55-4.04,3.86-.7.7-2.2,3.16-2.9,3.42-.97.35-2.02,1.76-2.99,2.46-.97.7-.97,3.16-2.55,4.3-1.84,1.4-1.32.35-2.99,2.72-1.4,2.02-4.13,3.95-4.57,6.15-.7,2.63-7.55,7.55-7.55,9.75,0,1.05.97,1.93.97,2.9,0,1.32-4.39,2.63-5.36,2.63-.79,0-.97-1.41-.97-2.02,0-4.92,7.9-10.54,9.13-14.14,0-.26.35-1.67.7-1.67.26,0,.35.18.61.18.79,0,1.84-3.86,2.55-4.57.61-.61,1.14-1.4,1.14-2.19,0-.44-.26-.61-.7-.61-1.58,0-5.27,3.34-7.55,4.04-3.6,1.14-6.23,4.04-9.66,5.71-1.4.44-6.23,3.42-7.29,3.42-.26,0-.18-.09-.44-.09-1.23,0-3.34,2.28-4.83,2.55-2.55.79-4.92,2.63-7.64,2.63-1.49,0-2.11-1.05-2.11-2.46,0-2.02,1.05-4.13,2.55-5.44,1.4-1.14,1.84-3.25,2.63-3.51,1.76-.53,4.21-3.78,5.79-5.18,1.4-1.14,2.72-2.55,4.21-3.51,1.23-.7,3.86-5.27,6.15-7.11.97-.7,4.83-3.6,4.83-4.83,0-.26-.18-.35-.44-.35-.97,0-2.11.61-2.81,1.23-1.4,1.32-4.04,3.25-5.79,3.95-2.37.97-4.83,3.25-6.58,5-2.55,2.55-6.23,3.86-8.52,6.85-.79,1.14-2.9,1.93-4.21,2.37-3.16,1.32-5.79,3.78-8.69,5.53-3.51,2.19-8.43,4.3-12.2,6.32-1.49.79-3.07,1.58-4.48,2.55-2.11,1.67-4.21.44-5.88,1.4-.35.09-.61.18-.97.18-1.67,0-4.74-1.58-4.74-3.42,0-1.14.7-2.28.97-3.42.26-1.32,2.46-3.6,3.86-3.6.61,0,1.23.79,1.23,1.4,0,1.32-1.23,2.19-1.23,3.25s1.32,1.14,2.11,1.14c2.11,0,4.04-1.49,6.06-1.49,1.49,0,7.46-3.34,9.39-4.04,1.49-.61,2.19-.61,2.98-2.02.7-1.14,4.74-2.2,6.06-3.07,2.98-2.37,7.2-6.76,10.62-8.17,3.51-1.4,5.79-4.65,9.04-5.79,2.55-.88,1.32-2.72,4.57-4.39,3.42-1.76,8.17-3.86,10.97-6.58,2.02-1.84,6.41-3.51,7.64-5,.7-.7,2.28-3.42,3.42-3.42,1.32,0,1.4,1.05,1.4,2.02,0,1.76-1.14,3.25-2.63,4.21-2.9,1.49-2.63,3.25-4.57,5.18-.97.97-3.34,3.34-4.57,3.86-1.49.7-3.34,2.72-4.13,4.13-.97,1.67-2.63,2.63-3.95,3.95-1.05.79-1.84,1.76-2.81,2.72-1.58,1.76-4.48,5.88-6.06,7.02-1.4,1.14-4.83,5.36-4.83,7.2,0,.79,1.4.79,2.02.79.97,0,1.84-.97,2.81-1.58.61-.35,1.23-.53,1.93-.79,1.05-.26,2.11-.53,3.07-1.14l2.02-1.05c.97-.35,1.84-.97,2.63-1.58,2.37-1.4,4.57-3.07,7.02-4.21,2.2-.97,5.62-2.55,7.29-4.21.97-1.05,1.23-.79,2.28-1.4.88-.61,1.67-1.23,2.28-1.84,2.11-1.76,4.39-2.99,6.76-4.3,1.05-.61,2.19-.97,3.16-1.58,2.19-1.23,2.81-3.78,4.57-4.92,1.93-1.23,2.11-3.16,4.57-4.3,2.46-1.05,4.65-2.63,6.67-4.65,1.05-1.32,2.37-2.02,3.42-3.34.79-1.14,1.93-1.84,2.72-2.99.44-.61,1.14-.97,1.93-.97.7,0,1.32.35,1.32,1.05l-.09.35Z"/><path d="M131.26,52.77c-.88.53-2.11,1.14-3.69,1.76-.79.35-2.9.79-3.51,1.49-.18.18-4.74,1.4-5.18,1.4s-.88-.09-1.32-.35c-.26-.09-.61-.18-1.23-.18h-.61c-.79,0-1.58-.09-2.37-.88-.7-.7-1.76-1.84-1.76-2.99,0-.7-1.76-1.14-2.37-1.14-.53,0-4.83,2.11-5.36,2.37-.97.61-1.93.88-2.81.88-.7,0-1.67.35-2.37.61-1.05.26-2.02.35-3.16.44l-1.93.09c-.35,0-.88-.09-1.23-.09-.7,0-1.4,0-2.02-.26-.79-.35-1.4-.97-1.4-2.02,0-.53.79-1.49,1.05-2.63.26-1.14.53-2.55,1.14-2.72.97-.18,1.93-1.67,3.25-2.99.79-.79,1.58-1.49,2.63-1.84.97-.35,2.72-1.32,3.69-1.32.7,0,.88.7.88,1.32,0,.97-.88,1.67-1.93,2.46-1.32.88-2.99,1.84-3.86,3.51-.44.79-.7,1.76-.7,2.9,0,1.32.97,1.49,2.02,1.49,1.67,0,2.55-.7,4.04-.7,2.2,0,2.63-1.05,4.39-1.49,1.4-.26,2.63-1.14,3.69-2.11.61-.61,1.49-.44,2.2-.79,1.32-.61,2.19-1.49,3.6-1.76,1.14-.26,2.63-.97,3.78-.97.61,0,.97.35.97.97,0,3.07-2.02,4.21-2.02,5.79,0,.79.35,1.58,1.32,1.58s1.14-.18,1.93-.18,1.58-.7,2.63-.7c.79,0,1.67-.18,2.28-.79.7-.61,1.93-.18,2.55-.79.26-.26.97-.44,1.67-.79.79-.35,1.67-.88,2.19-.88.61,0,.7.44.7.88,0,.18-.61.7-1.76,1.4Z"/><path d="M159.96,46.36c-.44,1.32-2.63,4.39-3.78,5.09-1.84,1.32-4.13,2.02-5.88,3.42-.97.7-2.72.53-3.34,1.14-.53.53-3.42.44-4.39.88-1.32.61-3.51,1.05-4.83,1.05-.7,0-.7-.44-1.41-.44s-1.4.44-2.19.44c-1.32,0-3.07-2.63-5.27-2.63-.61,0-.7-.53-1.32-.53-.26,0-.61,0-.97.09-.09,0-.26.09-.35.09-.61,0-1.14-.18-1.14-.7,0-.35.18-.7.61-.88,1.93-.97,1.67-3.69,4.21-3.69.88,0,1.05,1.05,2.2,1.05.79-.09.88-.35,2.02-.53,1.49-.26,1.49-.61,2.81-.61.09,0,1.84-.35,1.93-.35.7,0,2.55-1.4,3.6-1.67,1.67-.35,2.9-1.58,4.39-1.93,1.76-.53,6.76-2.46,8.08-3.6.61-.44,2.37-.88,3.16-.88.35,0,.53.26,1.14.26,1.05,0,1.76,1.14,1.76,2.19,0,1.67-.79,1.58-1.05,2.72ZM153.73,44.6h-1.14c-1.49.26-2.11,1.32-3.42,1.76-1.14.44-1.93,1.4-3.25,1.67-1.32.26-2.11.79-3.07,1.23-1.14.61-2.28.44-3.42,1.14-1.05.79-2.46,1.23-3.78,1.67-.61.26-1.23.09-1.23.88,0,1.76,2.81,1.32,4.04,1.58.09.09.35.09.7.09,1.32,0,2.37-.88,3.69-.88.35,0,.61.09.88.09,1.4,0,2.37-.79,2.98-.79.35,0,.53.26.97.26.97,0,2.99-1.23,3.78-1.67,2.28-1.14,1.05-1.05,2.11-2.11,1.14-1.05,1.49-1.76,1.49-3.25,0-1.05,0-1.67-1.32-1.67Z"/><path d="M186.39,52.68c-.79.61-2.11.88-2.72,1.32s-.97.53-1.67.61c-.7,0-3.42,1.05-3.86,1.32s-.97.44-1.4.44c-.61,0-1.67.26-2.28.26-.26,0-.61.09-1.05.18-1.49.61-1.84.53-3.51.61-.97.09-2.72.44-3.69.44-1.67,0-3.51-1.32-3.51-3.07,0-1.84,1.84-3.78,3.34-4.57,3.51-1.84,5.27-5,8.69-6.85.7-.35,1.84-1.84,2.46-1.84s.61,1.05.61,1.4c0,1.32-.79,1.67-1.76,2.28-.35.09-.61.26-.79.35-1.32.79-2.72,2.19-3.69,3.51-.97,1.23-3.78,3.34-3.78,4.92v.35c0,.35.53.53.97.53h1.32c.79,0,1.32.35,2.11.35,1.05,0,2.46-.35,3.95-.79s2.9-.79,3.51-.79c.79,0,2.11-.7,3.34-1.14.79-.26,1.49-.7,2.11-.97.44-.26.97-.53,1.67-.53.35,0,.35.18.35.44,0,.53-.26.88-.7,1.23ZM187.62,28.45c-.09,0-.35-.09-.7-.18-1.32-.44-.35-1.4-1.76-1.84-.35-.09-.79-.35-.79-.7,0-1.05,2.28-2.11,3.07-2.11.26,0,.53.18.79.61.26.79.7,1.4.7,2.19s-.35,2.02-1.32,2.02Z"/><path d="M215.98,35.65c-1.14,1.4-3.6,5.79-4.83,6.76-1.49,1.14-2.81,2.55-3.6,4.21-.7,1.76-2.28,1.93-3.25,3.25-1.41,1.84-9.92,7.9-12.2,7.9-1.32,0-2.63.53-4.04.53-.44,0-.7-.18-.7-.53,0-.44.18-.97.44-1.32.88-2.02,2.11-1.4,3.51-2.81.26-.26.61-.79.97-.79s.18.61,1.49.88c.44,0,.79.09,1.4.09,1.32,0,1.93-.61,2.9-1.67.97-1.14,2.02-1.49,2.63-2.46.97-1.49,2.99-2.46,4.04-3.95.97-1.4,2.19-2.46,2.9-4.13.44-1.23,2.55-2.72,2.55-3.86,0-.88-.44-1.32-1.4-1.32s-1.67.44-1.93,1.4c-.61,1.67-2.55,2.11-3.51,3.42-.7,1.05-2.02,1.05-2.63,2.11s-2.98,1.4-3.95,2.46c-1.32,1.67-4.04,2.63-5.88,4.13-1.4,1.14-6.32,3.95-7.9,4.13-.26,0-.44-.26-.44-.44,0-1.05,1.14-1.58,1.76-1.93,1.32-.88,1.58-.44,3.34-1.67,1.4-.97,2.37-1.32,3.51-2.28,1.76-1.49,3.78-1.93,5.27-3.86,1.23-1.58,3.16-2.02,4.65-3.69,1.4-1.67,2.9-3.16,5-3.95.61-.26,1.67-.35,2.11-1.05.97-1.67,1.4-3.25,3.25-4.39,1.05-.61,3.16-1.84,4.48-1.84,1.05,0,1.58,1.84,1.58,2.81,0,1.4-.7,2.72-1.49,3.86ZM234.15,54c-1.23.44-2.46.79-2.99,1.23-.35.35-.97.35-1.58.35h-1.32c-1.14,0-2.28,0-2.98.44-.18.09-.44.18-.88.18-1.32,0-2.55-.7-3.86-.7h-1.14c-1.4,0-2.63-1.14-3.95-1.4-1.32-.26-2.81-2.55-4.13-3.34-.97-.61-2.37-1.67-2.37-2.99,0-1.67,2.98-2.37,4.21-2.37.97,0,2.02.09,2.98.09.61,0,1.05,0,1.67-.26,2.02-.97,4.3-.79,6.32-1.76,1.49-.7,5.27-.97,5.27-3.34,0-1.32,1.58-1.76,2.72-1.76,1.23,0,3.69.61,3.69,2.28,0,1.49-1.67.79-2.55,1.49-1.14.7-2.37,1.67-3.78,1.93-1.32.09-2.46.79-3.86,1.05-1.32.26-2.55.7-3.86.7-.44,0-.88-.18-1.32-.18-1.14,0-1.23,1.14-1.93,1.58-.61.35-1.76-.09-1.76,1.05,0,.26.09.7.35,1.14.97,2.11,2.19,1.58,3.78,2.72,1.14.97,2.28,1.76,3.95,1.76.61,0,1.23-.09,1.84-.26,2.9-.7,6.06-.53,8.6-2.19.97-.61,1.49-.35,2.46-1.05.09-.09.26-.09.44-.09.61,0,.88.26.88.7,0,.61-3.16,2.46-4.92,2.98Z"/><path d="M306.49,27.13c-.53,1.49-4.48,2.81-5.18,4.92-.7,2.02-6.32,4.04-6.32,5.62,0,1.23-8.17,5.09-9.75,6.94-1.05,1.05-3.25,3.34-4.83,5.53-1.05,1.4-1.76,2.81-1.76,3.6,0,1.4,2.46,1.58,3.51,1.58,5.27,0,7.55-7.2,11.06-7.9.44-.09.97-.35,1.4-.35.26,0,1.32,1.05,1.58,1.32,1.14,1.05,1.58,1.93,2.11,2.72.53.79,1.14,1.4,2.72,1.67.61.09,2.19.09,2.81.09.26,0,.97-.18,1.23-.44s.7-.26,1.05-.35l1.4-.44c.44-.26,1.05-.61,1.67-.61.26,0,.44.18.44.61s-.97,1.05-1.58,1.4c-1.05.53-2.11,1.14-3.16,1.49-.88.35-2.9.61-3.25.61-2.46,0-3.25-.26-3.6-.61-.44-.44-.18-.88-1.32-1.14-1.32-.26-1.4-.53-1.4-1.84,0-.79-.79-1.14-1.49-1.14-1.4,0-.79,2.02-2.55,2.28-1.14,0-4.21,5-6.41,5-.26,0-.35-.09-.61-.09-2.46,0-4.65,1.14-7.2,1.14-1.23,0-2.11-.35-2.63-.97-.53-.53-1.67-1.14-1.67-2.19-.09-1.05-.18-1.4-.18-1.76,0-.53.61-1.49.61-1.76s.26-.88.97-1.4c1.58-1.32,2.99-3.42,4.04-4.13.97-.7,2.02-1.49,2.81-3.07,1.23-2.46,2.11-2.28,3.42-3.6,1.32-1.67,2.72-2.9,4.04-4.57,2.02-2.46,4.74-4.13,6.94-6.32,2.72-2.72,4.92-3.34,8.08-5.36,1.32-.79,3.86-2.46,5.53-2.46.79,0,1.23.44,1.23,1.32,0,1.93-3.34,2.99-3.78,4.65Z"/><path d="M336.43,52.5c-.53.44-1.58.97-2.19,1.32-.61.35-2.37,1.23-2.81,1.32-.53.18-.88.35-1.4.61-.88.44-1.67.88-2.63,1.05-.7.18-1.58.18-2.46.35-.7.09-1.4.35-1.84.61-.35.18-.7.26-.97.26-.44,0-.88-.09-1.32-.09-.97,0-1.67.35-2.63.35h-.35c-.97,0-2.19,0-2.98-.35-.61-.26-1.58-.26-2.2-.26-1.32-.09-2.02-.88-3.16-1.14-1.32-.26-2.28-1.93-2.28-3.34,0-.79,1.05-2.37,1.84-3.78.88-1.67,2.37-3.42,3.34-3.78l1.67-1.4c1.14-.97,2.46-2.02,3.86-2.81,1.14-.61,2.28-1.14,3.51-1.14.7,0,1.32-.44,2.02-.44.09,0,.97.35,1.05.35.44.61,1.4.61,1.4,1.4,0,1.4-2.37,4.83-3.69,5.09-1.49.44-2.99,1.58-4.39,2.37-1.49.79-2.63,1.23-4.21,2.02-.26.09-2.02.88-2.02,1.23,0,.88.44,1.4,1.23,1.93,1.67,1.05,4.04,1.58,5.36,1.58.97,0,1.67-.09,2.63-.09,2.02,0,3.69-.53,5.71-.79.44-.09,1.14-.18,1.84-.44.88-.26,1.84-.7,2.72-1.05.88-.44,3.69-1.58,4.21-2.02.44-.26.79-.44,1.23-.44.35,0,.53.18.53.53,0,.44-.35.7-.61.97ZM320.98,43.11c-.79,0-4.13,2.2-4.92,2.81-.44.35-1.23,1.05-1.23,1.76.26,0,.61.09.88.09.97,0,1.05-.88,1.76-.88.88,0,1.76-2.11,3.34-2.11.44,0,.7-1.32.7-1.58l-.53-.09Z"/><path d="M360.92,50.92c-.97,1.14-1.58,2.37-2.9,3.16-1.32.7-.88,1.4-1.67,1.84-.61.26-.88,1.49-.88,1.93,0,.26.18.44.44.44,1.4,0,2.02-2.11,3.42-2.11.61,0,1.84-1.05,2.9-1.05.44,0,.61.18.61.44,0,.09-.09.44-.18.7-.7.44-3.07,1.84-3.86,2.11-1.32.61-2.55,1.67-3.86,2.37-.61.44-2.19,1.93-2.72,1.93-1.14,0-6.06,5.09-6.76,6.06-.44.53-.7,1.05-.97,1.58-.26.61-.18,1.4-.79,1.67-.61.26-1.4.53-1.84,1.14-.35.61.09,1.14-.61,1.49-3.42,1.49-6.58,7.2-10.1,7.2-.7,0-1.67-.09-1.67-1.05,0-2.11,4.65-6.32,6.5-7.46,1.32-.79,2.19-2.19,3.25-3.34,1.4-1.49,3.07-2.81,4.74-4.13,2.55-2.11,10.71-8.87,10.71-12.82,0-.79-.35-1.49-1.32-1.49-1.49,0-2.11,1.67-3.78,2.11-1.14.35-4.13.79-4.92,1.76-.7.7-5.53,2.11-6.58,2.11-1.67,0-3.34-.97-3.34-2.72s1.67-4.3,3.16-5c1.67-.97,1.67-3.16,4.13-4.04,3.25-1.14,2.11-2.19,4.74-3.6,3.78-2.37,7.11-4.74,11.77-4.74,2.02,0,3.16,1.58,3.16,3.6,0,.97-.53,1.58-.53,2.55,0,.26.26.44.7.44,1.67.26,2.02.61,2.02,2.28,0,1.32-2.11,3.78-2.99,4.65ZM356.18,40.74c-1.32,0-2.37.7-3.51.79-1.4.26-1.58.26-2.55,1.32-1.32,1.32-3.07,1.93-4.57,2.9-2.11,1.4-6.15,4.92-6.15,7.64,0,1.05.97,1.41,1.93,1.41,1.32,0,2.28-.97,3.25-.97,1.14,0,3.16-1.32,4.21-1.76,2.11-.97,5.71-2.55,6.94-4.48.97-1.67,1.84-2.99,1.84-5,0-1.14-.09-1.84-1.4-1.84ZM371.9,51.89c-1.23.79-.97.26-2.02.97-.97.7-1.14.7-2.37,1.14-1.14.35-2.63,1.32-3.25,1.32-.35,0-.79-.35-.79-.7,0-.44,1.4-.97,2.02-1.23.7-.26.88-.61,1.58-.88,1.49-.26.53-.61,1.58-.79.97-.35.7-.18,1.67-.88.35-.26.79-.35,1.4-.35.18,0,.26.09.35.09.18.09.35.09.35.53,0,.26-.26.61-.53.79Z"/><path d="M391.91,52.68c-.79.61-2.11.88-2.72,1.32s-.97.53-1.67.61c-.7,0-3.42,1.05-3.86,1.32s-.97.44-1.4.44c-.61,0-1.67.26-2.28.26-.26,0-.61.09-1.05.18-1.49.61-1.84.53-3.51.61-.97.09-2.72.44-3.69.44-1.67,0-3.51-1.32-3.51-3.07,0-1.84,1.84-3.78,3.34-4.57,3.51-1.84,5.27-5,8.69-6.85.7-.35,1.84-1.84,2.46-1.84s.61,1.05.61,1.4c0,1.32-.79,1.67-1.76,2.28-.35.09-.61.26-.79.35-1.32.79-2.72,2.19-3.69,3.51-.97,1.23-3.78,3.34-3.78,4.92v.35c0,.35.53.53.97.53h1.32c.79,0,1.32.35,2.11.35,1.05,0,2.46-.35,3.95-.79s2.9-.79,3.51-.79c.79,0,2.11-.7,3.34-1.14.79-.26,1.49-.7,2.11-.97.44-.26.97-.53,1.67-.53.35,0,.35.18.35.44,0,.53-.26.88-.7,1.23ZM393.14,28.45c-.09,0-.35-.09-.7-.18-1.32-.44-.35-1.4-1.76-1.84-.35-.09-.79-.35-.79-.7,0-1.05,2.28-2.11,3.07-2.11.26,0,.53.18.79.61.26.79.7,1.4.7,2.19s-.35,2.02-1.32,2.02Z"/><path d="M436.69,51.98c.88-.26,2.81-1.49,3.78-1.49.26,0,.53.35.53.61,0,.09,0,.44-.53.79-.61.44-1.14.88-2.46,1.49-1.4.61-2.98,1.23-3.42,1.49-.97.26-1.93.53-2.9,1.23-.97.7-3.69,1.14-5,1.14-1.05,0-3.42.18-4.48.18-1.4,0-2.9-1.49-2.9-2.81.09-1.32.97-2.37,1.05-3.86,0-.7-.7-1.32-1.4-1.32-1.14,0-2.28.61-3.34.97-1.58.35-2.37.7-3.42,1.84-.97.97-4.04,2.37-6.85,3.34-1.58.53-3.07.97-3.95.97-1.23,0-2.02-.53-2.02-1.84l.18-.97c.44-1.67.44-3.16,1.23-4.83.18-.26.26-.53.26-1.14,0-.44-.26-.61-.61-.61s-2.2,1.76-4.3,2.98c-1.32.7-1.93,1.05-2.11,1.32-.61.61-2.81,1.76-3.6,1.76-.61,0-.88-.26-.88-.79,0-.18.09-.35.18-.61.26-.35,1.23-.53,1.67-.88,1.4-.97,1.84-.97,2.63-1.76,2.11-1.23,2.99-2.02,4.92-3.6,1.76-1.49,1.14-1.49,2.55-2.19.97-.35,2.28-1.23,3.25-1.23,1.14,0,1.49,2.02,1.49,3.25v.44c-.09,2.02-1.76,3.34-1.93,5.44,0,.79.35,1.14,1.05,1.14s1.4-.35,2.02-.61c1.4-.61,2.63-1.32,3.78-2.11.79-.44,1.49-1.14,2.46-1.4,1.32-.35,2.2-1.23,3.51-1.49,1.4-.26,3.78-.97,4.83-1.67.97-.79,2.98-1.76,4.13-1.76,1.05,0,1.4.97,1.4,1.93l-.18.97c-.44,1.14.18,1.67-1.32,2.28-1.49.97-.61,1.76-1.32,2.37-.35.35-.53.97-.53,1.49,0,.26.09.79.18.79,0,1.05,1.05,1.23,2.02,1.23.79,0,1.84.18,2.81.18.79,0,2.11-.7,3.07-.97.79-.09,1.4-.35,2.02-.53.97-.35,1.58-.88,2.46-1.14Z"/><path d="M484.27,51.98c.88-.26,2.81-1.49,3.78-1.49.26,0,.53.35.53.61,0,.09,0,.44-.53.79-.61.44-1.14.88-2.46,1.49-1.4.61-2.98,1.23-3.42,1.49-.97.26-1.93.53-2.9,1.23-.97.7-3.69,1.14-5,1.14-1.05,0-3.42.18-4.48.18-1.4,0-2.9-1.49-2.9-2.81.09-1.32.97-2.37,1.05-3.86,0-.7-.7-1.32-1.4-1.32-1.14,0-2.28.61-3.34.97-1.58.35-2.37.7-3.42,1.84-.97.97-4.04,2.37-6.85,3.34-1.58.53-3.07.97-3.95.97-1.23,0-2.02-.53-2.02-1.84l.18-.97c.44-1.67.44-3.16,1.23-4.83.18-.26.26-.53.26-1.14,0-.44-.26-.61-.61-.61s-2.2,1.76-4.3,2.98c-1.32.7-1.93,1.05-2.11,1.32-.61.61-2.81,1.76-3.6,1.76-.61,0-.88-.26-.88-.79,0-.18.09-.35.18-.61.26-.35,1.23-.53,1.67-.88,1.4-.97,1.84-.97,2.63-1.76,2.11-1.23,2.99-2.02,4.92-3.6,1.76-1.49,1.14-1.49,2.55-2.19.97-.35,2.28-1.23,3.25-1.23,1.14,0,1.49,2.02,1.49,3.25v.44c-.09,2.02-1.76,3.34-1.93,5.44,0,.79.35,1.14,1.05,1.14s1.4-.35,2.02-.61c1.4-.61,2.63-1.32,3.78-2.11.79-.44,1.49-1.14,2.46-1.4,1.32-.35,2.2-1.23,3.51-1.49,1.4-.26,3.78-.97,4.83-1.67.97-.79,2.98-1.76,4.13-1.76,1.05,0,1.4.97,1.4,1.93l-.18.97c-.44,1.14.18,1.67-1.32,2.28-1.49.97-.61,1.76-1.32,2.37-.35.35-.53.97-.53,1.49,0,.26.09.79.18.79,0,1.05,1.05,1.23,2.02,1.23.79,0,1.84.18,2.81.18.79,0,2.11-.7,3.07-.97.79-.09,1.4-.35,2.02-.53.97-.35,1.58-.88,2.46-1.14Z"/><path d="M554.42,39.6h-.79c-1.32,0-2.46-.35-3.78-.35-.44,0-.79,0-.97.09-.44.26-1.67.26-2.99.26h-2.9c-.97,0-1.93.26-2.9.26-1.67,0-3.25-.26-4.92-.26-1.32,0-2.46.35-3.78.35-.97,0-1.93-.26-2.9-.26-1.84,0-3.6.35-5.36.35-.97,0-1.84-.18-2.81-.18-1.32,0-2.63.44-3.95.44-.97,0-1.76-.26-2.72-.26-2.72,0-5.27,4.04-7.38,5.44-.97.61-1.93,1.32-2.55,2.37-.7,1.4-3.16,2.37-3.16,5.36,0,1.58,2.72,1.93,3.86,1.93,1.32,0,2.37-.09,3.69-.18,1.14,0,2.28-.88,3.42-.88,1.4,0,6.76-1.4,7.9-2.11,0,0,.79-.26,1.58-.61.61-.26,1.67-1.05,2.2-1.05.09,0,.18,0,.26.09.26.18.35.44.35.7,0,.09-.09.26-.09.35-.18.7-.88.79-1.23,1.05-.7.44-2.46.97-3.07,1.58-1.05.97-2.99.88-4.3,1.49-1.76.79-4.92,1.4-6.94,1.4-1.76,0-3.51.79-5.36.79-2.99,0-7.64-.44-7.64-4.39,0-.97.53-1.49,1.23-1.93,2.81-1.58,3.69-6.06,5.97-6.94.61-.35,2.11-.79,2.11-1.76v-.35c0-.18,0-.35-.18-.35-1.4,0-6.06,4.13-7.02,5.09-1.05,1.4-3.25,2.11-4.92,2.9-.44.09-.7.26-.97.53-.79.53-2.19.88-3.78,1.67-1.14.61-2.46,1.32-3.6,1.76-1.14.44-1.93,1.05-2.63,1.05-.35,0-.61-.88-.61-.97.09-.7,1.93-1.4,2.55-1.58.97-.26,1.4-.97,2.37-1.23,1.49-.53.79-.26,1.93-1.23.61-.61,1.84-.26,3.25-1.58.26-.26,1.84-1.14,2.99-2.02,1.14-.79,2.28-1.76,3.51-2.63,1.49-1.05,3.07-2.19,3.07-2.46,0-.61-.97-1.05-1.58-1.05l-2.37.26c-.44,0-.88-.18-1.58-.18-.53.09-1.32.18-2.02.18l-.61-.09c-.26,0-.61,0-.88-.09-.26,0-.79-.09-1.05-.26-.26-.18-.61-.7-.61-.79.09-.44.61-.61,1.49-.88.35-.18.88-.18,1.32-.18h.97c.44,0,.88,0,1.32-.09.61-.09,1.23-.09,1.67-.09.97,0,1.58.09,2.02.09h1.58c1.67,0,3.69-.09,5.53-.53,2.11-.53,3.6-.88,5-2.19,1.32-1.14,2.11-1.93,3.86-2.28,1.23-.26,2.02-.97,3.6-1.93,1.23-.7,2.55-1.58,3.78-2.46,1.58-1.05,2.81-2.02,4.21-2.72,1.23-.61,2.11-1.14,2.99-1.14.61,0,.88.26.88.7,0,.61-.79,1.23-1.84,1.84-1.32.7-2.55,1.49-3.07,2.19-.88,1.05-3.07,2.46-5.27,3.86-1.93,1.23-3.07,2.46-3.16,3.6l.26.26c1.14.35,3.34.35,4.92.35,1.76,0,3.42-.35,5.18-.35.97,0,1.49.53,2.46.53.35,0,.79-.18,1.14-.18,1.76,0,3.51.61,5.36.61,1.32,0,2.2-.88,3.51-.88.79,0,1.49.35,2.28.35,1.4,0,2.72-.53,4.04-.53s2.37.18,3.69.18,2.63-.18,3.95-.18h.53c.97,0,2.11.09,2.11,1.14s-.88,1.14-1.67,1.14Z"/><path d="M535.63,55.84c-.7,1.58-4.04,3.69-5.18,5.27-.7,1.05-2.28,1.4-3.25,2.72-1.05,1.32-2.72,2.2-4.04,3.34-.97.79-2.02,1.05-2.99,2.02-.97.79-1.4.35-2.46,1.32-.7.61-1.84,1.4-2.81,1.4-.35,0-.53-.18-.53-.61,0-1.32,1.93-1.58,2.72-2.28,1.32-1.14,2.63-2.28,4.04-3.07,1.67-.79,2.28-2.55,3.78-3.34,1.67-.97,3.16-3.51,4.83-4.92,2.37-2.11,2.19-7.2,7.11-7.2.7,0,1.67,1.05,1.67,1.67,0,.26.09.53.09.79,0,1.67-2.72,2.2-2.99,2.9Z"/><path d="M640.37,42.32c-.79,1.4-1.84,1.58-3.34,1.58-1.32,0-2.28.53-3.6.79-.97.26-.97-.18-1.76.61-.97.79-1.14.44-2.11.7-.88.26-3.69,2.2-4.13,3.07-.61.88-2.63,4.04-3.6,4.04-1.93.44-3.78,2.9-4.65,2.9-.7.26-1.32.26-1.67.97-.26.53-4.13.7-4.83,1.4-.44.35-1.4.35-2.02.35-2.72,0-2.81-.7-2.81-2.37v-1.32c0-1.14-2.11-1.23-2.9-1.23-.26,0-.53.18-.79.53-1.67,1.67-4.21,1.76-6.06,2.81-.97.53-2.28-.09-3.25.88-.61.61-1.67.61-2.46.61-1.67,0-3.07-.61-3.07-2.46,0-.35.18-.61.44-.88.61-.61.35-2.9,1.14-3.42.7-.44,3.25-4.48,3.86-5.36.97-1.14,1.84-2.28,2.9-3.34.7-.97,4.57-4.65,4.83-5.88.26-.7,1.23-.61,1.23-1.58,0-.26-.09-.7-.35-.7-.61,0-1.49,2.11-3.25,2.63-1.4.44-4.48,4.39-5.79,4.83-1.14.44-1.76,1.84-2.72,2.11-.7.26-3.95,4.39-4.21,5.09-.61,1.67-2.37,2.9-2.37,5.09,0,.44.09.97.09,1.4,0,1.67-1.14,1.84-2.55,1.84-.61,0-1.93-.09-1.93-1.05,0-.26.09-.53.35-.79,1.14-1.67.44-2.9,1.4-3.95.7-.7,3.34-3.34,3.6-4.3.09-.97,1.49-2.28,2.19-2.9.61-.61,1.76-2.46,2.28-2.72.79-.26,1.49-1.23,2.19-1.84.97-.53,2.37-3.34,3.25-3.34.79-.09,1.32-.35,1.76-.97.35-.61,1.58-.7,2.55-1.76,1.32-1.58,4.74-2.37,5.44-3.78.61-.79.61-1.14,1.58-1.14s1.67-.35,2.46-.35c.97,0,2.11,1.14,2.11,2.11,0,.61-.35.79-.7,1.14-1.14.97-6.67,6.5-6.94,7.46-.09.61-.44,1.14-1.14,1.49-1.14.44-7.2,8.08-7.9,9.48-.44.79-1.23,2.02-1.23,2.99,0,.44.26.88.88,1.14.35.09,1.4.88,1.67.88.18,0,.35-.09.44-.18,1.67-.97,4.3-1.14,5.97-2.28.97-.61,2.81-1.49,3.86-1.49.97,0,1.58-.79,2.02-1.58.35-.79,1.32-1.23,2.28-1.32.79,0,3.07-1.84,3.51-2.55.44-.61,2.37-1.23,2.81-1.84.44-.7,2.99-1.4,3.78-2.19.35-.35.97-.97,1.58-.97.44,0,.61.61.61.97,0,.61-.35.53-.7.79-.61.26-1.32,1.32-1.93,1.76-1.67,1.14-3.34,1.76-4.74,3.42-1.05,1.32-1.4,3.25-1.67,3.51-.44.35-.44.79-.44,1.4v.44c0,.44-.88.97-.88,1.4,0,.26.44.26.7.26,1.84,0,3.07-1.67,4.74-1.67,1.32,0,3.6-2.9,4.21-3.78,1.23-1.67,2.02-1.05,3.16-2.72,1.58-2.11,2.2-1.32,3.51-2.2,1.67-1.14,2.55-1.93,4.74-2.19,1.49-.26,3.86,0,5.27-.61.7-.35,1.76-.7,2.55-.7.44,0,.61.09.61.35,0,.09-.09.35-.09.44Z"/><path d="M661.88,47.5c-.7.97-2.19,3.34-3.16,4.04-.97.61-1.84,1.84-2.81,2.11-.18,0-.35.09-.61.35-.7.7-.7.35-1.49.7-.7.26-1.05.61-2.02.7-.53.09-1.14.26-1.76.53-.44.44-.97.61-1.4.7-.44.09-.97.26-1.58.53-.79.26-1.4.44-2.02.44-.44,0-.97-.09-1.67-.09-.35,0-.7.18-1.14.18-.26,0-.53-.09-.79-.09s-.35.18-.61.18c-.61,0-1.05-.61-1.76-.7-.7-.09-.97-.97-.97-1.58,0-1.67,1.49-1.67,1.49-3.78,0-.44-.09-.88-.09-1.32s.26-.79.79-.88c.79-.26,1.05-.35,1.67-.97.44-.61,2.02-.61,2.72-1.05.97-.61,2.02-.79,2.98-1.4.44-.35,2.37-1.23,2.99-1.23.44,0,.61.26.61.7,0,1.14-1.05.97-1.4,1.58-.35.97-1.32,1.32-2.28,1.4-.7,0-3.25,1.93-3.42,2.55-.26.7-1.67.97-1.67,2.02,0,1.14.79,1.05,1.76,1.14.61,0,1.05.26,1.67.26.26,0,.35-.18.7-.18s.7.09,1.05.09c.7,0,.97-.44,1.58-.44,2.9-.26,4.57-2.11,7.11-3.16.35-.26.7-.26.97-.53.61-.61,1.23-1.93,1.23-2.72,0-1.05-.53-1.76-1.67-2.19-.26-.09-.53-.26-.79-.53-.53-.79-2.9-.61-2.9-2.11,0-.97.61-2.11,1.67-2.11.97,0,1.67.61,2.63.61,1.32,0,4.74,3.78,4.74,5.27,0,.35-.09.61-.35.97Z"/><path d="M784.8,28.54c0,.44-.09.97-.53.97-1.05,0-.79-2.37-4.74-2.37h-.44c-3.07.09-3.95,1.23-6.32,2.9-3.07,2.11-5.62,3.95-8.17,6.67-2.11,2.11-4.04,4.04-6.59,5.71-2.19,1.4-5.53,5.62-6.76,7.99-.97,1.93-4.92,6.32-5.18,7.2-.62,1.67-2.02,3.34-3.78,3.34-1.14,0-2.11-.61-2.11-1.76,0-.7.26-1.32.88-1.93,2.81-2.81,7.81-7.99,9.39-11.41,1.49-3.16,3.51-7.38,5.97-9.75,1.76-1.67,3.86-2.63,4.57-5,.96-2.72,3.07-5.62,5.09-7.64,1.32-1.32,5.62-7.46,5.62-9.22,0-.26-.09-.35-.35-.35-.88,0-3.16,2.63-3.86,3.07-2.37,2.37-7.9,6.76-10.62,8.17-3.51,1.84-6.94,5.71-10.45,7.99-3.51,2.37-7.11,4.65-10.01,7.73-1.49,1.67-3.07,2.55-4.74,3.86-1.67,1.32-3.07,2.81-4.39,4.48l-5.27,5.71c-1.32,1.32-2.72,2.46-3.69,3.95-.18.35-3.51,3.16-3.69,3.16-.61,0-.61-.79-.61-1.14,0-3.69.88-5,3.86-7.2,5.71-4.13,9.39-10.62,14.31-15.54,2.63-2.63,3.16-6.23,5.97-8.52,3.42-2.81,5.36-6.76,8.25-9.92,2.37-2.55,4.21-5.27,6.32-7.99.97-1.14,1.76-2.37,2.81-3.34.35-.26.53-.44.53-.7,0-.35-.53-.53-.79-.53s-.62.09-.97.35c-.61.35-1.14.97-1.76,1.4-1.67,1.32-3.25,2.55-5.27,3.16-3.42,1.14-6.15,3.6-9.39,5.09-2.11.97-8.69,4.3-9.92,6.06-1.14,1.58-8.78,5.79-11.15,8.17-2.37,2.37-8.52,5.62-9.92,7.73-1.67,2.63-7.02,4.92-9.13,8.17-1.14,1.76-9.57,11.41-11.5,11.41-.26,0-.44-.18-.44-.61,0-.97,3.25-4.04,4.04-4.83,1.67-1.67,2.63-3.95,4.48-5.36,1.05-.79,1.76-1.76,2.72-2.72l3.95-3.51c1.14-.97,2.19-1.93,3.16-3.07,2.11-2.37,2.2-3.6,5.36-4.92,4.3-1.76,4.92-4.83,7.37-5.97,2.02-.88,5.27-2.63,6.5-4.57,1.05-1.84,2.46-2.37,4.3-3.34,1.32-.61,2.46-1.67,3.6-2.63,2.2-1.84,4.21-3.07,7.11-3.86,1.76-.44,3.34-.97,4.83-2.11,1.32-.79,2.37-2.11,3.78-2.55,3.51-.97,9.57-4.39,11.94-7.02.44-.44,1.4-1.58,2.11-1.58.44,0,1.67,1.41,1.67,1.84,0,1.14-2.11,3.16-2.9,3.95-2.37,2.46-4.56,5.62-6.32,8.69-1.14,2.11-4.39,3.78-4.83,6.15-.44,2.11-7.2,7.9-8.87,11.24l-1.05,1.93c-.35.61-1.76,2.28-1.76,2.9,0,.26.18.61.53.61.88,0,3.34-4.13,5.09-4.83,2.46-.7,3.86-3.34,6.15-4.21,2.55-.97,7.02-6.23,10.19-7.46,2.46-1.05,4.39-3.34,6.5-5,2.2-1.67,4.65-3.25,6.5-5.27.79-1.05,3.25-3.78,4.48-3.78.7,0,.7,1.23.7,1.67,0,2.9-2.28,6.94-3.69,9.31-1.05,1.76-6.06,8.43-6.32,9.92-.53,1.49-3.34,4.3-3.34,5.71.09.09.26.18.35.18.44,0,3.51-2.81,4.21-3.25,3.42-1.93,6.85-5.97,10.97-5.97,2.55,0,5.44.7,5.44,3.86v.35Z"/><path d="M790.76,47.5c-.7.97-2.2,3.34-3.16,4.04-.97.61-1.84,1.84-2.81,2.11-.18,0-.35.09-.61.35-.7.7-.7.35-1.49.7-.7.26-1.05.61-2.02.7-.53.09-1.14.26-1.76.53-.44.44-.96.61-1.4.7-.44.09-.97.26-1.58.53-.79.26-1.4.44-2.02.44-.44,0-.97-.09-1.67-.09-.35,0-.7.18-1.14.18-.26,0-.53-.09-.79-.09s-.35.18-.62.18c-.61,0-1.05-.61-1.76-.7-.7-.09-.96-.97-.96-1.58,0-1.67,1.49-1.67,1.49-3.78,0-.44-.09-.88-.09-1.32s.26-.79.79-.88c.79-.26,1.05-.35,1.67-.97.44-.61,2.02-.61,2.72-1.05.97-.61,2.02-.79,2.99-1.4.44-.35,2.37-1.23,2.99-1.23.44,0,.62.26.62.7,0,1.14-1.05.97-1.41,1.58-.35.97-1.32,1.32-2.28,1.4-.7,0-3.25,1.93-3.42,2.55-.26.7-1.67.97-1.67,2.02,0,1.14.79,1.05,1.76,1.14.61,0,1.05.26,1.67.26.26,0,.35-.18.7-.18s.7.09,1.05.09c.7,0,.97-.44,1.58-.44,2.9-.26,4.56-2.11,7.11-3.16.35-.26.7-.26.97-.53.61-.61,1.23-1.93,1.23-2.72,0-1.05-.53-1.76-1.67-2.19-.26-.09-.53-.26-.79-.53-.53-.79-2.9-.61-2.9-2.11,0-.97.61-2.11,1.67-2.11.96,0,1.67.61,2.63.61,1.32,0,4.74,3.78,4.74,5.27,0,.35-.09.61-.35.97Z"/><path d="M830.36,52.5c-1.32.44-2.02,1.23-3.16,1.67-.79.26-1.49.61-2.28,1.05-1.67,1.05-4.3,1.49-7.11,2.11-1.49.35-3.16.35-4.56.35h-1.58c-.97,0-2.11-.18-3.34-.18s-1.58-.97-2.54-1.23c-1.49-.44-1.41-1.23-1.58-2.46,0-.26-.09-.53-.09-.79,0-.79.35-1.4,1.32-2.11.88-.61,1.58-2.02,2.37-2.55.35-.18.7-.7,1.05-1.32.44-.7.79-1.49.79-1.93,0-.26-.35-.53-.7-.53-.62,0-1.58.44-2.02.79-1.14,1.05-2.02,1.84-3.34,2.55-.7.44-1.32.97-2.02,1.58-.88.7-1.67.97-2.63,1.4-.96.44-1.93.88-2.9,1.58-.97.61-1.05.35-2.11.79-1.23.53-2.99,1.67-4.04,1.67-.44,0-.96-.35-.96-.79s2.37-1.4,2.98-1.67c1.05-.26,1.4-.97,2.46-1.23.88-.26,1.76-.79,2.55-1.23l3.07-1.67c1.32-.79,2.63-1.67,3.78-2.72.7-.7,1.4-1.32,2.19-1.93.79-.53,1.67-1.05,2.55-1.4.88-.35,1.84-.61,2.9-.61.88,0,1.84.18,3.34.35.88.09,1.58.88,1.58,1.84v.35c-.26,1.76-.44,2.81-1.93,3.78-1.32.79-1.84,2.28-3.16,2.99-.7.35-1.05,1.32-1.05,2.02,0,.97.79,1.58,1.84,1.93,1.76.61,4.13.61,5,.61.7,0,1.49-.09,2.11-.44,2.11-1.14,3.51-.18,5.53-2.02.35-.26.79-.44,1.32-.7.7,0,1.32-.18,1.93-.61,1.32-.97,1.93-1.14,3.42-1.67l.26-.18.35-.18c.35,0,.53.26.53.7,0,1.32-1.14,1.76-2.11,2.02Z"/><path d="M897.61,39.6h-.79c-1.32,0-2.46-.35-3.78-.35-.44,0-.79,0-.96.09-.44.26-1.67.26-2.99.26h-2.9c-.97,0-1.93.26-2.9.26-1.67,0-3.25-.26-4.92-.26-1.32,0-2.46.35-3.78.35-.97,0-1.93-.26-2.9-.26-1.84,0-3.6.35-5.36.35-.97,0-1.84-.18-2.81-.18-1.32,0-2.63.44-3.95.44-.97,0-1.76-.26-2.72-.26-2.72,0-5.27,4.04-7.38,5.44-.97.61-1.93,1.32-2.55,2.37-.7,1.4-3.16,2.37-3.16,5.36,0,1.58,2.72,1.93,3.86,1.93,1.32,0,2.37-.09,3.69-.18,1.14,0,2.28-.88,3.42-.88,1.41,0,6.76-1.4,7.9-2.11,0,0,.79-.26,1.58-.61.61-.26,1.67-1.05,2.2-1.05.09,0,.17,0,.26.09.26.18.35.44.35.7,0,.09-.09.26-.09.35-.18.7-.88.79-1.23,1.05-.7.44-2.46.97-3.07,1.58-1.05.97-2.99.88-4.3,1.49-1.76.79-4.92,1.4-6.94,1.4-1.76,0-3.51.79-5.36.79-2.98,0-7.64-.44-7.64-4.39,0-.97.53-1.49,1.23-1.93,2.81-1.58,3.69-6.06,5.97-6.94.61-.35,2.11-.79,2.11-1.76v-.35c0-.18,0-.35-.17-.35-1.41,0-6.06,4.13-7.02,5.09-1.05,1.4-3.25,2.11-4.92,2.9-.44.09-.7.26-.97.53-.79.53-2.19.88-3.78,1.67-1.14.61-2.46,1.32-3.6,1.76-1.14.44-1.93,1.05-2.63,1.05-.35,0-.62-.88-.62-.97.09-.7,1.93-1.4,2.55-1.58.96-.26,1.4-.97,2.37-1.23,1.49-.53.79-.26,1.93-1.23.62-.61,1.84-.26,3.25-1.58.26-.26,1.84-1.14,2.99-2.02,1.14-.79,2.28-1.76,3.51-2.63,1.49-1.05,3.07-2.19,3.07-2.46,0-.61-.97-1.05-1.58-1.05l-2.37.26c-.44,0-.88-.18-1.58-.18-.53.09-1.32.18-2.02.18l-.61-.09c-.26,0-.62,0-.88-.09-.26,0-.79-.09-1.05-.26-.26-.18-.62-.7-.62-.79.09-.44.62-.61,1.49-.88.35-.18.88-.18,1.32-.18h.96c.44,0,.88,0,1.32-.09.61-.09,1.23-.09,1.67-.09.97,0,1.58.09,2.02.09h1.58c1.67,0,3.69-.09,5.53-.53,2.11-.53,3.6-.88,5-2.19,1.32-1.14,2.11-1.93,3.86-2.28,1.23-.26,2.02-.97,3.6-1.93,1.23-.7,2.55-1.58,3.78-2.46,1.58-1.05,2.81-2.02,4.21-2.72,1.23-.61,2.11-1.14,2.98-1.14.62,0,.88.26.88.7,0,.61-.79,1.23-1.84,1.84-1.32.7-2.55,1.49-3.07,2.19-.88,1.05-3.07,2.46-5.27,3.86-1.93,1.23-3.07,2.46-3.16,3.6l.26.26c1.14.35,3.34.35,4.92.35,1.76,0,3.42-.35,5.18-.35.97,0,1.49.53,2.46.53.35,0,.79-.18,1.14-.18,1.76,0,3.51.61,5.36.61,1.32,0,2.2-.88,3.51-.88.79,0,1.49.35,2.28.35,1.41,0,2.72-.53,4.04-.53s2.37.18,3.69.18,2.63-.18,3.95-.18h.53c.97,0,2.11.09,2.11,1.14s-.88,1.14-1.67,1.14Z"/><path d="M891.02,52.5c-.53.44-1.58.97-2.2,1.32-.61.35-2.37,1.23-2.81,1.32-.53.18-.88.35-1.41.61-.88.44-1.67.88-2.63,1.05-.7.18-1.58.18-2.46.35-.7.09-1.4.35-1.84.61-.35.18-.7.26-.96.26-.44,0-.88-.09-1.32-.09-.97,0-1.67.35-2.63.35h-.35c-.97,0-2.2,0-2.98-.35-.62-.26-1.58-.26-2.2-.26-1.32-.09-2.02-.88-3.16-1.14-1.32-.26-2.28-1.93-2.28-3.34,0-.79,1.05-2.37,1.84-3.78.88-1.67,2.37-3.42,3.34-3.78l1.67-1.4c1.14-.97,2.46-2.02,3.86-2.81,1.14-.61,2.28-1.14,3.51-1.14.7,0,1.32-.44,2.02-.44.09,0,.97.35,1.05.35.44.61,1.41.61,1.41,1.4,0,1.4-2.37,4.83-3.69,5.09-1.49.44-2.99,1.58-4.39,2.37-1.49.79-2.63,1.23-4.21,2.02-.26.09-2.02.88-2.02,1.23,0,.88.44,1.4,1.23,1.93,1.67,1.05,4.04,1.58,5.36,1.58.96,0,1.67-.09,2.63-.09,2.02,0,3.69-.53,5.71-.79.44-.09,1.14-.18,1.84-.44.88-.26,1.84-.7,2.72-1.05.88-.44,3.69-1.58,4.21-2.02.44-.26.79-.44,1.23-.44.35,0,.53.18.53.53,0,.44-.35.7-.62.97ZM875.57,43.11c-.79,0-4.13,2.2-4.92,2.81-.44.35-1.23,1.05-1.23,1.76.26,0,.61.09.88.09.97,0,1.05-.88,1.76-.88.88,0,1.76-2.11,3.34-2.11.44,0,.7-1.32.7-1.58l-.53-.09Z"/><path d="M955.64,52.5c-.53.44-1.58.97-2.2,1.32-.61.35-2.37,1.23-2.81,1.32-.53.18-.88.35-1.41.61-.88.44-1.67.88-2.63,1.05-.7.18-1.58.18-2.46.35-.7.09-1.4.35-1.84.61-.35.18-.7.26-.97.26-.44,0-.88-.09-1.32-.09-.96,0-1.67.35-2.63.35h-.35c-.97,0-2.2,0-2.99-.35-.61-.26-1.58-.26-2.2-.26-1.32-.09-2.02-.88-3.16-1.14-1.32-.26-2.28-1.93-2.28-3.34,0-.79,1.05-2.37,1.84-3.78.88-1.67,2.37-3.42,3.34-3.78l1.67-1.4c1.14-.97,2.46-2.02,3.86-2.81,1.14-.61,2.28-1.14,3.51-1.14.7,0,1.32-.44,2.02-.44.09,0,.96.35,1.05.35.44.61,1.41.61,1.41,1.4,0,1.4-2.37,4.83-3.69,5.09-1.49.44-2.99,1.58-4.39,2.37-1.49.79-2.63,1.23-4.21,2.02-.26.09-2.02.88-2.02,1.23,0,.88.44,1.4,1.23,1.93,1.67,1.05,4.04,1.58,5.36,1.58.97,0,1.67-.09,2.63-.09,2.02,0,3.69-.53,5.71-.79.44-.09,1.14-.18,1.84-.44.88-.26,1.84-.7,2.72-1.05.88-.44,3.69-1.58,4.21-2.02.44-.26.79-.44,1.23-.44.35,0,.53.18.53.53,0,.44-.35.7-.61.97ZM940.19,43.11c-.79,0-4.13,2.2-4.92,2.81-.44.35-1.23,1.05-1.23,1.76.26,0,.61.09.88.09.97,0,1.05-.88,1.76-.88.88,0,1.76-2.11,3.34-2.11.44,0,.7-1.32.7-1.58l-.53-.09Z"/><path d="M1000.41,51.98c.88-.26,2.81-1.49,3.78-1.49.26,0,.53.35.53.61,0,.09,0,.44-.53.79-.61.44-1.14.88-2.46,1.49-1.41.61-2.99,1.23-3.42,1.49-.97.26-1.93.53-2.9,1.23-.97.7-3.69,1.14-5,1.14-1.05,0-3.42.18-4.48.18-1.4,0-2.9-1.49-2.9-2.81.09-1.32.97-2.37,1.05-3.86,0-.7-.7-1.32-1.4-1.32-1.14,0-2.28.61-3.34.97-1.58.35-2.37.7-3.42,1.84-.96.97-4.04,2.37-6.85,3.34-1.58.53-3.07.97-3.95.97-1.23,0-2.02-.53-2.02-1.84l.18-.97c.44-1.67.44-3.16,1.23-4.83.17-.26.26-.53.26-1.14,0-.44-.26-.61-.61-.61s-2.2,1.76-4.3,2.98c-1.32.7-1.93,1.05-2.11,1.32-.61.61-2.81,1.76-3.6,1.76-.62,0-.88-.26-.88-.79,0-.18.09-.35.17-.61.26-.35,1.23-.53,1.67-.88,1.41-.97,1.84-.97,2.63-1.76,2.11-1.23,2.99-2.02,4.92-3.6,1.76-1.49,1.14-1.49,2.55-2.19.97-.35,2.28-1.23,3.25-1.23,1.14,0,1.49,2.02,1.49,3.25v.44c-.09,2.02-1.76,3.34-1.93,5.44,0,.79.35,1.14,1.05,1.14s1.4-.35,2.02-.61c1.4-.61,2.63-1.32,3.78-2.11.79-.44,1.49-1.14,2.46-1.4,1.32-.35,2.2-1.23,3.51-1.49,1.4-.26,3.78-.97,4.83-1.67.97-.79,2.99-1.76,4.13-1.76,1.05,0,1.4.97,1.4,1.93l-.18.97c-.44,1.14.18,1.67-1.32,2.28-1.49.97-.62,1.76-1.32,2.37-.35.35-.53.97-.53,1.49,0,.26.09.79.18.79,0,1.05,1.05,1.23,2.02,1.23.79,0,1.84.18,2.81.18.79,0,2.11-.7,3.07-.97.79-.09,1.4-.35,2.02-.53.97-.35,1.58-.88,2.46-1.14Z"/><path d="M1044.93,53.73c-.44.26-1.49.97-2.02,1.05-.88.18-2.98,1.32-4.48,1.84-.79.26-1.23.53-1.93.7-.97.26-2.02.7-2.46.7-.7,0-1.32-.18-1.93-.18-.97,0-1.14.26-2.11.26-1.49,0-3.95-.7-5.27-1.67-.53-.44-1.23-1.4-1.84-2.37-.79-1.14-1.58-2.28-2.2-2.28-.18,0-1.49.7-2.99,1.4-1.58.79-3.34,1.58-4.04,1.84-.7.18-2.55.61-4.48.97s-3.86.61-4.56.61c-1.05,0-5.88-.44-5.88-1.76,0-.53,1.14-1.84,2.55-2.72,1.23-.79,2.63-2.02,3.07-2.19,2.11-.79,3.42-2.81,5.62-3.78,1.14-.61,2.37-1.32,3.69-1.32s2.46-.53,3.78-.53c.26,0,.7.09.79.35-.53.79-2.99,1.58-5.53,2.72-1.84.79-3.69,1.67-5,2.99-.97.97-1.58,2.11-1.58,3.51,0,.53.26.79.88.79,1.05,0,2.19-.53,3.25-.79,1.67-.35,2.98-.26,4.65-1.23.62-.35,1.32-.61,1.93-.79,1.49-.44,2.28-1.76,3.6-2.46,2.02-.97,2.11-.79,3.51-2.63l2.11-2.99c2.55-3.51,4.13-5.44,7.81-7.55,1.05-.61,2.28-1.23,3.86-1.93,1.67-.7,2.02-1.58,3.86-1.58.97,0,1.93.53,1.93,1.49,0,1.14-4.92,6.06-6.06,6.76-1.4.79-2.19,2.37-3.69,2.81-2.02.7-1.49,1.67-2.99,2.19-2.19.97-2.9,3.16-2.9,5.36s.09,3.25,2.28,3.95c1.32.44,1.93.53,3.34.53.53,0,1.05-.09,1.58-.18.97-.26,1.4-.44,2.37-.61.7-.18,1.41-.35,2.28-.79l2.55-1.14c1.14-.53,4.48-2.11,4.48-2.11.35,0,.79.35.79.53,0,1.05-1.84,1.76-2.63,2.2Z"/><path d="M1074.69,52.5c-.53.44-1.58.97-2.19,1.32-.62.35-2.37,1.23-2.81,1.32-.53.18-.88.35-1.41.61-.88.44-1.67.88-2.63,1.05-.7.18-1.58.18-2.46.35-.7.09-1.41.35-1.84.61-.35.18-.7.26-.97.26-.44,0-.88-.09-1.32-.09-.97,0-1.67.35-2.63.35h-.35c-.97,0-2.2,0-2.99-.35-.61-.26-1.58-.26-2.19-.26-1.32-.09-2.02-.88-3.16-1.14-1.32-.26-2.28-1.93-2.28-3.34,0-.79,1.05-2.37,1.84-3.78.88-1.67,2.37-3.42,3.34-3.78l1.67-1.4c1.14-.97,2.46-2.02,3.86-2.81,1.14-.61,2.28-1.14,3.51-1.14.7,0,1.32-.44,2.02-.44.09,0,.97.35,1.05.35.44.61,1.4.61,1.4,1.4,0,1.4-2.37,4.83-3.69,5.09-1.49.44-2.98,1.58-4.39,2.37-1.49.79-2.63,1.23-4.21,2.02-.26.09-2.02.88-2.02,1.23,0,.88.44,1.4,1.23,1.93,1.67,1.05,4.04,1.58,5.36,1.58.97,0,1.67-.09,2.63-.09,2.02,0,3.69-.53,5.71-.79.44-.09,1.14-.18,1.84-.44.88-.26,1.84-.7,2.72-1.05.88-.44,3.69-1.58,4.21-2.02.44-.26.79-.44,1.23-.44.35,0,.53.18.53.53,0,.44-.35.7-.62.97ZM1059.23,43.11c-.79,0-4.13,2.2-4.92,2.81-.44.35-1.23,1.05-1.23,1.76.26,0,.62.09.88.09.97,0,1.05-.88,1.76-.88.88,0,1.76-2.11,3.34-2.11.44,0,.7-1.32.7-1.58l-.53-.09Z"/><path d="M1119.46,51.98c.88-.26,2.81-1.49,3.78-1.49.26,0,.53.35.53.61,0,.09,0,.44-.53.79-.61.44-1.14.88-2.46,1.49-1.41.61-2.99,1.23-3.42,1.49-.97.26-1.93.53-2.9,1.23-.97.7-3.69,1.14-5,1.14-1.05,0-3.42.18-4.48.18-1.41,0-2.9-1.49-2.9-2.81.09-1.32.97-2.37,1.05-3.86,0-.7-.7-1.32-1.41-1.32-1.14,0-2.28.61-3.34.97-1.58.35-2.37.7-3.42,1.84-.97.97-4.04,2.37-6.85,3.34-1.58.53-3.07.97-3.95.97-1.23,0-2.02-.53-2.02-1.84l.18-.97c.44-1.67.44-3.16,1.23-4.83.18-.26.26-.53.26-1.14,0-.44-.26-.61-.61-.61s-2.2,1.76-4.3,2.98c-1.32.7-1.93,1.05-2.11,1.32-.62.61-2.81,1.76-3.6,1.76-.61,0-.88-.26-.88-.79,0-.18.09-.35.18-.61.26-.35,1.23-.53,1.67-.88,1.41-.97,1.84-.97,2.63-1.76,2.11-1.23,2.98-2.02,4.92-3.6,1.76-1.49,1.14-1.49,2.55-2.19.97-.35,2.28-1.23,3.25-1.23,1.14,0,1.49,2.02,1.49,3.25v.44c-.09,2.02-1.76,3.34-1.93,5.44,0,.79.35,1.14,1.05,1.14s1.4-.35,2.02-.61c1.41-.61,2.63-1.32,3.78-2.11.79-.44,1.49-1.14,2.46-1.4,1.32-.35,2.19-1.23,3.51-1.49,1.4-.26,3.78-.97,4.83-1.67.97-.79,2.99-1.76,4.13-1.76,1.05,0,1.41.97,1.41,1.93l-.18.97c-.44,1.14.18,1.67-1.32,2.28-1.49.97-.62,1.76-1.32,2.37-.35.35-.53.97-.53,1.49,0,.26.09.79.18.79,0,1.05,1.05,1.23,2.02,1.23.79,0,1.84.18,2.81.18.79,0,2.11-.7,3.07-.97.79-.09,1.4-.35,2.02-.53.97-.35,1.58-.88,2.46-1.14Z"/><path d="M1132.63,58.04c-.26.44-.97.79-1.41.79-1.49,0-2.11-.79-2.11-2.72,0-.7.26-1.14.97-1.49,1.05-.35,1.14-1.84,2.28-1.84,1.05,0,2.37.44,2.37,1.58,0,1.84-1.05,2.28-2.11,3.69Z"/><path class="cls-1" d="M12.65,117.57c-.14.05-.28.09-.52.09-.33,0-.56-.05-.89-.05-.56,0-1.13.19-1.74.19-.42,0-.89-.05-1.32-.05-.89,0-1.6.14-2.5.14h-.19c-.75,0-2.49-.05-2.49-1.04,0-.71.56-1.08,1.27-1.08,1.32,0,2.54.71,3.86.71.33,0,.66-.09,1.04-.09.71,0,1.46.14,2.21.14.94,0,1.84-.28,2.78-.28.38,0,1.08.09,1.08.61,0,.66-2.02.47-2.59.71Z"/><path class="cls-1" d="M61.75,96.67c-.71.42-1.51,1.08-2.4,1.27-.71.14-1.36,1.18-2.49,1.41s-1.74.94-2.64,1.65c-.99.71-1.98,1.13-2.73,2.07-.71.75-1.51,1.37-2.26,2.07-1.46,1.27-2.82,2.4-4.14,3.72-2.21,2.21-9.27,8.94-9.27,12.05,0,.61.09,1.36.85,1.36.71,0,1.55-.61,1.88-1.32.42-1.08.75-1.55,1.51-2.45.61-.71.99-1.93,1.93-2.26,1.08-.24,1.08-1.22,1.79-1.55,1.65-.89,4.52-3.67,6.31-3.67,1.27,0,2.59.61,2.59,2.07,0,.56-.28.89-.42,1.41-.14.8-.52,1.41-1.18,1.93-1.27.89-1.88,2.02-3.44,2.64-1.41.66-1.79,1.22-2.97,2.02-.52.33-1.08.61-1.69.85-.66.42-3.11,1.18-3.25,2.07v.33c0,.38.05.71.05,1.04,0,.42-.09.8-.09,1.22s.38.38.38.71c0,.24-.33.33-.52.33-.52,0-.71-.47-.71-.89-.14-.71-1.04-.47-1.04-1.46v-.38c0-.38-.24-.85-.66-.85-.33,0-.47.09-.8.09-.38,0-.66-.09-.99-.24-.85-.47-2.26-.52-2.26-1.74,0-.14.05-.38.09-.71.38-1.46.75-2.02,1.74-3.01.52-.52.24-1.04,1.37-1.93.89-.71,1.04-1.55,1.79-2.07.75-.42,1.36-1.84,2.26-2.59.75-.52,4.75-4.42,4.99-5.04,0-.05-.05-.09-.09-.09-.33,0-1.08.38-1.41.52-.56.24-.99.52-1.32,1.04-.24.52-1.93.8-2.45,1.46-.33.56-2.68,1.98-3.3,2.07-.52.14-.94.28-1.18.8-.24.52-3.72,1.93-4.47,3.06-.75,1.18-3.01,2.07-4.14,2.82-.61.38-1.18.89-1.74,1.32l-3.34,2.73c-.89.71-2.12,1.93-3.25,1.93-.38,0-.85-.14-.85-.56,0-.57.52-1.04.94-1.27.71-.42,1.18-1.18,1.93-1.51,1.13-.47,1.88-1.6,3.11-1.98.94-.28,1.88-2.12,2.97-2.59,1.37-.47,1.69-1.74,2.68-2.5,1.08-.8,2.02-1.79,2.82-2.97.71-.99,1.84-1.51,2.54-2.59.52-.75,1.65-1.93,2.54-2.26.42-.09.94-1.84,2.02-2.45.75-.38,2.02-1.88,2.02-2.78,0-.14-.09-.24-.24-.24-.52,0-.99.24-1.51.38-1.18.28-1.84,1.32-3.29,1.32-1.32,0-2.17-.89-2.17-2.21,0-.75.28-1.22.28-1.93s-.47-1.04-1.08-1.04c-.75,0-3.2,1.18-3.58,1.79-.19.33-1.13.71-1.46,1.04-.28.24-.56.56-.8.89-.99,1.27-3.3,3.11-3.91,4.19-.33.56-1.18,1.98-1.74,2.26-.42.14-.56.75-.89,1.08-.61.52-.94,1.32-1.18,2.02-.14.38-.52.85-.94.85-.38,0-.52-.42-.52-.75,0-.71.61-1.84,1.22-2.21.71-.42.89-1.41,1.41-1.74.71-.42.99-1.08,1.51-1.65.71-.89,1.46-1.6,2.17-2.5,1.04-1.13,1.08-1.93,2.45-2.92.61-.52,2.5-1.37,2.87-1.88.61-.75,3.2-2.02,4.19-2.02.14,0,.19.05.33.05,1.65.42,1.79,1.65,1.79,2.97v.56c0,1.51.71,1.51,2.02,1.51.66,0,1.22-.19,1.69-.52.89-.56,1.69-.99,2.59-1.51.8-.38,1.93-1.55,2.82-1.55.33,0,.47.19.47.52,0,.52-.09.99-.66,1.13-.61.14-1.36,1.41-1.69,1.88-.89,1.27-2.17,2.02-3.06,3.29-.52.75-1.18,1.74-1.98,2.26-.99.61-1.41.8-2.12,1.88-.61.89-1.6,2.21-2.49,2.82-.56.42-2.78,2.35-2.78,3.06.05.05.09.05.14.05.38,0,1.93-1.41,2.49-1.65.61-.33,1.51-1.13,1.84-1.18.42-.14,1.08-.75,1.46-.99.33-.24.71-.42,1.04-.56,1.51-.75,2.78-2.07,4.28-2.68.94-.38,1.79-1.13,2.59-1.69,1.37-.94,2.64-1.88,4.1-2.78,1.08-.61,3.91-2.12,4.61-3.06,1.04-1.27,4.61-3.53,4.99-4.52.28-.56,1.98-.99,2.59-1.51.52-.33,1.08-.52,1.69-.52.71,0,1.18.19,1.18.89,0,1.27-1.27,2.21-2.35,2.73ZM49.7,113.15c-.52,0-.99.28-1.55.42-1.37.14-5.27,3.53-6.07,4.71-.52.89-1.55,1.74-1.55,2.82,0,.38.24.47.56.47.71,0,1.51-.38,2.12-.52.89-.24,1.79-.89,2.49-1.46.38-.33.85-.8,1.37-.94.38-.14,1.79-1.46,2.17-1.84.71-.61,1.27-1.41,1.27-2.35,0-.52-.19-1.32-.8-1.32Z"/><path class="cls-1" d="M69.74,120.35c-.28.24-.85.52-1.18.71-.33.19-1.27.66-1.51.71-.28.09-.47.19-.75.33-.47.24-.89.47-1.41.56-.38.09-.85.09-1.32.19-.38.05-.75.19-.99.33-.19.09-.38.14-.52.14-.24,0-.47-.05-.71-.05-.52,0-.89.19-1.41.19h-.19c-.52,0-1.18,0-1.6-.19-.33-.14-.85-.14-1.18-.14-.71-.05-1.08-.47-1.69-.61-.71-.14-1.22-1.04-1.22-1.79,0-.42.56-1.27.99-2.02.47-.89,1.27-1.84,1.79-2.02l.89-.75c.61-.52,1.32-1.08,2.07-1.51.61-.33,1.22-.61,1.88-.61.38,0,.71-.24,1.08-.24.05,0,.52.19.56.19.24.33.75.33.75.75,0,.75-1.27,2.59-1.98,2.73-.8.24-1.6.85-2.35,1.27-.8.42-1.41.66-2.26,1.08-.14.05-1.08.47-1.08.66,0,.47.24.75.66,1.04.89.57,2.17.85,2.87.85.52,0,.89-.05,1.41-.05,1.08,0,1.98-.28,3.06-.42.24-.05.61-.09.99-.24.47-.14.99-.38,1.46-.56.47-.24,1.98-.85,2.26-1.08.24-.14.42-.24.66-.24.19,0,.28.09.28.28,0,.24-.19.38-.33.52ZM61.46,115.31c-.42,0-2.21,1.18-2.64,1.51-.24.19-.66.56-.66.94.14,0,.33.05.47.05.52,0,.56-.47.94-.47.47,0,.94-1.13,1.79-1.13.24,0,.38-.71.38-.85l-.28-.05Z"/><path class="cls-1" d="M81.18,120.44c-.42.33-1.13.47-1.46.71s-.52.28-.89.33c-.38,0-1.84.56-2.07.71s-.52.24-.75.24c-.33,0-.89.14-1.22.14-.14,0-.33.05-.56.09-.8.33-.99.28-1.88.33-.52.05-1.46.24-1.98.24-.89,0-1.88-.71-1.88-1.65,0-.99.99-2.02,1.79-2.45,1.88-.99,2.82-2.68,4.66-3.67.38-.19.99-.99,1.32-.99s.33.56.33.75c0,.71-.42.89-.94,1.22-.19.05-.33.14-.42.19-.71.42-1.46,1.18-1.98,1.88-.52.66-2.02,1.79-2.02,2.64v.19c0,.19.28.28.52.28h.71c.42,0,.71.19,1.13.19.56,0,1.32-.19,2.12-.42.8-.24,1.55-.42,1.88-.42.42,0,1.13-.38,1.79-.61.42-.14.8-.38,1.13-.52.24-.14.52-.28.89-.28.19,0,.19.09.19.24,0,.28-.14.47-.38.66ZM81.84,107.45s-.19-.05-.38-.09c-.71-.24-.19-.75-.94-.99-.19-.05-.42-.19-.42-.38,0-.56,1.22-1.13,1.65-1.13.14,0,.28.09.42.33.14.42.38.75.38,1.18s-.19,1.08-.71,1.08Z"/><path class="cls-1" d="M105.19,120.07c.47-.14,1.51-.8,2.02-.8.14,0,.28.19.28.33,0,.05,0,.24-.28.42-.33.24-.61.47-1.32.8-.75.33-1.6.66-1.84.8-.52.14-1.04.28-1.55.66-.52.38-1.98.61-2.68.61-.56,0-1.84.09-2.4.09-.75,0-1.55-.8-1.55-1.51.05-.71.52-1.27.56-2.07,0-.38-.38-.71-.75-.71-.61,0-1.22.33-1.79.52-.85.19-1.27.38-1.84.99-.52.52-2.17,1.27-3.67,1.79-.85.28-1.65.52-2.12.52-.66,0-1.08-.28-1.08-.99l.09-.52c.24-.89.24-1.69.66-2.59.09-.14.14-.28.14-.61,0-.24-.14-.33-.33-.33s-1.18.94-2.31,1.6c-.71.38-1.04.56-1.13.71-.33.33-1.51.94-1.93.94-.33,0-.47-.14-.47-.42,0-.09.05-.19.09-.33.14-.19.66-.28.89-.47.75-.52.99-.52,1.41-.94,1.13-.66,1.6-1.08,2.64-1.93.94-.8.61-.8,1.37-1.18.52-.19,1.22-.66,1.74-.66.61,0,.8,1.08.8,1.74v.24c-.05,1.08-.94,1.79-1.04,2.92,0,.42.19.61.56.61s.75-.19,1.08-.33c.75-.33,1.41-.71,2.02-1.13.42-.24.8-.61,1.32-.75.71-.19,1.18-.66,1.88-.8.75-.14,2.02-.52,2.59-.89.52-.42,1.6-.94,2.21-.94.56,0,.75.52.75,1.04l-.09.52c-.24.61.09.89-.71,1.22-.8.52-.33.94-.71,1.27-.19.19-.28.52-.28.8,0,.14.05.42.09.42,0,.56.56.66,1.08.66.42,0,.99.09,1.51.09.42,0,1.13-.38,1.65-.52.42-.05.75-.19,1.08-.28.52-.19.85-.47,1.32-.61Z"/><path class="cls-1" d="M125.38,120.35c-.71.24-1.08.66-1.69.89-.42.14-.8.33-1.22.56-.89.57-2.31.8-3.81,1.13-.8.19-1.69.19-2.45.19h-.85c-.52,0-1.13-.09-1.79-.09s-.85-.52-1.37-.66c-.8-.24-.75-.66-.85-1.32,0-.14-.05-.28-.05-.42,0-.42.19-.75.71-1.13.47-.33.85-1.08,1.27-1.37.19-.09.38-.38.56-.71.24-.38.42-.8.42-1.04,0-.14-.19-.28-.38-.28-.33,0-.85.24-1.08.42-.61.56-1.08.99-1.79,1.37-.38.24-.71.52-1.08.85-.47.38-.89.52-1.41.75-.52.24-1.04.47-1.55.85-.52.33-.56.19-1.13.42-.66.28-1.6.89-2.17.89-.24,0-.52-.19-.52-.42s1.27-.75,1.6-.89c.56-.14.75-.52,1.32-.66.47-.14.94-.42,1.36-.66l1.65-.89c.71-.42,1.41-.89,2.02-1.46.38-.38.75-.71,1.18-1.04.42-.28.89-.56,1.37-.75s.99-.33,1.55-.33c.47,0,.99.09,1.79.19.47.05.85.47.85.99v.19c-.14.94-.24,1.51-1.04,2.02-.71.42-.99,1.22-1.69,1.6-.38.19-.56.71-.56,1.08,0,.52.42.85.99,1.04.94.33,2.21.33,2.68.33.38,0,.8-.05,1.13-.24,1.13-.61,1.88-.09,2.97-1.08.19-.14.42-.24.71-.38.38,0,.71-.09,1.04-.33.71-.52,1.04-.61,1.84-.89l.14-.09.19-.09c.19,0,.28.14.28.38,0,.71-.61.94-1.13,1.08Z"/><path class="cls-1" d="M136.76,120.44c-.42.33-1.13.47-1.46.71s-.52.28-.89.33c-.38,0-1.84.56-2.07.71s-.52.24-.75.24c-.33,0-.89.14-1.22.14-.14,0-.33.05-.56.09-.8.33-.99.28-1.88.33-.52.05-1.46.24-1.98.24-.89,0-1.88-.71-1.88-1.65,0-.99.99-2.02,1.79-2.45,1.88-.99,2.82-2.68,4.66-3.67.38-.19.99-.99,1.32-.99s.33.56.33.75c0,.71-.42.89-.94,1.22-.19.05-.33.14-.42.19-.71.42-1.46,1.18-1.98,1.88-.52.66-2.02,1.79-2.02,2.64v.19c0,.19.28.28.52.28h.71c.42,0,.71.19,1.13.19.56,0,1.32-.19,2.12-.42.8-.24,1.55-.42,1.88-.42.42,0,1.13-.38,1.79-.61.42-.14.8-.38,1.13-.52.24-.14.52-.28.89-.28.19,0,.19.09.19.24,0,.28-.14.47-.38.66ZM137.42,107.45s-.19-.05-.38-.09c-.71-.24-.19-.75-.94-.99-.19-.05-.42-.19-.42-.38,0-.56,1.22-1.13,1.65-1.13.14,0,.28.09.42.33.14.42.38.75.38,1.18s-.19,1.08-.71,1.08Z"/><path class="cls-1" d="M151.78,120.87c-.33.14-.33.28-.66.28s-1.13.33-1.37.52c-.38.38-1.32.24-1.93.75-.71.52-1.36.14-1.98.52-.56.33-1.13.09-1.69.42-.24.19-.89.19-1.27.19l-.85.14-1.6-.05c-.89,0-1.93-.05-2.5-.33-.56-.24-1.37-.19-1.74-.89-.24-.42-.52-.61-.52-1.27s.42-1.32,1.13-1.84c.66-.47,1.74-1.51,1.74-1.51.47-.42,1.27-.8,1.88-1.22.66-.47,1.65-.94,2.45-1.51.61-.42,2.54-.89,2.92-.89.89,0,1.88.61,1.88,1.55,0,.24-.05.42-.19.56-.61.75-.09.85-1.13,1.6-.42.24-.52.42-.75.85-.42.89-.99.71-1.6,1.13-.24.19-.33.38-.71.38-.33,0-1.08-.05-1.08-.56,0-.94,1.32-1.32,1.98-1.69.38-.24.94-1.13,1.13-1.51.09-.14.14-.24.14-.38,0-.33-.24-.42-.56-.42-.8,0-2.07.71-2.92,1.13-.8.42-1.27.94-1.88,1.41-.38.33-.94.61-1.27,1.08s-.85.85-.85,1.55c0,.09.05.19.05.28.14.61.19.52.75.94.24.24.94.24,1.46.24l1.41-.05c.24,0,.47,0,.75.05.14,0,.33.05.52.05,1.13,0,2.92-.38,3.58-.66.71-.33,1.6-.33,2.17-.66.33-.19.56-.33.89-.42.99-.33,1.6-.56,2.5-.99.24-.09.52-.24.71-.24s.28.05.28.42c-.33.47-.71.75-1.27,1.04Z"/><path class="cls-1" d="M179.41,101.57c-.61.33-.89.99-1.51,1.37-.56.33-.85,1.51-1.51,1.6-.56.14-1.22.24-1.41.94-.24.61-1.32.99-1.88,1.32-.75.38-3.11,2.31-3.58,3.01-.52.61-1.41,1.74-2.12,2.07-.56.24-.94.8-1.27,1.32-.38.61-3.11,2.54-3.86,3.3-.89.89-1.55,1.6-2.64,2.35-.28.28-2.59,2.97-2.59,3.2s.71.47.89.47c.33,0,.56-.24.89-.24s.66.14.66.47c0,.71-.94.94-1.51.94-.38,0-.75.28-1.18.28s-.8.14-1.32.14c-.56,0-1.22-.42-1.22-1.04,0-.28,1.51-2.5,1.84-2.73.99-.75,2.07-2.54,3.06-3.06.47-.19,1.13-.94,1.13-1.65-1.36,0-3.72,3.11-5.37,3.25-.61.14-.33.56-1.22.71-.38,0-2.35,1.65-3.25,1.65-.14,0-.38-.05-.38-.28,0-.61,2.87-1.93,3.53-2.31.33-.24.66-.52,1.08-.71.42-.14.66-.42,1.04-.75.71-.47,2.49-1.41,2.92-1.98.71-.71,2.12-.94,2.73-1.69.52-.8,2.45-1.65,3.34-2.02.66-.24,1.84-1.79,2.45-2.26.71-.52,1.32-1.08,2.07-1.6.71-.52,1.22-.85,1.55-1.6.24-.61,1.22-.75,1.74-1.37.19-.19,2.45-2.12,2.59-2.12.52-.24.94-.42,1.13-.94.28-.66,1.65-1.6,2.21-1.93.94-.52,1.69-1.6,2.82-1.6.38,0,.75.33.75.71,0,.89-1.88,2.4-2.64,2.78ZM179.27,119.97c-.14.47-2.92,1.6-3.39,1.84-1.08.52-1.08.89-2.35,1.04-1.18.14-2.31.75-3.44.75-1.32,0-3.44-.75-3.44-2.4,0-.38.14-.71.14-1.08,0-.33-.14-.52-.42-.52-.71,0-1.84.75-2.35,1.27-.38.38-2.26,1.51-2.82,1.51-.38,0-.66.42-1.04.42-.24,0-.38-.28-.38-.47,0-.42.33-.42.66-.57.71-.14,1.08-.89,1.79-1.08,1.65-.38,3.01-1.79,4.19-2.92.42-.38.99-1.08,1.51-1.32.71-.33.71-1.18,1.46-1.36.33-.14,1.18-.66,1.36-.66.38,0,.42.75.42,1.08,0,1.6-2.02,2.92-2.02,4.57,0,1.08.47,2.17,1.65,2.17.38,0,.52-.42.85-.42s.52.14.85.14c.75,0,2.82-.94,3.62-1.27.52-.19,1.08-.47,1.51-.71.33-.19.85-.47,1.22-.61.05,0,.09-.05.14-.05.19,0,.28.19.28.42v.24Z"/><path class="cls-1" d="M241.96,96.67c-.71.42-1.51,1.08-2.4,1.27-.71.14-1.36,1.18-2.49,1.41s-1.74.94-2.64,1.65c-.99.71-1.98,1.13-2.73,2.07-.71.75-1.51,1.37-2.26,2.07-1.46,1.27-2.82,2.4-4.14,3.72-2.21,2.21-9.27,8.94-9.27,12.05,0,.61.09,1.36.85,1.36.71,0,1.55-.61,1.88-1.32.42-1.08.75-1.55,1.51-2.45.61-.71.99-1.93,1.93-2.26,1.08-.24,1.08-1.22,1.79-1.55,1.65-.89,4.52-3.67,6.31-3.67,1.27,0,2.59.61,2.59,2.07,0,.56-.28.89-.42,1.41-.14.8-.52,1.41-1.18,1.93-1.27.89-1.88,2.02-3.44,2.64-1.41.66-1.79,1.22-2.97,2.02-.52.33-1.08.61-1.69.85-.66.42-3.11,1.18-3.25,2.07v.33c0,.38.05.71.05,1.04,0,.42-.09.8-.09,1.22s.38.38.38.71c0,.24-.33.33-.52.33-.52,0-.71-.47-.71-.89-.14-.71-1.04-.47-1.04-1.46v-.38c0-.38-.24-.85-.66-.85-.33,0-.47.09-.8.09-.38,0-.66-.09-.99-.24-.85-.47-2.26-.52-2.26-1.74,0-.14.05-.38.09-.71.38-1.46.75-2.02,1.74-3.01.52-.52.24-1.04,1.37-1.93.89-.71,1.04-1.55,1.79-2.07.75-.42,1.36-1.84,2.26-2.59.75-.52,4.75-4.42,4.99-5.04,0-.05-.05-.09-.09-.09-.33,0-1.08.38-1.41.52-.56.24-.99.52-1.32,1.04-.24.52-1.93.8-2.45,1.46-.33.56-2.68,1.98-3.3,2.07-.52.14-.94.28-1.18.8-.24.52-3.72,1.93-4.47,3.06-.75,1.18-3.01,2.07-4.14,2.82-.61.38-1.18.89-1.74,1.32l-3.34,2.73c-.89.71-2.12,1.93-3.25,1.93-.38,0-.85-.14-.85-.56,0-.57.52-1.04.94-1.27.71-.42,1.18-1.18,1.93-1.51,1.13-.47,1.88-1.6,3.11-1.98.94-.28,1.88-2.12,2.97-2.59,1.37-.47,1.69-1.74,2.68-2.5,1.08-.8,2.02-1.79,2.82-2.97.71-.99,1.84-1.51,2.54-2.59.52-.75,1.65-1.93,2.54-2.26.42-.09.94-1.84,2.02-2.45.75-.38,2.02-1.88,2.02-2.78,0-.14-.09-.24-.24-.24-.52,0-.99.24-1.51.38-1.18.28-1.84,1.32-3.29,1.32-1.32,0-2.17-.89-2.17-2.21,0-.75.28-1.22.28-1.93s-.47-1.04-1.08-1.04c-.75,0-3.2,1.18-3.58,1.79-.19.33-1.13.71-1.46,1.04-.28.24-.56.56-.8.89-.99,1.27-3.3,3.11-3.91,4.19-.33.56-1.18,1.98-1.74,2.26-.42.14-.56.75-.89,1.08-.61.52-.94,1.32-1.18,2.02-.14.38-.52.85-.94.85-.38,0-.52-.42-.52-.75,0-.71.61-1.84,1.22-2.21.71-.42.89-1.41,1.41-1.74.71-.42.99-1.08,1.51-1.65.71-.89,1.46-1.6,2.17-2.5,1.04-1.13,1.08-1.93,2.45-2.92.61-.52,2.5-1.37,2.87-1.88.61-.75,3.2-2.02,4.19-2.02.14,0,.19.05.33.05,1.65.42,1.79,1.65,1.79,2.97v.56c0,1.51.71,1.51,2.02,1.51.66,0,1.22-.19,1.69-.52.89-.56,1.69-.99,2.59-1.51.8-.38,1.93-1.55,2.82-1.55.33,0,.47.19.47.52,0,.52-.09.99-.66,1.13-.61.14-1.36,1.41-1.69,1.88-.89,1.27-2.17,2.02-3.06,3.29-.52.75-1.18,1.74-1.98,2.26-.99.61-1.41.8-2.12,1.88-.61.89-1.6,2.21-2.49,2.82-.56.42-2.78,2.35-2.78,3.06.05.05.09.05.14.05.38,0,1.93-1.41,2.49-1.65.61-.33,1.51-1.13,1.84-1.18.42-.14,1.08-.75,1.46-.99.33-.24.71-.42,1.04-.56,1.51-.75,2.78-2.07,4.28-2.68.94-.38,1.79-1.13,2.59-1.69,1.37-.94,2.64-1.88,4.1-2.78,1.08-.61,3.91-2.12,4.61-3.06,1.04-1.27,4.61-3.53,4.99-4.52.28-.56,1.98-.99,2.59-1.51.52-.33,1.08-.52,1.69-.52.71,0,1.18.19,1.18.89,0,1.27-1.27,2.21-2.35,2.73ZM229.91,113.15c-.52,0-.99.28-1.55.42-1.37.14-5.27,3.53-6.07,4.71-.52.89-1.55,1.74-1.55,2.82,0,.38.24.47.56.47.71,0,1.51-.38,2.12-.52.89-.24,1.79-.89,2.49-1.46.38-.33.85-.8,1.37-.94.38-.14,1.79-1.46,2.17-1.84.71-.61,1.27-1.41,1.27-2.35,0-.52-.19-1.32-.8-1.32Z"/><path class="cls-1" d="M249.96,120.35c-.28.24-.85.52-1.18.71-.33.19-1.27.66-1.51.71-.28.09-.47.19-.75.33-.47.24-.89.47-1.41.56-.38.09-.85.09-1.32.19-.38.05-.75.19-.99.33-.19.09-.38.14-.52.14-.24,0-.47-.05-.71-.05-.52,0-.89.19-1.41.19h-.19c-.52,0-1.18,0-1.6-.19-.33-.14-.85-.14-1.18-.14-.71-.05-1.08-.47-1.69-.61-.71-.14-1.22-1.04-1.22-1.79,0-.42.56-1.27.99-2.02.47-.89,1.27-1.84,1.79-2.02l.89-.75c.61-.52,1.32-1.08,2.07-1.51.61-.33,1.22-.61,1.88-.61.38,0,.71-.24,1.08-.24.05,0,.52.19.56.19.24.33.75.33.75.75,0,.75-1.27,2.59-1.98,2.73-.8.24-1.6.85-2.35,1.27-.8.42-1.41.66-2.26,1.08-.14.05-1.08.47-1.08.66,0,.47.24.75.66,1.04.89.57,2.17.85,2.87.85.52,0,.89-.05,1.41-.05,1.08,0,1.98-.28,3.06-.42.24-.05.61-.09.99-.24.47-.14.99-.38,1.46-.56.47-.24,1.98-.85,2.26-1.08.24-.14.42-.24.66-.24.19,0,.28.09.28.28,0,.24-.19.38-.33.52ZM241.67,115.31c-.42,0-2.21,1.18-2.64,1.51-.24.19-.66.56-.66.94.14,0,.33.05.47.05.52,0,.56-.47.94-.47.47,0,.94-1.13,1.79-1.13.24,0,.38-.71.38-.85l-.28-.05Z"/><path class="cls-1" d="M261.4,120.44c-.42.33-1.13.47-1.46.71s-.52.28-.89.33c-.38,0-1.84.56-2.07.71s-.52.24-.75.24c-.33,0-.89.14-1.22.14-.14,0-.33.05-.56.09-.8.33-.99.28-1.88.33-.52.05-1.46.24-1.98.24-.89,0-1.88-.71-1.88-1.65,0-.99.99-2.02,1.79-2.45,1.88-.99,2.82-2.68,4.66-3.67.38-.19.99-.99,1.32-.99s.33.56.33.75c0,.71-.42.89-.94,1.22-.19.05-.33.14-.42.19-.71.42-1.46,1.18-1.98,1.88-.52.66-2.02,1.79-2.02,2.64v.19c0,.19.28.28.52.28h.71c.42,0,.71.19,1.13.19.56,0,1.32-.19,2.12-.42.8-.24,1.55-.42,1.88-.42.42,0,1.13-.38,1.79-.61.42-.14.8-.38,1.13-.52.24-.14.52-.28.89-.28.19,0,.19.09.19.24,0,.28-.14.47-.38.66ZM262.05,107.45s-.19-.05-.38-.09c-.71-.24-.19-.75-.94-.99-.19-.05-.42-.19-.42-.38,0-.56,1.22-1.13,1.65-1.13.14,0,.28.09.42.33.14.42.38.75.38,1.18s-.19,1.08-.71,1.08Z"/><path class="cls-1" d="M285.4,120.07c.47-.14,1.51-.8,2.02-.8.14,0,.28.19.28.33,0,.05,0,.24-.28.42-.33.24-.61.47-1.32.8-.75.33-1.6.66-1.84.8-.52.14-1.04.28-1.55.66-.52.38-1.98.61-2.68.61-.56,0-1.84.09-2.4.09-.75,0-1.55-.8-1.55-1.51.05-.71.52-1.27.56-2.07,0-.38-.38-.71-.75-.71-.61,0-1.22.33-1.79.52-.85.19-1.27.38-1.84.99-.52.52-2.17,1.27-3.67,1.79-.85.28-1.65.52-2.12.52-.66,0-1.08-.28-1.08-.99l.09-.52c.24-.89.24-1.69.66-2.59.09-.14.14-.28.14-.61,0-.24-.14-.33-.33-.33s-1.18.94-2.31,1.6c-.71.38-1.04.56-1.13.71-.33.33-1.51.94-1.93.94-.33,0-.47-.14-.47-.42,0-.09.05-.19.09-.33.14-.19.66-.28.89-.47.75-.52.99-.52,1.41-.94,1.13-.66,1.6-1.08,2.64-1.93.94-.8.61-.8,1.37-1.18.52-.19,1.22-.66,1.74-.66.61,0,.8,1.08.8,1.74v.24c-.05,1.08-.94,1.79-1.04,2.92,0,.42.19.61.56.61s.75-.19,1.08-.33c.75-.33,1.41-.71,2.02-1.13.42-.24.8-.61,1.32-.75.71-.19,1.18-.66,1.88-.8.75-.14,2.02-.52,2.59-.89.52-.42,1.6-.94,2.21-.94.56,0,.75.52.75,1.04l-.09.52c-.24.61.09.89-.71,1.22-.8.52-.33.94-.71,1.27-.19.19-.28.52-.28.8,0,.14.05.42.09.42,0,.56.56.66,1.08.66.42,0,.99.09,1.51.09.42,0,1.13-.38,1.65-.52.42-.05.75-.19,1.08-.28.52-.19.85-.47,1.32-.61Z"/><path class="cls-1" d="M301.78,120.35c-.28.24-.85.52-1.18.71-.33.19-1.27.66-1.51.71-.28.09-.47.19-.75.33-.47.24-.89.47-1.41.56-.38.09-.85.09-1.32.19-.38.05-.75.19-.99.33-.19.09-.38.14-.52.14-.24,0-.47-.05-.71-.05-.52,0-.89.19-1.41.19h-.19c-.52,0-1.18,0-1.6-.19-.33-.14-.85-.14-1.18-.14-.71-.05-1.08-.47-1.69-.61-.71-.14-1.22-1.04-1.22-1.79,0-.42.56-1.27.99-2.02.47-.89,1.27-1.84,1.79-2.02l.89-.75c.61-.52,1.32-1.08,2.07-1.51.61-.33,1.22-.61,1.88-.61.38,0,.71-.24,1.08-.24.05,0,.52.19.56.19.24.33.75.33.75.75,0,.75-1.27,2.59-1.98,2.73-.8.24-1.6.85-2.35,1.27-.8.42-1.41.66-2.26,1.08-.14.05-1.08.47-1.08.66,0,.47.24.75.66,1.04.89.57,2.17.85,2.87.85.52,0,.89-.05,1.41-.05,1.08,0,1.98-.28,3.06-.42.24-.05.61-.09.99-.24.47-.14.99-.38,1.46-.56.47-.24,1.98-.85,2.26-1.08.24-.14.42-.24.66-.24.19,0,.28.09.28.28,0,.24-.19.38-.33.52ZM293.49,115.31c-.42,0-2.21,1.18-2.64,1.51-.24.19-.66.56-.66.94.14,0,.33.05.47.05.52,0,.56-.47.94-.47.47,0,.94-1.13,1.79-1.13.24,0,.38-.71.38-.85l-.28-.05Z"/></g></svg>