<?xml version="1.0" encoding="UTF-8" standalone="no"?>
<!DOCTYPE svg PUBLIC "-//W3C//DTD SVG 1.1//EN" "http://www.w3.org/Graphics/SVG/1.1/DTD/svg11.dtd">
<svg width="100%" height="100%" viewBox="0 0 3512 474" version="1.1" xmlns="http://www.w3.org/2000/svg" xmlns:xlink="http://www.w3.org/1999/xlink" xml:space="preserve" xmlns:serif="http://www.serif.com/" style="fill-rule:evenodd;clip-rule:evenodd;stroke-linejoin:round;stroke-miterlimit:2;">
    <g transform="matrix(1,0,0,1,-177.098,-1115.91)">
        <g>
            <g transform="matrix(42.0729,0,0,42.0729,-9527.16,-18491.2)">
                <path d="M239.904,473.525C239.528,473.525 239.313,473.272 239.26,472.767C239.243,472.597 239.234,472.426 239.234,472.256C239.234,471.88 239.288,471.481 239.397,471.058C239.506,470.635 239.65,470.201 239.829,469.754C240.008,469.308 240.21,468.859 240.437,468.406C240.663,467.954 240.893,467.514 241.128,467.085C241.169,467.02 241.19,466.964 241.19,466.918C241.19,466.876 241.175,466.856 241.146,466.856C241.034,466.856 240.761,467.047 240.326,467.428C240.091,467.634 239.871,467.853 239.666,468.085C239.46,468.317 239.275,468.536 239.111,468.741C238.887,469.029 238.698,469.274 238.542,469.477C238.387,469.679 238.268,469.845 238.186,469.974C238.08,470.133 237.952,470.34 237.802,470.596C237.653,470.851 237.478,471.152 237.278,471.499C237.272,471.504 237.193,471.686 237.04,472.045C236.941,472.285 236.858,472.406 236.794,472.406C236.694,472.394 236.604,472.355 236.525,472.287C236.446,472.219 236.412,472.145 236.424,472.062C236.453,471.81 236.532,471.484 236.662,471.084C236.791,470.685 236.973,470.209 237.208,469.657C237.648,468.6 237.869,468.019 237.869,467.913C237.869,467.837 237.81,467.798 237.692,467.798C237.264,467.798 236.556,468.383 235.569,469.552C234.588,470.72 234.054,471.572 233.966,472.106C233.954,472.189 233.907,472.256 233.825,472.309C233.743,472.362 233.658,472.388 233.569,472.388C233.475,472.388 233.428,472.356 233.428,472.291C233.428,471.921 233.716,471.137 234.292,469.939C234.721,469.058 234.973,468.527 235.049,468.345C235.167,468.057 235.261,467.794 235.331,467.556C235.402,467.318 235.437,467.126 235.437,466.979C235.437,466.809 235.396,466.7 235.314,466.653C235.231,466.606 235.096,466.583 234.908,466.583C234.327,466.583 233.646,466.765 232.865,467.129C232.63,467.241 232.409,467.37 232.204,467.517C231.998,467.663 231.805,467.831 231.622,468.019C231.235,468.424 231.041,468.791 231.041,469.12C231.041,469.231 231.056,469.333 231.085,469.424C231.114,469.515 231.173,469.596 231.261,469.666C231.332,469.725 231.436,469.77 231.574,469.803C231.712,469.835 231.863,469.851 232.028,469.851C232.286,469.851 232.55,469.816 232.821,469.745C232.832,469.74 232.85,469.737 232.873,469.737C232.897,469.737 232.909,469.745 232.909,469.763C232.909,469.81 232.862,469.858 232.768,469.908C232.674,469.958 232.555,470.001 232.411,470.036C232.267,470.071 232.116,470.089 231.957,470.089C231.658,470.089 231.376,470.039 231.112,469.939C230.806,469.828 230.653,469.599 230.653,469.252C230.653,468.988 230.739,468.709 230.909,468.415C231.062,468.157 231.317,467.887 231.675,467.605C231.881,467.446 232.129,467.289 232.42,467.133C232.71,466.978 233.019,466.838 233.345,466.715C233.671,466.592 233.994,466.493 234.314,466.42C234.634,466.346 234.926,466.31 235.19,466.31C235.695,466.31 235.948,466.498 235.948,466.873C235.948,467.061 235.875,467.346 235.728,467.728C235.581,468.11 235.378,468.571 235.12,469.111C234.938,469.493 234.762,469.87 234.591,470.243C234.421,470.616 234.242,470.993 234.054,471.375C234.06,471.387 234.365,470.941 234.97,470.036C235.123,469.813 235.306,469.574 235.521,469.318C235.735,469.063 235.986,468.797 236.274,468.521C236.797,468.016 237.196,467.687 237.472,467.534C237.631,467.446 237.789,467.402 237.948,467.402C238.189,467.402 238.309,467.525 238.309,467.772C238.309,467.86 238.297,467.948 238.274,468.036C238.127,468.395 237.954,468.834 237.754,469.353C237.554,469.873 237.325,470.477 237.067,471.164C237.055,471.199 237.049,471.222 237.049,471.234C237.049,471.24 237.052,471.243 237.058,471.243C237.087,471.243 237.316,470.905 237.745,470.23C237.986,469.842 238.193,469.521 238.366,469.265C238.54,469.01 238.676,468.823 238.776,468.706C239.592,467.696 240.259,467 240.776,466.618C240.987,466.459 241.248,466.38 241.56,466.38C241.824,466.38 241.956,466.462 241.956,466.627C241.956,466.75 241.88,466.906 241.727,467.094C241.169,467.798 240.673,468.75 240.238,469.948C240.039,470.506 239.882,470.986 239.767,471.388C239.652,471.791 239.595,472.162 239.595,472.503C239.595,472.808 239.626,473.014 239.688,473.119C239.749,473.225 239.839,473.278 239.956,473.278C240.039,473.278 240.128,473.265 240.225,473.238C240.322,473.212 240.429,473.178 240.547,473.137C240.57,473.131 240.589,473.127 240.604,473.124C240.619,473.121 240.632,473.119 240.644,473.119C240.673,473.119 240.688,473.128 240.688,473.146C240.688,473.205 240.602,473.278 240.432,473.366C240.25,473.472 240.074,473.525 239.904,473.525Z" style="fill:rgb(75,75,75);fill-rule:nonzero;"/>
                <path d="M242.511,472.15C242.358,472.115 242.215,472.033 242.08,471.904C242.05,471.874 242.035,471.83 242.035,471.772C242.035,471.537 242.141,471.208 242.353,470.785C242.188,470.996 242.053,471.17 241.947,471.305C241.842,471.44 241.762,471.537 241.71,471.595C241.48,471.86 241.29,472.018 241.137,472.071C241.084,472.089 241.031,472.098 240.978,472.098C240.761,472.098 240.635,472.009 240.599,471.833C240.576,471.78 240.564,471.707 240.564,471.613C240.564,471.325 240.755,470.776 241.137,469.966C241.225,469.778 241.325,469.684 241.436,469.684C241.519,469.684 241.598,469.745 241.674,469.869L241.304,470.6C241.175,470.852 241.077,471.07 241.009,471.252C240.942,471.434 240.908,471.575 240.908,471.675C240.908,471.816 240.955,471.886 241.049,471.886C241.201,471.886 241.448,471.689 241.789,471.296C241.971,471.084 242.149,470.85 242.322,470.591C242.495,470.333 242.667,470.051 242.837,469.745C242.872,469.675 242.925,469.64 242.996,469.64C243.054,469.64 243.112,469.665 243.167,469.715C243.223,469.764 243.245,469.801 243.234,469.825C242.664,471.005 242.379,471.684 242.379,471.86C242.379,471.93 242.403,471.96 242.45,471.948C242.925,471.907 243.436,471.487 243.982,470.688C244.012,470.635 244.044,470.606 244.079,470.6C244.115,470.588 244.132,470.6 244.132,470.635C244.132,470.659 244.12,470.691 244.097,470.732C243.838,471.137 243.53,471.493 243.172,471.798C242.855,472.062 242.635,472.18 242.511,472.15Z" style="fill:rgb(75,75,75);fill-rule:nonzero;"/>
                <path d="M243.604,472.45C243.58,472.45 243.568,472.441 243.568,472.424C243.568,472.347 243.768,472.206 244.167,472.001C244.267,471.954 244.358,471.905 244.44,471.855C244.523,471.805 244.593,471.76 244.652,471.719C245.01,471.454 245.189,471.225 245.189,471.032C245.189,470.885 245.045,470.811 244.758,470.811C244.088,470.8 243.753,470.653 243.753,470.371C243.753,470.248 243.806,470.13 243.912,470.018C244.035,469.878 244.241,469.742 244.529,469.613C244.84,469.472 245.125,469.402 245.383,469.402C245.612,469.402 245.785,469.458 245.903,469.569C245.956,469.622 245.982,469.687 245.982,469.763C245.982,469.845 245.956,469.919 245.903,469.983C245.85,470.048 245.791,470.08 245.727,470.08C245.609,470.08 245.545,470.001 245.533,469.842C245.533,469.731 245.515,469.666 245.48,469.648C245.445,469.631 245.351,469.622 245.198,469.622C245.004,469.622 244.787,469.687 244.546,469.816C244.258,469.963 244.123,470.139 244.141,470.344C244.153,470.462 244.376,470.521 244.81,470.521C245.404,470.521 245.7,470.665 245.7,470.952C245.7,471.264 245.445,471.575 244.934,471.886C244.611,472.086 244.217,472.262 243.753,472.415C243.689,472.438 243.639,472.45 243.604,472.45Z" style="fill:rgb(75,75,75);fill-rule:nonzero;"/>
                <path d="M247.903,468.997C247.809,469.008 247.707,468.997 247.599,468.961C247.49,468.926 247.436,468.882 247.436,468.829C247.436,468.794 247.448,468.757 247.471,468.719C247.494,468.681 247.524,468.641 247.559,468.6C247.659,468.477 247.718,468.399 247.735,468.367C247.753,468.334 247.785,468.318 247.832,468.318C247.967,468.318 248.073,468.383 248.149,468.512C248.155,468.518 248.158,468.53 248.158,468.547C248.158,468.6 248.129,468.676 248.07,468.776C247.994,468.917 247.938,468.991 247.903,468.997ZM246.572,472.177C246.232,472.1 246.061,471.965 246.061,471.772C246.061,471.678 246.176,471.346 246.405,470.776C246.47,470.665 246.556,470.502 246.665,470.287C246.774,470.073 246.91,469.81 247.075,469.499C247.104,469.452 247.169,469.428 247.268,469.428C247.356,469.428 247.443,469.441 247.528,469.468C247.613,469.494 247.647,469.519 247.63,469.543C246.854,470.641 246.467,471.402 246.467,471.824C246.467,471.948 246.508,472.009 246.59,472.009C246.749,472.009 246.998,471.898 247.339,471.675C247.744,471.399 248.085,471.067 248.361,470.679C248.419,470.585 248.478,470.538 248.537,470.538C248.555,470.538 248.563,470.547 248.563,470.565C248.563,470.594 248.537,470.65 248.484,470.732C248.226,471.137 247.867,471.496 247.409,471.807C246.998,472.089 246.719,472.212 246.572,472.177Z" style="fill:rgb(75,75,75);fill-rule:nonzero;"/>
                <path d="M250.369,472.846C250.211,472.846 250.058,472.791 249.911,472.679C249.471,472.332 249.13,471.684 248.889,470.732C248.531,471.143 248.196,471.61 247.885,472.133C247.873,472.145 247.841,472.15 247.788,472.15C247.53,472.15 247.412,472.115 247.436,472.045C247.553,471.728 247.69,471.394 247.845,471.045C248.001,470.695 248.176,470.333 248.37,469.957C249.016,468.694 249.506,467.939 249.841,467.693C249.911,467.64 250.008,467.613 250.132,467.613C250.337,467.613 250.44,467.655 250.44,467.737C250.44,467.754 250.422,467.778 250.387,467.807C249.559,468.424 248.86,469.499 248.29,471.032L248.836,470.503C248.813,470.421 248.794,470.342 248.779,470.265C248.765,470.189 248.757,470.115 248.757,470.045C248.757,469.986 248.781,469.935 248.828,469.891C248.875,469.847 248.925,469.825 248.977,469.825C249.019,469.825 249.054,469.848 249.083,469.895C249.113,469.948 249.192,469.986 249.321,470.01C249.503,469.839 249.668,469.697 249.814,469.582C249.961,469.468 250.093,469.381 250.211,469.323C250.416,469.217 250.578,469.164 250.695,469.164C250.86,469.164 250.942,469.267 250.942,469.472C250.942,469.643 250.842,469.798 250.642,469.939C250.443,470.08 250.208,470.174 249.938,470.221C249.844,470.239 249.738,470.248 249.621,470.248C249.579,470.248 249.54,470.246 249.502,470.243C249.463,470.24 249.421,470.236 249.374,470.23L249.259,470.336C249.306,470.612 249.35,470.851 249.391,471.054C249.433,471.256 249.474,471.422 249.515,471.551C249.668,472.056 249.867,472.403 250.114,472.591C250.208,472.667 250.317,472.705 250.44,472.705C250.681,472.705 250.848,472.609 250.942,472.415C250.965,472.356 250.998,472.321 251.039,472.309C251.074,472.291 251.092,472.3 251.092,472.335C251.092,472.359 251.083,472.385 251.065,472.415C250.918,472.702 250.687,472.846 250.369,472.846ZM249.594,470.036C249.653,470.036 249.712,470.027 249.77,470.01C249.87,469.98 249.97,469.939 250.07,469.886C250.17,469.833 250.27,469.775 250.369,469.71C250.569,469.581 250.669,469.484 250.669,469.419C250.669,469.402 250.66,469.393 250.642,469.393C250.513,469.393 250.173,469.599 249.621,470.01L249.594,470.036Z" style="fill:rgb(75,75,75);fill-rule:nonzero;"/>
                <path d="M252.167,472.23C251.937,472.23 251.761,472.133 251.638,471.939C251.632,471.933 251.629,471.913 251.629,471.877C251.629,471.736 251.72,471.446 251.902,471.005C251.984,470.805 252.068,470.616 252.153,470.437C252.238,470.258 252.325,470.086 252.413,469.922C252.907,469.011 253.353,468.292 253.752,467.763C253.846,467.646 254.025,467.599 254.29,467.622C254.348,467.628 254.378,467.655 254.378,467.702C254.378,467.766 254.357,467.81 254.316,467.834C253.834,468.204 253.191,469.179 252.387,470.758C252.416,470.729 252.481,470.665 252.581,470.565C252.68,470.465 252.821,470.327 253.003,470.151C253.462,469.71 253.793,469.49 253.999,469.49C254.04,469.502 254.096,469.512 254.166,469.521C254.237,469.53 254.319,469.54 254.413,469.552C254.519,469.552 254.572,469.622 254.572,469.763C254.572,470.157 254.343,470.623 253.884,471.164C253.649,471.44 253.382,471.678 253.083,471.877C252.736,472.112 252.431,472.23 252.167,472.23ZM252.061,471.948C252.243,471.948 252.487,471.848 252.792,471.648C252.951,471.548 253.094,471.44 253.224,471.322C253.353,471.205 253.464,471.082 253.558,470.952C253.946,470.43 254.14,470.054 254.14,469.825C254.14,469.737 254.102,469.693 254.025,469.693C253.808,469.693 253.391,469.995 252.774,470.6C252.199,471.187 251.911,471.592 251.911,471.816C251.911,471.904 251.961,471.948 252.061,471.948Z" style="fill:rgb(75,75,75);fill-rule:nonzero;"/>
                <path d="M254.906,472.159C254.736,472.159 254.586,472.118 254.457,472.036C254.287,471.918 254.202,471.748 254.202,471.525C254.202,471.284 254.304,470.99 254.51,470.644C254.786,470.192 255.191,469.795 255.726,469.455C255.861,469.367 255.996,469.323 256.131,469.323C256.307,469.323 256.433,469.378 256.51,469.49C256.557,469.555 256.58,469.628 256.58,469.71C256.58,469.957 256.38,470.227 255.981,470.521C255.864,470.603 255.739,470.678 255.607,470.745C255.475,470.813 255.332,470.861 255.179,470.891L254.801,470.97C254.66,471.222 254.589,471.434 254.589,471.604C254.589,471.839 254.727,471.957 255.003,471.957C255.221,471.957 255.485,471.866 255.796,471.684C256.213,471.443 256.571,471.108 256.871,470.679C256.918,470.609 256.962,470.573 257.003,470.573C257.021,470.573 257.029,470.585 257.029,470.609C257.029,470.638 257.009,470.682 256.968,470.741C256.398,471.598 255.755,472.068 255.038,472.15C255.015,472.156 254.993,472.159 254.972,472.159L254.906,472.159ZM254.906,470.82C255.071,470.82 255.282,470.747 255.541,470.6C255.905,470.394 256.16,470.13 256.307,469.807C256.348,469.725 256.369,469.657 256.369,469.604C256.369,469.552 256.348,469.525 256.307,469.525C256.231,469.525 256.075,469.619 255.84,469.807C255.67,469.954 255.504,470.111 255.342,470.278C255.181,470.446 255.027,470.623 254.88,470.811C254.874,470.817 254.883,470.82 254.906,470.82Z" style="fill:rgb(75,75,75);fill-rule:nonzero;"/>
                <path d="M255.911,474.802C255.687,474.802 255.576,474.691 255.576,474.467C255.576,474.285 255.655,474.068 255.814,473.815C255.914,473.657 256.041,473.488 256.197,473.309C256.353,473.13 256.539,472.94 256.756,472.741C257.144,472.365 257.555,472.039 257.99,471.763C258.043,471.634 258.101,471.475 258.166,471.287C258.23,471.099 258.304,470.876 258.386,470.618C258.368,470.659 258.305,470.742 258.197,470.869C258.088,470.995 257.931,471.17 257.725,471.393C257.232,471.939 256.883,472.186 256.677,472.133C256.36,472.051 256.201,471.874 256.201,471.604C256.201,471.34 256.357,470.993 256.668,470.565C256.756,470.447 256.865,470.33 256.994,470.212C257.123,470.095 257.27,469.98 257.435,469.869C257.852,469.581 258.245,469.437 258.615,469.437C258.844,469.437 259.053,469.496 259.241,469.613C259.294,469.648 259.32,469.693 259.32,469.745C259.32,469.798 259.308,469.825 259.285,469.825C259.279,469.825 259.273,469.822 259.267,469.816C259.15,469.681 258.988,469.613 258.783,469.613C258.542,469.613 258.272,469.704 257.972,469.886C257.673,470.068 257.397,470.312 257.144,470.618C256.75,471.099 256.554,471.475 256.554,471.745C256.554,471.869 256.601,471.951 256.695,471.992C256.824,472.045 257.15,471.783 257.673,471.208C257.878,470.979 258.056,470.773 258.206,470.591C258.355,470.409 258.474,470.253 258.562,470.124C258.603,470.065 258.662,470.036 258.739,470.036C258.879,470.036 258.95,470.089 258.95,470.195C258.95,470.218 258.941,470.245 258.924,470.274C258.882,470.391 258.827,470.549 258.756,470.745C258.686,470.942 258.6,471.178 258.501,471.454C258.689,471.343 258.838,471.287 258.95,471.287C258.997,471.287 259.02,471.299 259.02,471.322C259.02,471.381 258.947,471.437 258.8,471.49C258.741,471.513 258.678,471.54 258.611,471.569C258.543,471.598 258.471,471.634 258.395,471.675C257.984,472.697 257.488,473.539 256.906,474.203C256.554,474.602 256.222,474.802 255.911,474.802ZM256.096,474.617C256.207,474.617 256.342,474.526 256.501,474.344C257.024,473.757 257.482,472.987 257.875,472.036C257.094,472.617 256.513,473.222 256.131,473.851C256.002,474.056 255.937,474.238 255.937,474.397C255.937,474.544 255.99,474.617 256.096,474.617Z" style="fill:rgb(75,75,75);fill-rule:nonzero;"/>
                <path d="M260.976,468.997C260.882,469.008 260.781,468.997 260.672,468.961C260.564,468.926 260.509,468.882 260.509,468.829C260.509,468.794 260.521,468.757 260.544,468.719C260.568,468.681 260.597,468.641 260.633,468.6C260.732,468.477 260.791,468.399 260.809,468.367C260.826,468.334 260.859,468.318 260.906,468.318C261.041,468.318 261.146,468.383 261.223,468.512C261.229,468.518 261.232,468.53 261.232,468.547C261.232,468.6 261.202,468.676 261.144,468.776C261.067,468.917 261.011,468.991 260.976,468.997ZM259.646,472.177C259.305,472.1 259.135,471.965 259.135,471.772C259.135,471.678 259.249,471.346 259.479,470.776C259.543,470.665 259.63,470.502 259.738,470.287C259.847,470.073 259.984,469.81 260.148,469.499C260.177,469.452 260.242,469.428 260.342,469.428C260.43,469.428 260.517,469.441 260.602,469.468C260.687,469.494 260.721,469.519 260.703,469.543C259.928,470.641 259.54,471.402 259.54,471.824C259.54,471.948 259.581,472.009 259.664,472.009C259.822,472.009 260.072,471.898 260.412,471.675C260.818,471.399 261.158,471.067 261.434,470.679C261.493,470.585 261.552,470.538 261.61,470.538C261.628,470.538 261.637,470.547 261.637,470.565C261.637,470.594 261.61,470.65 261.558,470.732C261.299,471.137 260.941,471.496 260.483,471.807C260.072,472.089 259.793,472.212 259.646,472.177Z" style="fill:rgb(75,75,75);fill-rule:nonzero;"/>
                <path d="M262.923,472.177C262.794,472.189 262.671,472.155 262.553,472.076C262.436,471.996 262.377,471.907 262.377,471.807C262.377,471.625 262.55,471.275 262.897,470.758C263.278,470.189 263.469,469.86 263.469,469.772C263.469,469.719 263.443,469.69 263.39,469.684C263.22,469.695 262.955,469.866 262.597,470.195C262.086,470.67 261.607,471.316 261.161,472.133C261.149,472.145 261.117,472.15 261.064,472.15C260.812,472.15 260.697,472.115 260.721,472.045C260.785,471.874 260.898,471.619 261.06,471.278C261.221,470.938 261.431,470.509 261.69,469.992C261.866,469.646 262.045,469.472 262.227,469.472C262.286,469.472 262.324,469.487 262.342,469.516C262.353,469.534 262.23,469.787 261.972,470.274C261.848,470.509 261.751,470.695 261.681,470.833C261.61,470.971 261.561,471.061 261.531,471.102C261.631,471.002 261.75,470.879 261.888,470.732C262.026,470.585 262.186,470.415 262.368,470.221C262.656,469.898 262.973,469.657 263.32,469.499C263.402,469.463 263.496,469.446 263.601,469.446C263.842,469.446 263.963,469.534 263.963,469.71C263.963,469.822 263.907,469.954 263.795,470.107C263.161,470.993 262.844,471.59 262.844,471.895C262.844,471.96 262.864,472.001 262.905,472.018C262.999,472.059 263.231,471.962 263.601,471.728C264.036,471.446 264.406,471.096 264.711,470.679C264.776,470.591 264.835,470.547 264.888,470.547C264.905,470.547 264.914,470.553 264.914,470.565C264.914,470.594 264.888,470.65 264.835,470.732C264.576,471.137 264.218,471.496 263.76,471.807C263.349,472.077 263.07,472.2 262.923,472.177Z" style="fill:rgb(75,75,75);fill-rule:nonzero;"/>
                <path d="M266.05,472.177C265.921,472.189 265.798,472.155 265.68,472.076C265.563,471.996 265.504,471.907 265.504,471.807C265.504,471.625 265.678,471.275 266.024,470.758C266.406,470.189 266.597,469.86 266.597,469.772C266.597,469.719 266.57,469.69 266.517,469.684C266.347,469.695 266.083,469.866 265.725,470.195C265.214,470.67 264.735,471.316 264.289,472.133C264.277,472.145 264.245,472.15 264.192,472.15C263.939,472.15 263.825,472.115 263.848,472.045C263.913,471.874 264.026,471.619 264.187,471.278C264.349,470.938 264.559,470.509 264.817,469.992C264.993,469.646 265.172,469.472 265.355,469.472C265.413,469.472 265.451,469.487 265.469,469.516C265.481,469.534 265.357,469.787 265.099,470.274C264.976,470.509 264.879,470.695 264.808,470.833C264.738,470.971 264.688,471.061 264.659,471.102C264.758,471.002 264.877,470.879 265.015,470.732C265.153,470.585 265.313,470.415 265.495,470.221C265.783,469.898 266.1,469.657 266.447,469.499C266.529,469.463 266.623,469.446 266.729,469.446C266.97,469.446 267.09,469.534 267.09,469.71C267.09,469.822 267.034,469.954 266.923,470.107C266.288,470.993 265.971,471.59 265.971,471.895C265.971,471.96 265.992,472.001 266.033,472.018C266.127,472.059 266.359,471.962 266.729,471.728C267.163,471.446 267.533,471.096 267.839,470.679C267.903,470.591 267.962,470.547 268.015,470.547C268.033,470.547 268.041,470.553 268.041,470.565C268.041,470.594 268.015,470.65 267.962,470.732C267.704,471.137 267.345,471.496 266.887,471.807C266.476,472.077 266.197,472.2 266.05,472.177Z" style="fill:rgb(75,75,75);fill-rule:nonzero;"/>
                <path d="M267.971,472.239C267.519,472.139 267.293,471.933 267.293,471.622C267.293,471.534 267.307,471.429 267.337,471.309C267.366,471.189 267.413,471.055 267.478,470.908L268.226,469.226C268.138,469.237 268.041,469.249 267.936,469.261C267.83,469.273 267.713,469.284 267.583,469.296C267.56,469.296 267.548,469.276 267.548,469.234C267.548,469.152 267.563,469.105 267.592,469.093L268.332,468.988L268.905,467.825C268.958,467.719 269.122,467.666 269.398,467.666C269.527,467.666 269.583,467.681 269.566,467.71C269.436,467.916 269.306,468.123 269.173,468.331C269.041,468.54 268.911,468.747 268.781,468.953C268.799,468.947 268.837,468.941 268.896,468.935C268.955,468.929 269.031,468.923 269.125,468.917C269.196,468.911 269.263,468.907 269.328,468.904C269.392,468.901 269.454,468.9 269.513,468.9C269.759,468.9 269.877,468.911 269.865,468.935C269.824,468.976 269.425,469.055 268.667,469.173C268.027,470.383 267.707,471.237 267.707,471.736C267.707,471.918 267.76,472.027 267.865,472.062C267.947,472.086 268.156,471.977 268.491,471.736C268.685,471.595 268.861,471.441 269.019,471.274C269.178,471.106 269.322,470.929 269.451,470.741C269.492,470.682 269.53,470.653 269.566,470.653C269.589,470.653 269.601,470.665 269.601,470.688C269.601,470.712 269.586,470.747 269.557,470.794C269.334,471.152 269.037,471.49 268.667,471.807C268.309,472.118 268.077,472.262 267.971,472.239Z" style="fill:rgb(75,75,75);fill-rule:nonzero;"/>
                <path d="M269.151,473.516L269.24,473.366C269.31,473.278 269.369,473.202 269.416,473.137C269.463,473.072 269.498,473.02 269.521,472.979C269.639,472.808 269.698,472.667 269.698,472.556C269.698,472.456 269.645,472.377 269.539,472.318C269.433,472.259 269.378,472.215 269.372,472.186L269.372,472.124C269.372,472.054 269.386,472.001 269.416,471.965C269.428,471.942 269.451,471.918 269.486,471.895C269.521,471.871 269.568,471.839 269.627,471.798C269.645,471.78 269.674,471.772 269.715,471.772C269.803,471.772 269.89,471.795 269.975,471.842C270.06,471.889 270.112,471.945 270.129,472.009L270.129,472.098C270.129,472.186 270.104,472.294 270.054,472.424C270.005,472.553 269.927,472.7 269.821,472.864C269.58,473.257 269.357,473.475 269.151,473.516Z" style="fill:rgb(75,75,75);fill-rule:nonzero;"/>
                <path d="M272.288,472.256C272.258,472.256 272.214,472.227 272.156,472.168C272.126,472.139 272.112,472.071 272.112,471.965C272.112,471.748 272.158,471.478 272.252,471.155C272.311,470.967 272.374,470.791 272.442,470.626C272.509,470.462 272.584,470.309 272.667,470.168C272.802,469.945 272.94,469.833 273.081,469.833C273.151,469.833 273.213,469.858 273.266,469.908C273.318,469.958 273.345,470.01 273.345,470.063C273.345,470.08 273.342,470.092 273.336,470.098C273.248,470.18 273.101,470.362 272.896,470.644C272.796,470.814 272.705,470.999 272.622,471.199C272.54,471.399 272.47,471.616 272.411,471.851C272.505,471.704 272.633,471.54 272.794,471.358C272.956,471.175 273.154,470.976 273.389,470.758C273.571,470.588 273.743,470.434 273.904,470.296C274.066,470.158 274.22,470.036 274.367,469.93C274.367,469.925 274.37,469.922 274.376,469.922L274.376,469.913C274.499,469.737 274.66,469.648 274.86,469.648C274.936,469.648 274.975,469.672 274.975,469.719C274.975,469.742 274.96,469.775 274.931,469.816C274.76,469.969 274.584,470.245 274.402,470.644C274.214,471.073 274.12,471.41 274.12,471.657C274.12,471.857 274.196,471.957 274.349,471.957C274.666,471.957 274.995,471.798 275.336,471.481C275.788,471.064 276.052,470.5 276.129,469.789C276.158,469.578 276.226,469.463 276.331,469.446L276.358,469.446C276.428,469.446 276.475,469.475 276.499,469.534L276.525,469.675C276.513,470.145 276.261,470.67 275.767,471.252C275.257,471.857 274.778,472.159 274.332,472.159C273.95,472.159 273.759,471.924 273.759,471.454C273.759,471.12 273.873,470.75 274.102,470.344C273.357,470.92 272.784,471.534 272.385,472.186C272.355,472.233 272.323,472.256 272.288,472.256Z" style="fill:rgb(75,75,75);fill-rule:nonzero;"/>
                <path d="M276.983,472.186C276.554,472.186 276.34,471.921 276.34,471.393C276.34,470.864 276.552,470.359 276.974,469.878C276.98,469.872 276.977,469.85 276.966,469.811C276.954,469.773 276.948,469.745 276.948,469.728C276.948,469.693 276.96,469.666 276.983,469.648C277.189,469.484 277.43,469.402 277.706,469.402C277.782,469.402 277.844,469.416 277.891,469.446C277.949,469.469 278.005,469.493 278.058,469.516C278.111,469.54 278.161,469.566 278.208,469.596C278.431,469.731 278.587,469.872 278.675,470.018C278.821,470.013 278.945,470.007 279.045,470.001C279.145,469.995 279.221,469.989 279.274,469.983L279.309,469.983C279.362,469.983 279.388,470.004 279.388,470.045C279.388,470.057 279.377,470.065 279.353,470.071C279.288,470.083 279.205,470.098 279.102,470.115C278.999,470.133 278.874,470.151 278.728,470.168C278.745,470.209 278.754,470.256 278.754,470.309C278.754,470.35 278.751,470.38 278.745,470.397C278.657,470.873 278.425,471.29 278.049,471.648C277.685,472.007 277.33,472.186 276.983,472.186ZM278.463,470.018C278.369,469.872 278.184,469.798 277.908,469.798C277.697,469.798 277.559,469.822 277.494,469.869C277.477,469.875 277.459,469.886 277.441,469.904C277.424,469.922 277.403,469.942 277.38,469.966C277.709,470.007 278.07,470.024 278.463,470.018ZM277.01,472.045C277.268,472.045 277.565,471.86 277.899,471.49C278.24,471.12 278.443,470.761 278.507,470.415C278.513,470.386 278.518,470.361 278.521,470.34C278.523,470.319 278.525,470.3 278.525,470.283C278.525,470.248 278.519,470.212 278.507,470.177C278.396,470.183 278.281,470.186 278.164,470.186L277.49,470.186C277.393,470.186 277.306,470.183 277.23,470.177C276.995,470.494 276.848,470.75 276.789,470.943C276.719,471.161 276.684,471.369 276.684,471.569C276.684,471.886 276.792,472.045 277.01,472.045Z" style="fill:rgb(75,75,75);fill-rule:nonzero;"/>
                <path d="M281.996,472.908C281.92,472.908 281.845,472.887 281.771,472.846C281.698,472.805 281.658,472.758 281.652,472.705C281.67,472.347 282.09,471.366 282.912,469.763C283.728,468.201 284.137,467.229 284.137,466.847C284.137,466.459 283.899,466.266 283.423,466.266C282.724,466.266 281.875,466.589 280.877,467.235C279.843,467.898 279.327,468.494 279.327,469.023C279.327,469.27 279.465,469.469 279.741,469.622C279.876,469.698 280.055,469.737 280.278,469.737C280.46,469.737 280.677,469.71 280.93,469.657C281.059,469.628 281.156,469.606 281.221,469.591C281.285,469.577 281.32,469.569 281.326,469.569C281.344,469.569 281.353,469.572 281.353,469.578C281.353,469.596 281.318,469.631 281.247,469.684C281.065,469.831 280.751,469.904 280.304,469.904C280.052,469.904 279.814,469.869 279.591,469.798C279.209,469.663 279.018,469.416 279.018,469.058C279.018,468.823 279.106,468.556 279.283,468.257C279.541,467.816 280.122,467.34 281.027,466.829C281.972,466.295 282.78,466.028 283.449,466.028C284.184,466.028 284.551,466.389 284.551,467.111C284.551,467.511 284.401,468.016 284.101,468.627C284.043,468.738 283.925,468.951 283.749,469.265C283.573,469.579 283.338,469.989 283.044,470.494C282.809,470.894 282.613,471.256 282.454,471.582C282.295,471.908 282.172,472.194 282.084,472.441L282.339,472.168C282.416,472.086 282.624,471.854 282.965,471.472C283.306,471.09 283.778,470.556 284.383,469.869C285.117,469.035 285.705,468.462 286.145,468.151C286.245,468.08 286.407,468.045 286.63,468.045C286.888,468.045 286.985,468.095 286.92,468.195C286.686,468.571 286.474,469.038 286.286,469.596C286.081,470.224 285.978,470.747 285.978,471.164C285.978,471.669 286.128,471.965 286.427,472.054C286.568,472.095 286.721,472.115 286.885,472.115C287.643,472.115 288.359,471.689 289.035,470.838C289.681,470.033 290.004,469.246 290.004,468.477C290.004,467.901 289.789,467.522 289.361,467.34C289.308,467.311 289.256,467.292 289.207,467.283C289.157,467.274 289.108,467.27 289.061,467.27C289.008,467.27 288.97,467.273 288.947,467.279C288.9,467.29 288.876,467.279 288.876,467.243C288.876,467.179 288.926,467.107 289.026,467.028C289.126,466.948 289.243,466.909 289.378,466.909C289.461,466.909 289.528,466.92 289.581,466.944C290.139,467.132 290.418,467.558 290.418,468.221C290.418,468.503 290.377,468.794 290.295,469.093C290.212,469.393 290.083,469.701 289.907,470.018C289.566,470.653 289.132,471.181 288.603,471.604C288.022,472.062 287.434,472.291 286.841,472.291C286.747,472.291 286.655,472.285 286.564,472.274C286.473,472.262 286.38,472.244 286.286,472.221C285.781,472.086 285.529,471.684 285.529,471.014C285.529,470.38 285.752,469.587 286.198,468.635C286.227,468.565 286.242,468.518 286.242,468.494C286.242,468.447 286.227,468.424 286.198,468.424C286.18,468.424 286.157,468.433 286.128,468.45C285.722,468.679 285.103,469.305 284.269,470.327C283.153,471.701 282.439,472.547 282.128,472.864C282.099,472.893 282.055,472.908 281.996,472.908Z" style="fill:rgb(75,75,75);fill-rule:nonzero;"/>
                <path d="M290.286,472.186C289.857,472.186 289.643,471.921 289.643,471.393C289.643,470.864 289.854,470.359 290.277,469.878C290.283,469.872 290.28,469.85 290.268,469.811C290.256,469.773 290.251,469.745 290.251,469.728C290.251,469.693 290.262,469.666 290.286,469.648C290.491,469.484 290.732,469.402 291.008,469.402C291.084,469.402 291.146,469.416 291.193,469.446C291.252,469.469 291.308,469.493 291.361,469.516C291.413,469.54 291.463,469.566 291.51,469.596C291.733,469.731 291.889,469.872 291.977,470.018C292.124,470.013 292.247,470.007 292.347,470.001C292.447,469.995 292.523,469.989 292.576,469.983L292.611,469.983C292.664,469.983 292.691,470.004 292.691,470.045C292.691,470.057 292.679,470.065 292.656,470.071C292.591,470.083 292.507,470.098 292.404,470.115C292.302,470.133 292.177,470.151 292.03,470.168C292.048,470.209 292.056,470.256 292.056,470.309C292.056,470.35 292.054,470.38 292.048,470.397C291.96,470.873 291.728,471.29 291.352,471.648C290.988,472.007 290.632,472.186 290.286,472.186ZM291.766,470.018C291.672,469.872 291.487,469.798 291.211,469.798C290.999,469.798 290.861,469.822 290.797,469.869C290.779,469.875 290.761,469.886 290.744,469.904C290.726,469.922 290.706,469.942 290.682,469.966C291.011,470.007 291.372,470.024 291.766,470.018ZM290.312,472.045C290.571,472.045 290.867,471.86 291.202,471.49C291.543,471.12 291.745,470.761 291.81,470.415C291.816,470.386 291.82,470.361 291.823,470.34C291.826,470.319 291.827,470.3 291.827,470.283C291.827,470.248 291.822,470.212 291.81,470.177C291.698,470.183 291.584,470.186 291.466,470.186L290.792,470.186C290.695,470.186 290.609,470.183 290.532,470.177C290.297,470.494 290.151,470.75 290.092,470.943C290.021,471.161 289.986,471.369 289.986,471.569C289.986,471.886 290.095,472.045 290.312,472.045Z" style="fill:rgb(75,75,75);fill-rule:nonzero;"/>
                <path d="M291.951,472.194C291.869,472.194 291.827,472.168 291.827,472.115C291.827,472.109 291.833,472.089 291.845,472.054C292.121,471.525 292.447,470.77 292.823,469.789C292.864,469.684 292.935,469.591 293.034,469.512C293.134,469.433 293.219,469.393 293.29,469.393C293.366,469.393 293.398,469.434 293.387,469.516C293.328,469.64 293.258,469.798 293.175,469.992C293.093,470.186 292.996,470.412 292.885,470.67C293.049,470.453 293.293,470.209 293.616,469.939C293.78,469.804 293.923,469.693 294.043,469.604C294.163,469.516 294.265,469.452 294.347,469.411C294.429,469.37 294.52,469.349 294.62,469.349C294.738,469.349 294.837,469.378 294.92,469.437C295.002,469.496 295.043,469.563 295.043,469.64C295.043,469.687 295.021,469.738 294.977,469.794C294.933,469.85 294.887,469.878 294.84,469.878C294.817,469.878 294.768,469.853 294.695,469.803C294.622,469.753 294.544,469.728 294.462,469.728C294.373,469.728 294.271,469.754 294.153,469.807C293.407,470.142 292.764,470.897 292.224,472.071C292.189,472.153 292.098,472.194 291.951,472.194Z" style="fill:rgb(75,75,75);fill-rule:nonzero;"/>
                <path d="M295.043,472.239C294.591,472.139 294.365,471.933 294.365,471.622C294.365,471.534 294.379,471.429 294.409,471.309C294.438,471.189 294.485,471.055 294.55,470.908L295.298,469.226C295.21,469.237 295.113,469.249 295.008,469.261C294.902,469.273 294.785,469.284 294.655,469.296C294.632,469.296 294.62,469.276 294.62,469.234C294.62,469.152 294.635,469.105 294.664,469.093L295.404,468.988L295.977,467.825C296.03,467.719 296.194,467.666 296.47,467.666C296.599,467.666 296.655,467.681 296.637,467.71C296.508,467.916 296.378,468.123 296.245,468.331C296.113,468.54 295.983,468.747 295.853,468.953C295.871,468.947 295.909,468.941 295.968,468.935C296.027,468.929 296.103,468.923 296.197,468.917C296.267,468.911 296.335,468.907 296.4,468.904C296.464,468.901 296.526,468.9 296.585,468.9C296.831,468.9 296.949,468.911 296.937,468.935C296.896,468.976 296.497,469.055 295.739,469.173C295.099,470.383 294.779,471.237 294.779,471.736C294.779,471.918 294.832,472.027 294.937,472.062C295.019,472.086 295.228,471.977 295.563,471.736C295.757,471.595 295.933,471.441 296.091,471.274C296.25,471.106 296.394,470.929 296.523,470.741C296.564,470.682 296.602,470.653 296.637,470.653C296.661,470.653 296.673,470.665 296.673,470.688C296.673,470.712 296.658,470.747 296.629,470.794C296.405,471.152 296.109,471.49 295.739,471.807C295.381,472.118 295.149,472.262 295.043,472.239Z" style="fill:rgb(75,75,75);fill-rule:nonzero;"/>
                <path d="M296.637,472.159C296.467,472.159 296.317,472.118 296.188,472.036C296.018,471.918 295.933,471.748 295.933,471.525C295.933,471.284 296.035,470.99 296.241,470.644C296.517,470.192 296.922,469.795 297.457,469.455C297.592,469.367 297.727,469.323 297.862,469.323C298.038,469.323 298.164,469.378 298.241,469.49C298.288,469.555 298.311,469.628 298.311,469.71C298.311,469.957 298.112,470.227 297.712,470.521C297.595,470.603 297.47,470.678 297.338,470.745C297.206,470.813 297.063,470.861 296.911,470.891L296.532,470.97C296.391,471.222 296.32,471.434 296.32,471.604C296.32,471.839 296.458,471.957 296.734,471.957C296.952,471.957 297.216,471.866 297.527,471.684C297.944,471.443 298.303,471.108 298.602,470.679C298.649,470.609 298.693,470.573 298.734,470.573C298.752,470.573 298.761,470.585 298.761,470.609C298.761,470.638 298.74,470.682 298.699,470.741C298.129,471.598 297.486,472.068 296.77,472.15C296.746,472.156 296.724,472.159 296.704,472.159L296.637,472.159ZM296.637,470.82C296.802,470.82 297.013,470.747 297.272,470.6C297.636,470.394 297.891,470.13 298.038,469.807C298.079,469.725 298.1,469.657 298.1,469.604C298.1,469.552 298.079,469.525 298.038,469.525C297.962,469.525 297.806,469.619 297.571,469.807C297.401,469.954 297.235,470.111 297.074,470.278C296.912,470.446 296.758,470.623 296.611,470.811C296.605,470.817 296.614,470.82 296.637,470.82Z" style="fill:rgb(75,75,75);fill-rule:nonzero;"/>
                <path d="M300.126,472.159C299.956,472.159 299.806,472.118 299.677,472.036C299.506,471.918 299.421,471.748 299.421,471.525C299.421,471.284 299.524,470.99 299.73,470.644C300.006,470.192 300.411,469.795 300.945,469.455C301.08,469.367 301.216,469.323 301.351,469.323C301.527,469.323 301.653,469.378 301.729,469.49C301.776,469.555 301.8,469.628 301.8,469.71C301.8,469.957 301.6,470.227 301.201,470.521C301.083,470.603 300.959,470.678 300.826,470.745C300.694,470.813 300.552,470.861 300.399,470.891L300.02,470.97C299.879,471.222 299.809,471.434 299.809,471.604C299.809,471.839 299.947,471.957 300.223,471.957C300.44,471.957 300.705,471.866 301.016,471.684C301.433,471.443 301.791,471.108 302.091,470.679C302.138,470.609 302.182,470.573 302.223,470.573C302.24,470.573 302.249,470.585 302.249,470.609C302.249,470.638 302.229,470.682 302.188,470.741C301.618,471.598 300.975,472.068 300.258,472.15C300.235,472.156 300.213,472.159 300.192,472.159L300.126,472.159ZM300.126,470.82C300.291,470.82 300.502,470.747 300.76,470.6C301.125,470.394 301.38,470.13 301.527,469.807C301.568,469.725 301.588,469.657 301.588,469.604C301.588,469.552 301.568,469.525 301.527,469.525C301.45,469.525 301.295,469.619 301.06,469.807C300.89,469.954 300.724,470.111 300.562,470.278C300.401,470.446 300.246,470.623 300.1,470.811C300.094,470.817 300.103,470.82 300.126,470.82Z" style="fill:rgb(75,75,75);fill-rule:nonzero;"/>
                <path d="M303.535,472.177C303.406,472.189 303.283,472.155 303.165,472.076C303.048,471.996 302.989,471.907 302.989,471.807C302.989,471.625 303.162,471.275 303.509,470.758C303.891,470.189 304.082,469.86 304.082,469.772C304.082,469.719 304.055,469.69 304.002,469.684C303.832,469.695 303.568,469.866 303.209,470.195C302.699,470.67 302.22,471.316 301.773,472.133C301.762,472.145 301.729,472.15 301.677,472.15C301.424,472.15 301.31,472.115 301.333,472.045C301.398,471.874 301.511,471.619 301.672,471.278C301.834,470.938 302.044,470.509 302.302,469.992C302.478,469.646 302.657,469.472 302.839,469.472C302.898,469.472 302.936,469.487 302.954,469.516C302.966,469.534 302.842,469.787 302.584,470.274C302.461,470.509 302.364,470.695 302.293,470.833C302.223,470.971 302.173,471.061 302.143,471.102C302.243,471.002 302.362,470.879 302.5,470.732C302.638,470.585 302.798,470.415 302.98,470.221C303.268,469.898 303.585,469.657 303.932,469.499C304.014,469.463 304.108,469.446 304.214,469.446C304.455,469.446 304.575,469.534 304.575,469.71C304.575,469.822 304.519,469.954 304.408,470.107C303.773,470.993 303.456,471.59 303.456,471.895C303.456,471.96 303.477,472.001 303.518,472.018C303.612,472.059 303.844,471.962 304.214,471.728C304.648,471.446 305.018,471.096 305.324,470.679C305.388,470.591 305.447,470.547 305.5,470.547C305.518,470.547 305.526,470.553 305.526,470.565C305.526,470.594 305.5,470.65 305.447,470.732C305.189,471.137 304.83,471.496 304.372,471.807C303.961,472.077 303.682,472.2 303.535,472.177Z" style="fill:rgb(75,75,75);fill-rule:nonzero;"/>
                <path d="M306.813,472.186C306.701,472.186 306.597,472.158 306.5,472.102C306.403,472.046 306.34,471.986 306.31,471.921C306.293,471.874 306.284,471.813 306.284,471.736C306.284,471.637 306.296,471.521 306.319,471.388C306.343,471.256 306.378,471.114 306.425,470.961C306.384,471.037 306.327,471.126 306.253,471.225C306.18,471.325 306.09,471.443 305.984,471.578C305.667,471.954 305.409,472.142 305.209,472.142C305.18,472.142 305.156,472.139 305.139,472.133C304.786,472.051 304.61,471.851 304.61,471.534C304.61,471.281 304.731,470.958 304.971,470.565C305.124,470.324 305.356,470.092 305.667,469.869C306.067,469.575 306.446,469.428 306.804,469.428C306.939,469.428 307.065,469.449 307.183,469.49L307.447,469.014C307.582,468.773 307.695,468.556 307.786,468.362C307.877,468.168 307.952,468.001 308.011,467.86C308.058,467.754 308.222,467.702 308.504,467.702C308.633,467.702 308.689,467.716 308.671,467.746L307.509,469.675C307.532,469.71 307.538,469.751 307.526,469.798C307.52,469.833 307.506,469.839 307.482,469.816L307.447,469.781L307.332,469.974C306.886,470.732 306.663,471.322 306.663,471.745C306.663,471.91 306.719,471.992 306.83,471.992C306.954,471.992 307.141,471.898 307.394,471.71C307.741,471.452 308.066,471.108 308.372,470.679C308.436,470.591 308.495,470.547 308.548,470.547C308.566,470.547 308.575,470.553 308.575,470.565C308.575,470.594 308.548,470.65 308.495,470.732C308.243,471.12 307.949,471.46 307.614,471.754C307.35,471.983 307.144,472.118 306.998,472.159C306.939,472.177 306.877,472.186 306.813,472.186ZM305.139,471.992C305.28,472.051 305.579,471.789 306.037,471.208C306.214,470.985 306.366,470.783 306.495,470.604C306.625,470.425 306.73,470.265 306.813,470.124C306.836,470.077 306.873,470.011 306.923,469.926C306.973,469.841 307.036,469.74 307.112,469.622C307.095,469.616 307.075,469.613 307.055,469.613L306.998,469.613C306.757,469.613 306.498,469.703 306.222,469.882C305.946,470.061 305.688,470.306 305.447,470.618C305.277,470.835 305.155,471.035 305.082,471.217C305.008,471.399 304.971,471.557 304.971,471.692C304.971,471.851 305.027,471.951 305.139,471.992Z" style="fill:rgb(75,75,75);fill-rule:nonzero;"/>
                <path d="M308.398,472.159C308.228,472.159 308.078,472.118 307.949,472.036C307.779,471.918 307.694,471.748 307.694,471.525C307.694,471.284 307.796,470.99 308.002,470.644C308.278,470.192 308.683,469.795 309.218,469.455C309.353,469.367 309.488,469.323 309.623,469.323C309.799,469.323 309.925,469.378 310.002,469.49C310.049,469.555 310.072,469.628 310.072,469.71C310.072,469.957 309.872,470.227 309.473,470.521C309.356,470.603 309.231,470.678 309.099,470.745C308.967,470.813 308.824,470.861 308.671,470.891L308.293,470.97C308.152,471.222 308.081,471.434 308.081,471.604C308.081,471.839 308.219,471.957 308.495,471.957C308.713,471.957 308.977,471.866 309.288,471.684C309.705,471.443 310.063,471.108 310.363,470.679C310.41,470.609 310.454,470.573 310.495,470.573C310.513,470.573 310.521,470.585 310.521,470.609C310.521,470.638 310.501,470.682 310.46,470.741C309.89,471.598 309.247,472.068 308.53,472.15C308.507,472.156 308.485,472.159 308.464,472.159L308.398,472.159ZM308.398,470.82C308.563,470.82 308.774,470.747 309.033,470.6C309.397,470.394 309.652,470.13 309.799,469.807C309.84,469.725 309.861,469.657 309.861,469.604C309.861,469.552 309.84,469.525 309.799,469.525C309.723,469.525 309.567,469.619 309.332,469.807C309.162,469.954 308.996,470.111 308.834,470.278C308.673,470.446 308.519,470.623 308.372,470.811C308.366,470.817 308.375,470.82 308.398,470.82Z" style="fill:rgb(75,75,75);fill-rule:nonzero;"/>
                <path d="M311.808,472.177C311.678,472.189 311.555,472.155 311.438,472.076C311.32,471.996 311.261,471.907 311.261,471.807C311.261,471.625 311.435,471.275 311.781,470.758C312.163,470.189 312.354,469.86 312.354,469.772C312.354,469.719 312.327,469.69 312.275,469.684C312.104,469.695 311.84,469.866 311.482,470.195C310.971,470.67 310.492,471.316 310.046,472.133C310.034,472.145 310.002,472.15 309.949,472.15C309.696,472.15 309.582,472.115 309.605,472.045C309.67,471.874 309.783,471.619 309.944,471.278C310.106,470.938 310.316,470.509 310.574,469.992C310.75,469.646 310.93,469.472 311.112,469.472C311.17,469.472 311.209,469.487 311.226,469.516C311.238,469.534 311.115,469.787 310.856,470.274C310.733,470.509 310.636,470.695 310.565,470.833C310.495,470.971 310.445,471.061 310.416,471.102C310.516,471.002 310.634,470.879 310.773,470.732C310.911,470.585 311.071,470.415 311.253,470.221C311.54,469.898 311.858,469.657 312.204,469.499C312.286,469.463 312.38,469.446 312.486,469.446C312.727,469.446 312.847,469.534 312.847,469.71C312.847,469.822 312.791,469.954 312.68,470.107C312.046,470.993 311.728,471.59 311.728,471.895C311.728,471.96 311.749,472.001 311.79,472.018C311.884,472.059 312.116,471.962 312.486,471.728C312.921,471.446 313.291,471.096 313.596,470.679C313.661,470.591 313.719,470.547 313.772,470.547C313.79,470.547 313.799,470.553 313.799,470.565C313.799,470.594 313.772,470.65 313.719,470.732C313.461,471.137 313.103,471.496 312.645,471.807C312.233,472.077 311.954,472.2 311.808,472.177Z" style="fill:rgb(75,75,75);fill-rule:nonzero;"/>
                <path d="M313.851,472.027C313.763,472.039 313.665,472.029 313.556,471.996C313.448,471.964 313.393,471.921 313.393,471.869C313.393,471.833 313.405,471.797 313.429,471.758C313.452,471.72 313.481,471.681 313.517,471.639C313.617,471.516 313.677,471.438 313.697,471.406C313.718,471.374 313.752,471.358 313.799,471.358C313.91,471.358 314.013,471.422 314.107,471.551C314.113,471.557 314.116,471.569 314.116,471.587C314.116,471.628 314.083,471.704 314.019,471.816C313.943,471.957 313.887,472.027 313.851,472.027Z" style="fill:rgb(75,75,75);fill-rule:nonzero;"/>
            </g>
            <g transform="matrix(18.0772,0,0,18.0772,-3965.2,-6963.46)">
                <path d="M232.107,470.177C231.966,470.177 231.89,470.174 231.878,470.168C231.843,470.151 231.816,470.112 231.799,470.054C231.793,470.036 231.79,470.016 231.79,469.992C231.79,469.957 231.802,469.936 231.825,469.93C231.878,469.901 232.204,469.886 232.803,469.886C233.702,469.886 234.151,469.925 234.151,470.001C234.145,470.007 234.141,470.014 234.138,470.023C234.135,470.032 234.127,470.039 234.116,470.045C234.063,470.092 233.69,470.127 232.997,470.151C232.592,470.168 232.295,470.177 232.107,470.177Z" style="fill:rgb(65,63,58);fill-rule:nonzero;"/>
                <path d="M240.141,473.128C240.094,473.128 240.044,473.119 239.992,473.102C239.839,473.055 239.763,472.92 239.763,472.697C239.763,472.556 239.815,472.262 239.921,471.816C239.986,471.551 240.091,471.211 240.238,470.794C240.385,470.394 240.467,470.186 240.485,470.168C240.461,470.151 240.197,470.142 239.692,470.142L239.102,470.142C238.197,470.148 237.713,470.174 237.648,470.221C237.619,470.245 237.585,470.287 237.547,470.349C237.509,470.411 237.466,470.491 237.419,470.591L237.129,471.164C237.07,471.281 237.011,471.409 236.952,471.547C236.894,471.685 236.841,471.836 236.794,472.001C236.77,472.159 236.665,472.239 236.477,472.239C236.359,472.239 236.3,472.2 236.3,472.124C236.3,471.877 236.576,471.275 237.129,470.318C236.829,470.365 236.703,470.406 236.75,470.441C236.761,470.453 236.767,470.462 236.767,470.468C236.767,470.48 236.761,470.485 236.75,470.485C236.726,470.485 236.676,470.465 236.6,470.424C236.494,470.359 236.441,470.295 236.441,470.23C236.441,470.159 236.532,470.104 236.714,470.063C236.814,470.051 236.914,470.038 237.014,470.023C237.114,470.008 237.217,469.989 237.322,469.966C237.598,469.496 237.814,469.126 237.97,468.856C238.125,468.585 238.224,468.412 238.265,468.336C238.617,467.655 238.794,467.161 238.794,466.856C238.794,466.68 238.741,466.556 238.635,466.486C238.459,466.362 238.253,466.301 238.018,466.301C237.637,466.301 236.99,466.486 236.08,466.856C235.604,467.044 235.135,467.367 234.671,467.825C234.183,468.312 233.939,468.729 233.939,469.076C233.939,469.258 234.019,469.408 234.177,469.525C234.395,469.678 234.621,469.754 234.856,469.754C234.92,469.754 234.994,469.748 235.076,469.737C235.158,469.725 235.205,469.719 235.217,469.719C235.246,469.719 235.261,469.728 235.261,469.745C235.261,469.763 235.252,469.787 235.234,469.816C235.199,469.886 235.038,469.922 234.75,469.922C234.474,469.922 234.254,469.875 234.089,469.781C233.766,469.599 233.605,469.325 233.605,468.961C233.605,468.768 233.663,468.58 233.781,468.398C234.28,467.675 235.085,467.07 236.195,466.583C236.999,466.224 237.748,466.045 238.441,466.045C239.005,466.045 239.307,466.224 239.349,466.583C239.36,466.665 239.315,466.834 239.212,467.089C239.109,467.345 238.946,467.681 238.723,468.098L237.692,470.001L237.895,470.001C237.989,470.001 238.067,469.998 238.128,469.992C238.19,469.986 238.241,469.983 238.283,469.983L238.741,469.983C239.228,469.983 239.833,469.992 240.555,470.01C240.579,469.951 240.644,469.803 240.749,469.565C240.855,469.327 241.008,468.997 241.207,468.574C241.466,468.022 241.803,467.537 242.22,467.12C242.684,466.656 243.104,466.424 243.48,466.424C243.592,466.424 243.7,466.448 243.806,466.495C243.836,466.506 243.863,466.517 243.89,466.525C243.916,466.534 243.941,466.545 243.965,466.556C244.053,466.592 244.1,466.636 244.106,466.688C244.123,466.806 244.107,466.919 244.057,467.028C244.007,467.136 243.962,467.191 243.921,467.191C243.897,467.191 243.885,467.173 243.885,467.138C243.885,467.103 243.893,467.044 243.908,466.962C243.922,466.879 243.93,466.824 243.93,466.794C243.93,466.741 243.918,466.703 243.894,466.68C243.8,466.586 243.686,466.539 243.551,466.539C243.298,466.539 243.007,466.7 242.679,467.023C242.35,467.346 242.035,467.787 241.736,468.345C241.501,468.779 241.322,469.133 241.199,469.406C241.075,469.679 241.002,469.875 240.978,469.992C241.043,469.986 241.102,469.983 241.155,469.983L241.304,469.983C241.604,469.983 241.806,470.004 241.912,470.045C241.936,470.051 241.947,470.06 241.947,470.071C241.947,470.136 241.848,470.171 241.648,470.177C241.525,470.183 241.401,470.186 241.278,470.186L240.917,470.186C240.84,470.374 240.764,470.578 240.688,470.798C240.611,471.018 240.538,471.249 240.467,471.49C240.321,472.018 240.247,472.415 240.247,472.679C240.247,472.738 240.259,472.801 240.282,472.868C240.306,472.936 240.318,472.981 240.318,473.005C240.318,473.087 240.259,473.128 240.141,473.128Z" style="fill:rgb(65,63,58);fill-rule:nonzero;"/>
                <path d="M242.141,472.159C241.971,472.159 241.821,472.118 241.692,472.036C241.522,471.918 241.436,471.748 241.436,471.525C241.436,471.284 241.539,470.99 241.745,470.644C242.021,470.192 242.426,469.795 242.96,469.455C243.096,469.367 243.231,469.323 243.366,469.323C243.542,469.323 243.668,469.378 243.745,469.49C243.792,469.555 243.815,469.628 243.815,469.71C243.815,469.957 243.615,470.227 243.216,470.521C243.098,470.603 242.974,470.678 242.842,470.745C242.709,470.813 242.567,470.861 242.414,470.891L242.035,470.97C241.895,471.222 241.824,471.434 241.824,471.604C241.824,471.839 241.962,471.957 242.238,471.957C242.455,471.957 242.72,471.866 243.031,471.684C243.448,471.443 243.806,471.108 244.106,470.679C244.153,470.609 244.197,470.573 244.238,470.573C244.255,470.573 244.264,470.585 244.264,470.609C244.264,470.638 244.244,470.682 244.203,470.741C243.633,471.598 242.99,472.068 242.273,472.15C242.25,472.156 242.228,472.159 242.207,472.159L242.141,472.159ZM242.141,470.82C242.306,470.82 242.517,470.747 242.775,470.6C243.14,470.394 243.395,470.13 243.542,469.807C243.583,469.725 243.604,469.657 243.604,469.604C243.604,469.552 243.583,469.525 243.542,469.525C243.466,469.525 243.31,469.619 243.075,469.807C242.905,469.954 242.739,470.111 242.577,470.278C242.416,470.446 242.262,470.623 242.115,470.811C242.109,470.817 242.118,470.82 242.141,470.82Z" style="fill:rgb(65,63,58);fill-rule:nonzero;"/>
                <path d="M245.41,468.997C245.316,469.008 245.214,468.997 245.106,468.961C244.997,468.926 244.943,468.882 244.943,468.829C244.943,468.794 244.954,468.757 244.978,468.719C245.001,468.681 245.031,468.641 245.066,468.6C245.166,468.477 245.225,468.399 245.242,468.367C245.26,468.334 245.292,468.318 245.339,468.318C245.474,468.318 245.58,468.383 245.656,468.512C245.662,468.518 245.665,468.53 245.665,468.547C245.665,468.6 245.636,468.676 245.577,468.776C245.501,468.917 245.445,468.991 245.41,468.997ZM244.079,472.177C243.739,472.1 243.568,471.965 243.568,471.772C243.568,471.678 243.683,471.346 243.912,470.776C243.977,470.665 244.063,470.502 244.172,470.287C244.28,470.073 244.417,469.81 244.581,469.499C244.611,469.452 244.675,469.428 244.775,469.428C244.863,469.428 244.95,469.441 245.035,469.468C245.12,469.494 245.154,469.519 245.136,469.543C244.361,470.641 243.974,471.402 243.974,471.824C243.974,471.948 244.015,472.009 244.097,472.009C244.255,472.009 244.505,471.898 244.846,471.675C245.251,471.399 245.592,471.067 245.868,470.679C245.926,470.585 245.985,470.538 246.044,470.538C246.061,470.538 246.07,470.547 246.07,470.565C246.07,470.594 246.044,470.65 245.991,470.732C245.733,471.137 245.374,471.496 244.916,471.807C244.505,472.089 244.226,472.212 244.079,472.177Z" style="fill:rgb(65,63,58);fill-rule:nonzero;"/>
                <path d="M247.356,472.177C247.227,472.189 247.104,472.155 246.986,472.076C246.869,471.996 246.81,471.907 246.81,471.807C246.81,471.625 246.984,471.275 247.33,470.758C247.712,470.189 247.903,469.86 247.903,469.772C247.903,469.719 247.876,469.69 247.823,469.684C247.653,469.695 247.389,469.866 247.031,470.195C246.52,470.67 246.041,471.316 245.595,472.133C245.583,472.145 245.551,472.15 245.498,472.15C245.245,472.15 245.131,472.115 245.154,472.045C245.219,471.874 245.332,471.619 245.493,471.278C245.655,470.938 245.865,470.509 246.123,469.992C246.299,469.646 246.478,469.472 246.661,469.472C246.719,469.472 246.757,469.487 246.775,469.516C246.787,469.534 246.663,469.787 246.405,470.274C246.282,470.509 246.185,470.695 246.114,470.833C246.044,470.971 245.994,471.061 245.965,471.102C246.064,471.002 246.183,470.879 246.321,470.732C246.459,470.585 246.619,470.415 246.801,470.221C247.089,469.898 247.406,469.657 247.753,469.499C247.835,469.463 247.929,469.446 248.035,469.446C248.276,469.446 248.396,469.534 248.396,469.71C248.396,469.822 248.34,469.954 248.229,470.107C247.594,470.993 247.277,471.59 247.277,471.895C247.277,471.96 247.298,472.001 247.339,472.018C247.433,472.059 247.665,471.962 248.035,471.728C248.469,471.446 248.839,471.096 249.145,470.679C249.209,470.591 249.268,470.547 249.321,470.547C249.339,470.547 249.347,470.553 249.347,470.565C249.347,470.594 249.321,470.65 249.268,470.732C249.01,471.137 248.651,471.496 248.193,471.807C247.782,472.077 247.503,472.2 247.356,472.177Z" style="fill:rgb(65,63,58);fill-rule:nonzero;"/>
                <path d="M248.352,472.194C248.27,472.194 248.229,472.168 248.229,472.115C248.229,472.109 248.234,472.089 248.246,472.054C248.522,471.525 248.848,470.77 249.224,469.789C249.265,469.684 249.336,469.591 249.436,469.512C249.535,469.433 249.621,469.393 249.691,469.393C249.767,469.393 249.8,469.434 249.788,469.516C249.729,469.64 249.659,469.798 249.576,469.992C249.494,470.186 249.397,470.412 249.286,470.67C249.45,470.453 249.694,470.209 250.017,469.939C250.181,469.804 250.324,469.693 250.444,469.604C250.565,469.516 250.666,469.452 250.748,469.411C250.83,469.37 250.921,469.349 251.021,469.349C251.139,469.349 251.239,469.378 251.321,469.437C251.403,469.496 251.444,469.563 251.444,469.64C251.444,469.687 251.422,469.738 251.378,469.794C251.334,469.85 251.288,469.878 251.242,469.878C251.218,469.878 251.17,469.853 251.096,469.803C251.023,469.753 250.945,469.728 250.863,469.728C250.775,469.728 250.672,469.754 250.554,469.807C249.808,470.142 249.165,470.897 248.625,472.071C248.59,472.153 248.499,472.194 248.352,472.194Z" style="fill:rgb(65,63,58);fill-rule:nonzero;"/>
                <path d="M252.51,468.997C252.416,469.008 252.315,468.997 252.206,468.961C252.098,468.926 252.043,468.882 252.043,468.829C252.043,468.794 252.055,468.757 252.078,468.719C252.102,468.681 252.131,468.641 252.167,468.6C252.266,468.477 252.325,468.399 252.343,468.367C252.36,468.334 252.393,468.318 252.44,468.318C252.575,468.318 252.68,468.383 252.757,468.512C252.763,468.518 252.766,468.53 252.766,468.547C252.766,468.6 252.736,468.676 252.677,468.776C252.601,468.917 252.545,468.991 252.51,468.997ZM251.18,472.177C250.839,472.1 250.669,471.965 250.669,471.772C250.669,471.678 250.783,471.346 251.012,470.776C251.077,470.665 251.164,470.502 251.272,470.287C251.381,470.073 251.518,469.81 251.682,469.499C251.711,469.452 251.776,469.428 251.876,469.428C251.964,469.428 252.051,469.441 252.136,469.468C252.221,469.494 252.255,469.519 252.237,469.543C251.462,470.641 251.074,471.402 251.074,471.824C251.074,471.948 251.115,472.009 251.197,472.009C251.356,472.009 251.606,471.898 251.946,471.675C252.352,471.399 252.692,471.067 252.968,470.679C253.027,470.585 253.086,470.538 253.144,470.538C253.162,470.538 253.171,470.547 253.171,470.565C253.171,470.594 253.144,470.65 253.092,470.732C252.833,471.137 252.475,471.496 252.017,471.807C251.606,472.089 251.327,472.212 251.18,472.177Z" style="fill:rgb(65,63,58);fill-rule:nonzero;"/>
                <path d="M253.391,472.159C253.268,472.159 253.143,472.13 253.017,472.071C252.89,472.012 252.783,471.923 252.695,471.802C252.607,471.682 252.563,471.537 252.563,471.366C252.563,471.131 252.651,470.864 252.827,470.565C253.003,470.265 253.235,470.001 253.523,469.772C253.705,469.625 253.858,469.525 253.981,469.472C254.157,469.396 254.325,469.358 254.483,469.358C254.683,469.358 254.839,469.422 254.95,469.552C255.009,469.61 255.038,469.672 255.038,469.737C255.038,469.842 254.989,469.895 254.889,469.895C254.818,469.895 254.765,469.851 254.73,469.763C254.689,469.64 254.601,469.578 254.466,469.578C254.301,469.578 254.116,469.669 253.911,469.851C253.682,470.033 253.473,470.283 253.285,470.6C253.08,470.941 252.977,471.24 252.977,471.499C252.977,471.751 253.053,471.91 253.206,471.974C253.259,471.998 253.326,472.009 253.409,472.009C253.691,472.009 254.011,471.892 254.369,471.657C254.762,471.405 255.1,471.079 255.382,470.679C255.447,470.591 255.505,470.547 255.558,470.547C255.576,470.547 255.585,470.553 255.585,470.565C255.585,470.594 255.558,470.65 255.505,470.732C255.235,471.149 254.856,471.507 254.369,471.807C254.146,471.942 253.968,472.034 253.836,472.084C253.704,472.134 253.556,472.159 253.391,472.159Z" style="fill:rgb(65,63,58);fill-rule:nonzero;"/>
                <path d="M256.739,472.177C256.61,472.189 256.486,472.155 256.369,472.076C256.251,471.996 256.193,471.907 256.193,471.807C256.193,471.625 256.366,471.275 256.712,470.758C257.094,470.183 257.285,469.851 257.285,469.763C257.285,469.71 257.256,469.684 257.197,469.684C257.044,469.684 256.75,469.91 256.316,470.362C256.057,470.62 255.815,470.898 255.589,471.195C255.363,471.491 255.15,471.804 254.95,472.133C254.939,472.145 254.906,472.15 254.853,472.15C254.595,472.15 254.478,472.115 254.501,472.045C254.601,471.775 254.727,471.472 254.88,471.137C255.033,470.803 255.215,470.43 255.426,470.018C256.125,468.668 256.601,467.895 256.853,467.702C256.924,467.649 257.021,467.622 257.144,467.622C257.35,467.622 257.452,467.663 257.452,467.746C257.452,467.763 257.435,467.787 257.399,467.816C256.63,468.386 255.949,469.458 255.356,471.032C255.361,471.026 255.392,470.998 255.448,470.948C255.504,470.898 255.585,470.823 255.69,470.723C255.802,470.623 255.897,470.531 255.977,470.446C256.056,470.361 256.125,470.286 256.184,470.221C256.471,469.898 256.789,469.657 257.135,469.499C257.217,469.463 257.311,469.446 257.417,469.446C257.658,469.446 257.778,469.534 257.778,469.71C257.778,469.822 257.722,469.954 257.611,470.107C256.977,470.993 256.659,471.59 256.659,471.895C256.659,471.96 256.68,472.001 256.721,472.018C256.815,472.059 257.047,471.962 257.417,471.728C257.852,471.446 258.222,471.096 258.527,470.679C258.592,470.591 258.65,470.547 258.703,470.547C258.721,470.547 258.73,470.553 258.73,470.565C258.73,470.594 258.703,470.65 258.65,470.732C258.392,471.137 258.034,471.496 257.576,471.807C257.165,472.077 256.886,472.2 256.739,472.177Z" style="fill:rgb(65,63,58);fill-rule:nonzero;"/>
                <path d="M265.487,473.128C265.44,473.128 265.39,473.119 265.337,473.102C265.184,473.055 265.108,472.92 265.108,472.697C265.108,472.556 265.161,472.262 265.266,471.816C265.331,471.551 265.437,471.211 265.584,470.794C265.73,470.394 265.813,470.186 265.83,470.168C265.807,470.151 265.542,470.142 265.037,470.142L264.447,470.142C263.543,470.148 263.058,470.174 262.994,470.221C262.964,470.245 262.93,470.287 262.892,470.349C262.854,470.411 262.811,470.491 262.764,470.591L262.474,471.164C262.415,471.281 262.356,471.409 262.298,471.547C262.239,471.685 262.186,471.836 262.139,472.001C262.116,472.159 262.01,472.239 261.822,472.239C261.704,472.239 261.646,472.2 261.646,472.124C261.646,471.877 261.922,471.275 262.474,470.318C262.174,470.365 262.048,470.406 262.095,470.441C262.107,470.453 262.113,470.462 262.113,470.468C262.113,470.48 262.107,470.485 262.095,470.485C262.071,470.485 262.022,470.465 261.945,470.424C261.839,470.359 261.787,470.295 261.787,470.23C261.787,470.159 261.878,470.104 262.06,470.063C262.16,470.051 262.259,470.038 262.359,470.023C262.459,470.008 262.562,469.989 262.668,469.966C262.944,469.496 263.159,469.126 263.315,468.856C263.471,468.585 263.569,468.412 263.61,468.336C263.963,467.655 264.139,467.161 264.139,466.856C264.139,466.68 264.086,466.556 263.98,466.486C263.804,466.362 263.598,466.301 263.364,466.301C262.982,466.301 262.336,466.486 261.425,466.856C260.95,467.044 260.48,467.367 260.016,467.825C259.528,468.312 259.285,468.729 259.285,469.076C259.285,469.258 259.364,469.408 259.523,469.525C259.74,469.678 259.966,469.754 260.201,469.754C260.266,469.754 260.339,469.748 260.421,469.737C260.503,469.725 260.55,469.719 260.562,469.719C260.591,469.719 260.606,469.728 260.606,469.745C260.606,469.763 260.597,469.787 260.58,469.816C260.544,469.886 260.383,469.922 260.095,469.922C259.819,469.922 259.599,469.875 259.434,469.781C259.111,469.599 258.95,469.325 258.95,468.961C258.95,468.768 259.009,468.58 259.126,468.398C259.625,467.675 260.43,467.07 261.54,466.583C262.345,466.224 263.093,466.045 263.786,466.045C264.35,466.045 264.653,466.224 264.694,466.583C264.706,466.665 264.66,466.834 264.557,467.089C264.454,467.345 264.291,467.681 264.068,468.098L263.038,470.001L263.24,470.001C263.334,470.001 263.412,469.998 263.474,469.992C263.535,469.986 263.587,469.983 263.628,469.983L264.086,469.983C264.573,469.983 265.178,469.992 265.901,470.01C265.924,469.951 265.989,469.803 266.095,469.565C266.2,469.327 266.353,468.997 266.553,468.574C266.811,468.022 267.149,467.537 267.566,467.12C268.03,466.656 268.45,466.424 268.826,466.424C268.937,466.424 269.046,466.448 269.151,466.495C269.181,466.506 269.209,466.517 269.235,466.525C269.262,466.534 269.287,466.545 269.31,466.556C269.398,466.592 269.445,466.636 269.451,466.688C269.469,466.806 269.452,466.919 269.403,467.028C269.353,467.136 269.307,467.191 269.266,467.191C269.243,467.191 269.231,467.173 269.231,467.138C269.231,467.103 269.238,467.044 269.253,466.962C269.267,466.879 269.275,466.824 269.275,466.794C269.275,466.741 269.263,466.703 269.24,466.68C269.146,466.586 269.031,466.539 268.896,466.539C268.643,466.539 268.353,466.7 268.024,467.023C267.695,467.346 267.381,467.787 267.081,468.345C266.846,468.779 266.667,469.133 266.544,469.406C266.42,469.679 266.347,469.875 266.324,469.992C266.388,469.986 266.447,469.983 266.5,469.983L266.65,469.983C266.949,469.983 267.152,470.004 267.257,470.045C267.281,470.051 267.293,470.06 267.293,470.071C267.293,470.136 267.193,470.171 266.993,470.177C266.87,470.183 266.746,470.186 266.623,470.186L266.262,470.186C266.186,470.374 266.109,470.578 266.033,470.798C265.957,471.018 265.883,471.249 265.813,471.49C265.666,472.018 265.592,472.415 265.592,472.679C265.592,472.738 265.604,472.801 265.628,472.868C265.651,472.936 265.663,472.981 265.663,473.005C265.663,473.087 265.604,473.128 265.487,473.128Z" style="fill:rgb(65,63,58);fill-rule:nonzero;"/>
                <path d="M267.486,472.159C267.316,472.159 267.166,472.118 267.037,472.036C266.867,471.918 266.782,471.748 266.782,471.525C266.782,471.284 266.884,470.99 267.09,470.644C267.366,470.192 267.771,469.795 268.306,469.455C268.441,469.367 268.576,469.323 268.711,469.323C268.887,469.323 269.013,469.378 269.09,469.49C269.137,469.555 269.16,469.628 269.16,469.71C269.16,469.957 268.961,470.227 268.561,470.521C268.444,470.603 268.319,470.678 268.187,470.745C268.055,470.813 267.912,470.861 267.76,470.891L267.381,470.97C267.24,471.222 267.169,471.434 267.169,471.604C267.169,471.839 267.307,471.957 267.583,471.957C267.801,471.957 268.065,471.866 268.376,471.684C268.793,471.443 269.151,471.108 269.451,470.679C269.498,470.609 269.542,470.573 269.583,470.573C269.601,470.573 269.61,470.585 269.61,470.609C269.61,470.638 269.589,470.682 269.548,470.741C268.978,471.598 268.335,472.068 267.619,472.15C267.595,472.156 267.573,472.159 267.553,472.159L267.486,472.159ZM267.486,470.82C267.651,470.82 267.862,470.747 268.121,470.6C268.485,470.394 268.74,470.13 268.887,469.807C268.928,469.725 268.949,469.657 268.949,469.604C268.949,469.552 268.928,469.525 268.887,469.525C268.811,469.525 268.655,469.619 268.42,469.807C268.25,469.954 268.084,470.111 267.923,470.278C267.761,470.446 267.607,470.623 267.46,470.811C267.454,470.817 267.463,470.82 267.486,470.82Z" style="fill:rgb(65,63,58);fill-rule:nonzero;"/>
                <path d="M270.755,468.997C270.661,469.008 270.56,468.997 270.451,468.961C270.342,468.926 270.288,468.882 270.288,468.829C270.288,468.794 270.3,468.757 270.323,468.719C270.347,468.681 270.376,468.641 270.411,468.6C270.511,468.477 270.57,468.399 270.587,468.367C270.605,468.334 270.637,468.318 270.684,468.318C270.819,468.318 270.925,468.383 271.001,468.512C271.007,468.518 271.01,468.53 271.01,468.547C271.01,468.6 270.981,468.676 270.922,468.776C270.846,468.917 270.79,468.991 270.755,468.997ZM269.425,472.177C269.084,472.1 268.914,471.965 268.914,471.772C268.914,471.678 269.028,471.346 269.257,470.776C269.322,470.665 269.408,470.502 269.517,470.287C269.626,470.073 269.762,469.81 269.927,469.499C269.956,469.452 270.021,469.428 270.121,469.428C270.209,469.428 270.295,469.441 270.38,469.468C270.466,469.494 270.499,469.519 270.482,469.543C269.706,470.641 269.319,471.402 269.319,471.824C269.319,471.948 269.36,472.009 269.442,472.009C269.601,472.009 269.85,471.898 270.191,471.675C270.596,471.399 270.937,471.067 271.213,470.679C271.272,470.585 271.33,470.538 271.389,470.538C271.407,470.538 271.416,470.547 271.416,470.565C271.416,470.594 271.389,470.65 271.336,470.732C271.078,471.137 270.72,471.496 270.261,471.807C269.85,472.089 269.571,472.212 269.425,472.177Z" style="fill:rgb(65,63,58);fill-rule:nonzero;"/>
                <path d="M272.702,472.177C272.573,472.189 272.449,472.155 272.332,472.076C272.214,471.996 272.156,471.907 272.156,471.807C272.156,471.625 272.329,471.275 272.675,470.758C273.057,470.189 273.248,469.86 273.248,469.772C273.248,469.719 273.222,469.69 273.169,469.684C272.998,469.695 272.734,469.866 272.376,470.195C271.865,470.67 271.386,471.316 270.94,472.133C270.928,472.145 270.896,472.15 270.843,472.15C270.59,472.15 270.476,472.115 270.499,472.045C270.564,471.874 270.677,471.619 270.839,471.278C271,470.938 271.21,470.509 271.468,469.992C271.645,469.646 271.824,469.472 272.006,469.472C272.065,469.472 272.103,469.487 272.12,469.516C272.132,469.534 272.009,469.787 271.75,470.274C271.627,470.509 271.53,470.695 271.46,470.833C271.389,470.971 271.339,471.061 271.31,471.102C271.41,471.002 271.529,470.879 271.667,470.732C271.805,470.585 271.965,470.415 272.147,470.221C272.435,469.898 272.752,469.657 273.098,469.499C273.18,469.463 273.274,469.446 273.38,469.446C273.621,469.446 273.741,469.534 273.741,469.71C273.741,469.822 273.685,469.954 273.574,470.107C272.94,470.993 272.622,471.59 272.622,471.895C272.622,471.96 272.643,472.001 272.684,472.018C272.778,472.059 273.01,471.962 273.38,471.728C273.815,471.446 274.185,471.096 274.49,470.679C274.555,470.591 274.613,470.547 274.666,470.547C274.684,470.547 274.693,470.553 274.693,470.565C274.693,470.594 274.666,470.65 274.613,470.732C274.355,471.137 273.997,471.496 273.539,471.807C273.128,472.077 272.849,472.2 272.702,472.177Z" style="fill:rgb(65,63,58);fill-rule:nonzero;"/>
                <path d="M274.437,472.159C274.267,472.159 274.117,472.118 273.988,472.036C273.818,471.918 273.732,471.748 273.732,471.525C273.732,471.284 273.835,470.99 274.041,470.644C274.317,470.192 274.722,469.795 275.257,469.455C275.392,469.367 275.527,469.323 275.662,469.323C275.838,469.323 275.964,469.378 276.041,469.49C276.088,469.555 276.111,469.628 276.111,469.71C276.111,469.957 275.911,470.227 275.512,470.521C275.395,470.603 275.27,470.678 275.138,470.745C275.005,470.813 274.863,470.861 274.71,470.891L274.332,470.97C274.191,471.222 274.12,471.434 274.12,471.604C274.12,471.839 274.258,471.957 274.534,471.957C274.751,471.957 275.016,471.866 275.327,471.684C275.744,471.443 276.102,471.108 276.402,470.679C276.449,470.609 276.493,470.573 276.534,470.573C276.552,470.573 276.56,470.585 276.56,470.609C276.56,470.638 276.54,470.682 276.499,470.741C275.929,471.598 275.286,472.068 274.569,472.15C274.546,472.156 274.524,472.159 274.503,472.159L274.437,472.159ZM274.437,470.82C274.602,470.82 274.813,470.747 275.072,470.6C275.436,470.394 275.691,470.13 275.838,469.807C275.879,469.725 275.9,469.657 275.9,469.604C275.9,469.552 275.879,469.525 275.838,469.525C275.762,469.525 275.606,469.619 275.371,469.807C275.201,469.954 275.035,470.111 274.873,470.278C274.712,470.446 274.558,470.623 274.411,470.811C274.405,470.817 274.414,470.82 274.437,470.82Z" style="fill:rgb(65,63,58);fill-rule:nonzero;"/>
            </g>
        </g>
    </g>
</svg>
