<?xml version="1.0" encoding="UTF-8"?>
<svg id="Layer_2" data-name="Layer 2" xmlns="http://www.w3.org/2000/svg" viewBox="0 0 1069.84 275.63">
  <defs>
    <style>
      .cls-1 {
        fill: #c19c60;
        stroke-width: 0px;
      }
    </style>
  </defs>
  <g id="Layer_1-2" data-name="Layer 1">
    <g>
      <g>
        <path class="cls-1" d="M0,154.58c0-4.11,3.94-9.25,10.8-9.25,4.63,0,8.4,1.03,19.19,3.26,3.26-2.23,7.54-6,7.54-22.45V40.44c0-12.34-1.2-17.48-6.86-19.37v-2.4h31.7v2.4c-5.66,1.88-6.86,7.03-6.86,19.37v56.55c0,35.99-22.62,62.21-47.3,62.21-5.31,0-8.23-.51-8.23-4.63Z"/>
        <path class="cls-1" d="M139.15,131.79v-28.28c-4.8,19.88-17.14,36.84-34.96,36.84-12.68,0-23.31-8.05-23.31-22.45,0-17.65,17.99-24.51,39.24-30.5l19.02-5.48c-.34-16.97-9.6-23.48-22.28-23.48-9.6,0-19.02,4.11-27.76,14.57l-1.71-1.54c9.6-11.82,22.79-19.71,38.39-19.71,20.74,0,30.5,11.14,30.5,32.05v33.07c0,12.34,1.2,17.48,6.85,19.37v2.4h-17.14c-4.46,0-6.86-2.4-6.86-6.85ZM112.76,127.84c16.79,0,26.22-23.65,26.39-39.07v-4.46l-18.34,5.31c-8.05,2.23-23.99,8.05-23.99,22.28,0,11.31,8.05,15.94,15.94,15.94Z"/>
        <path class="cls-1" d="M177.02,136.24c5.66-1.88,6.85-7.03,6.85-19.37V26.05c0-10.11-2.57-11.83-6.85-13.71v-2.4L199.65,0l1.71,1.37v98.54l26.91-26.73c10.97-10.97,10.8-17.48,7.37-18.68v-1.54h21.76v2.4c-5.48,1.71-12.17,4.29-20.91,13.02l-10.97,10.97,20.39,36.85c6.68,12,12,20.05,20.22,20.05v2.4h-13.71c-8.4,0-16.28-5.14-24.51-20.56l-14.22-27.08-12.34,12.34v13.54c0,12.34,1.2,17.48,6.86,19.37v2.4h-31.19v-2.4Z"/>
        <path class="cls-1" d="M268.19,98.02c0-27.76,22.28-46.27,45.76-46.27,21.25,0,45.58,12.51,45.58,42.67s-25.36,45.93-45.58,45.93c-22.28,0-45.76-13.2-45.76-42.33ZM342.23,107.45c0-21.76-14.91-54.5-37.02-52.27-14.91,1.54-19.88,15.25-19.88,29.99,0,20.22,12,51.41,34.62,51.41,16.79,0,22.28-14.57,22.28-29.13Z"/>
        <path class="cls-1" d="M391.92,127.5l-7.03,11.14h-1.89V26.05c0-10.11-2.57-11.83-6.85-13.71v-2.4l22.62-9.94,1.71,1.37v60.49c8.57-5.48,18.68-10.11,28.45-10.11,24.33,0,39.07,20.05,39.07,41.3,0,26.22-17.99,47.13-46.44,47.13-12.34,0-23.31-5.48-29.65-12.68ZM428.25,136.58c18.17,0,22.96-14.91,22.96-30.5s-7.2-47.47-32.73-47.47c-6.34,0-12.34,2.4-17.99,6v43.87c0,13.37,14.74,28.1,27.76,28.1Z"/>
      </g>
      <g>
        <path class="cls-1" d="M212.21,271.6c5.54-1.85,6.71-6.88,6.71-18.97v-64.79c0-20.48-3.69-26.35-11.41-29.04v-2.35h25.18l41.46,68.82,39.45-68.82h23.84v2.35c-7.72,2.69-11.42,8.56-11.42,29.04v64.79c0,12.09,1.18,17.12,6.71,18.97v2.35h-31.22v-2.35c5.54-1.85,6.71-6.88,6.71-18.97v-81.25l-40.29,70.67h-3.86l-42.13-69.16v69.66c0,20.48,4.03,26.35,12.76,29.04v2.35h-22.49v-2.35Z"/>
        <path class="cls-1" d="M412.64,267.24v-27.7c-4.7,19.47-16.79,36.09-34.24,36.09-12.42,0-22.83-7.89-22.83-21.99,0-17.29,17.63-24,38.44-29.88l18.63-5.37c-.34-16.62-9.4-23-21.82-23-9.4,0-18.63,4.03-27.19,14.27l-1.68-1.51c9.4-11.58,22.33-19.3,37.6-19.3,20.31,0,29.88,10.91,29.88,31.39v32.4c0,12.09,1.18,17.12,6.71,18.97v2.35h-16.79c-4.36,0-6.71-2.35-6.71-6.71ZM386.79,263.38c16.45,0,25.68-23.17,25.85-38.27v-4.36l-17.96,5.2c-7.89,2.18-23.5,7.89-23.5,21.82,0,11.08,7.89,15.61,15.61,15.61Z"/>
        <path class="cls-1" d="M458.8,250.28v-57.58h-10.74v-2.69l25.18-22.16h2.69v22.16h26.02l-.67,2.69h-25.35v57.74c0,10.41,3.86,14.94,11.25,14.94,3.69,0,9.4-1.51,14.94-8.39l1.68,1.68c-8.9,10.24-17.46,16.95-27.53,16.95-11.42,0-17.46-7.22-17.46-25.35Z"/>
        <path class="cls-1" d="M519.74,244.24v-30.21c0-9.9-2.52-11.58-6.71-13.43v-2.35l22.16-9.74,1.68,1.34v52.21c0,17.96,2.85,26.86,15.78,26.86,7.55,0,15.78-4.53,24-12.76v-42.13c0-9.9-2.52-11.58-6.71-13.43v-2.35l22.16-9.74,1.68,1.34v62.78c0,12.09,1.17,17.12,6.71,18.97v2.35h-17.12c-4.36,0-6.71-2.35-6.71-6.71v-7.55c-9.57,9.23-21.15,15.95-31.73,15.95-17.79,0-25.18-10.91-25.18-31.39Z"/>
        <path class="cls-1" d="M617.61,267.4l-1.68-21.99,1.68-.34c7.22,16.11,19.3,27.36,34.24,27.53,10.41.17,17.12-6.71,17.12-14.44,0-10.74-8.56-14.94-23.16-19.47-17.63-5.37-28.54-10.24-28.54-25.35,0-12.76,9.9-24.51,32.73-24.51,9.57,0,19.81,1.85,25.51,4.2l.84,18.46-2.01.33c-5.71-11.92-16.11-20.65-28.37-20.65-10.58,0-17.46,5.54-17.46,12.76,0,9.4,8.39,13.43,23.5,18.46,13.43,4.53,28.2,8.56,28.2,25.68,0,12.76-8.06,27.19-32.4,27.19-12.25,0-23.84-3.69-30.21-7.89Z"/>
        <path class="cls-1" d="M696.34,235.17c0-28.2,21.82-46.33,45.32-46.33,17.96,0,30.21,4.87,30.21,9.57,0,5.2-6.38,10.91-11.41,10.91-4.7,0-12.25-5.2-25.18-17.62-14.6,2.18-24,16.62-24,32.73,0,21.99,13.43,37.6,34.75,37.6,12.42,0,21.99-5.37,29.04-13.26l1.51,1.68c-7.72,11.75-20.98,25.18-40.46,25.18-20.65,0-39.78-14.44-39.78-40.46Z"/>
        <path class="cls-1" d="M784.97,271.6c5.54-1.85,6.71-6.88,6.71-18.97v-88.97c0-9.9-2.52-11.58-6.71-13.43v-2.35l22.16-9.74,1.68,1.34v64.46c9.23-7.55,21.32-15.11,34.41-15.11,15.44,0,25.85,8.06,25.85,27.7v36.09c0,12.09,1.17,17.12,6.71,18.97v2.35h-30.55v-2.35c5.54-1.85,6.71-6.88,6.71-18.97v-33.07c0-15.11-6.55-24-18.97-24-7.89,0-15.11,3.86-24.17,11.25v45.83c0,12.09,1.18,17.12,6.71,18.97v2.35h-30.55v-2.35Z"/>
        <path class="cls-1" d="M889.55,235.17c0-28.54,22.33-46.33,44.15-46.33s34.75,15.61,34.75,30.22h-63.62c-.17,1.85-.33,3.52-.33,5.37,0,21.99,13.43,37.6,34.75,37.6,12.42,0,21.99-5.37,29.04-13.26l1.51,1.68c-7.72,11.75-20.98,25.18-40.46,25.18s-39.78-13.26-39.78-40.46ZM951.49,216.71c-2.18-13.76-11.41-24.68-23-24.84-14.27-.17-21.49,11.75-23.5,24.84h46.5Z"/>
        <path class="cls-1" d="M982.55,271.6c5.54-1.85,6.71-6.88,6.71-18.97v-88.97c0-9.9-2.52-11.58-6.71-13.43v-2.35l22.16-9.74,1.68,1.34v96.52l26.35-26.19c10.74-10.74,10.58-17.12,7.22-18.3v-1.51h21.32v2.35c-5.37,1.68-11.92,4.2-20.48,12.76l-10.74,10.74,19.98,36.09c6.55,11.75,11.75,19.64,19.81,19.64v2.35h-13.43c-8.23,0-15.95-5.04-24-20.14l-13.93-26.52-12.09,12.09v13.26c0,12.09,1.17,17.12,6.71,18.97v2.35h-30.55v-2.35Z"/>
      </g>
    </g>
  </g>
</svg>