<?xml version="1.0" encoding="UTF-8" standalone="no"?>
<!DOCTYPE svg PUBLIC "-//W3C//DTD SVG 1.1//EN" "http://www.w3.org/Graphics/SVG/1.1/DTD/svg11.dtd">
<svg width="100%" height="100%" viewBox="0 0 688 84" version="1.1" xmlns="http://www.w3.org/2000/svg" xmlns:xlink="http://www.w3.org/1999/xlink" xml:space="preserve" xmlns:serif="http://www.serif.com/" style="fill-rule:evenodd;clip-rule:evenodd;stroke-linejoin:round;stroke-miterlimit:2;">
    <g transform="matrix(1,0,0,1,-401.21,-1358.16)">
        <g transform="matrix(10.5016,0,0,10.5016,-1923.51,-3534.31)">
            <path d="M231.367,473.851C230.762,473.851 230.46,473.707 230.46,473.419C230.46,473.319 230.501,473.225 230.583,473.137C230.665,473.049 230.739,473.005 230.803,473.005C230.88,473.005 230.953,473.021 231.023,473.053C231.094,473.086 231.159,473.143 231.217,473.225C231.294,473.319 231.363,473.387 231.424,473.428C231.486,473.469 231.555,473.489 231.631,473.489C231.837,473.489 231.985,473.365 232.076,473.115C232.167,472.865 232.213,472.526 232.213,472.098L232.213,467.235C232.213,467.029 232.169,466.884 232.081,466.799C231.992,466.713 231.843,466.65 231.631,466.609C231.437,466.574 231.341,466.515 231.341,466.433C231.341,466.398 231.364,466.373 231.411,466.358C231.458,466.343 231.52,466.336 231.596,466.336C231.755,466.336 231.885,466.339 231.988,466.345C232.091,466.351 232.189,466.355 232.283,466.358C232.377,466.361 232.492,466.362 232.627,466.362C232.738,466.362 232.825,466.361 232.887,466.358C232.948,466.355 233.019,466.351 233.098,466.345C233.177,466.339 233.296,466.336 233.455,466.336C233.531,466.336 233.593,466.343 233.64,466.358C233.687,466.373 233.71,466.398 233.71,466.433C233.71,466.474 233.687,466.509 233.64,466.539C233.593,466.568 233.519,466.592 233.42,466.609C233.202,466.65 233.064,466.713 233.006,466.799C232.947,466.884 232.918,467.029 232.918,467.235L232.918,471.675C232.918,471.921 232.879,472.153 232.803,472.371C232.727,472.588 232.634,472.782 232.525,472.952C232.417,473.122 232.316,473.263 232.222,473.375C232.104,473.516 231.975,473.63 231.834,473.719C231.693,473.807 231.537,473.851 231.367,473.851Z" style="fill:rgb(64,64,64);fill-rule:nonzero;"/>
        </g>
        <g transform="matrix(10.5016,0,0,10.5016,-1923.51,-3534.31)">
            <path d="M234.891,472.212C234.785,472.212 234.678,472.171 234.569,472.089C234.461,472.007 234.37,471.907 234.296,471.789C234.223,471.672 234.186,471.56 234.186,471.454C234.186,471.267 234.236,471.12 234.336,471.014C234.436,470.908 234.594,470.811 234.812,470.723L235.71,470.353C235.828,470.306 235.897,470.265 235.917,470.23C235.938,470.195 235.951,470.118 235.957,470.001L235.974,469.437C235.98,469.284 235.938,469.152 235.847,469.041C235.756,468.929 235.625,468.873 235.455,468.873C235.367,468.873 235.278,468.888 235.19,468.917C235.102,468.947 235.029,468.985 234.97,469.032C234.935,469.055 234.911,469.091 234.9,469.138C234.888,469.185 234.882,469.234 234.882,469.287C234.882,469.311 234.884,469.337 234.886,469.367C234.889,469.396 234.891,469.422 234.891,469.446C234.891,469.475 234.854,469.515 234.781,469.565C234.707,469.615 234.625,469.659 234.534,469.697C234.443,469.735 234.368,469.754 234.309,469.754C234.28,469.754 234.257,469.747 234.239,469.732C234.221,469.717 234.213,469.698 234.213,469.675C234.213,469.581 234.243,469.48 234.305,469.371C234.367,469.262 234.453,469.161 234.565,469.067C234.7,468.944 234.847,468.835 235.005,468.741C235.164,468.647 235.32,468.574 235.472,468.521C235.625,468.468 235.76,468.442 235.878,468.442C236.089,468.442 236.264,468.516 236.402,468.666C236.54,468.816 236.606,469.002 236.6,469.226L236.556,471.34C236.55,471.463 236.578,471.563 236.64,471.639C236.701,471.716 236.779,471.754 236.873,471.754C237.02,471.754 237.129,471.722 237.199,471.657C237.228,471.628 237.252,471.613 237.269,471.613C237.299,471.613 237.322,471.622 237.34,471.639C237.358,471.657 237.366,471.681 237.366,471.71C237.366,471.775 237.334,471.839 237.269,471.904C237.175,471.998 237.074,472.073 236.966,472.128C236.857,472.184 236.756,472.212 236.662,472.212C236.391,472.212 236.177,472.059 236.018,471.754L235.992,471.754C235.798,471.913 235.613,472.029 235.437,472.102C235.261,472.175 235.079,472.212 234.891,472.212ZM235.305,471.789C235.422,471.789 235.522,471.77 235.604,471.732C235.687,471.694 235.76,471.642 235.825,471.578C235.854,471.548 235.879,471.509 235.9,471.459C235.92,471.409 235.933,471.328 235.939,471.217L235.957,470.785C235.963,470.72 235.96,470.673 235.948,470.644C235.936,470.615 235.913,470.6 235.878,470.6C235.866,470.6 235.845,470.603 235.816,470.609C235.787,470.615 235.748,470.626 235.701,470.644C235.39,470.756 235.174,470.872 235.054,470.992C234.933,471.112 234.873,471.222 234.873,471.322C234.873,471.475 234.919,471.591 235.01,471.67C235.101,471.75 235.199,471.789 235.305,471.789Z" style="fill:rgb(64,64,64);fill-rule:nonzero;"/>
        </g>
        <g transform="matrix(10.5016,0,0,10.5016,-1923.51,-3534.31)">
            <path d="M237.543,472.115C237.407,472.115 237.34,472.083 237.34,472.018C237.34,471.971 237.362,471.94 237.406,471.926C237.45,471.911 237.496,471.895 237.543,471.877C237.631,471.848 237.716,471.81 237.798,471.763C237.88,471.716 237.921,471.634 237.921,471.516L237.921,467.103C237.921,466.897 237.892,466.747 237.833,466.653C237.775,466.559 237.672,466.495 237.525,466.459C237.472,466.448 237.446,466.409 237.446,466.345C237.446,466.286 237.469,466.251 237.516,466.239C237.669,466.204 237.801,466.167 237.913,466.129C238.024,466.091 238.125,466.053 238.216,466.015C238.308,465.976 238.397,465.94 238.485,465.904C238.52,465.887 238.547,465.878 238.564,465.878C238.582,465.878 238.595,465.884 238.604,465.896C238.613,465.907 238.617,465.928 238.617,465.957C238.617,466.016 238.604,466.133 238.578,466.31C238.551,466.486 238.538,466.762 238.538,467.138L238.538,470.027C238.538,470.08 238.553,470.107 238.582,470.107C238.617,470.107 238.663,470.092 238.719,470.063C238.774,470.033 238.835,469.989 238.899,469.93C239.14,469.725 239.341,469.538 239.503,469.371C239.664,469.204 239.774,469.088 239.833,469.023C239.862,468.988 239.883,468.96 239.895,468.939C239.906,468.919 239.912,468.903 239.912,468.891C239.912,468.861 239.887,468.835 239.837,468.812C239.788,468.788 239.736,468.77 239.683,468.759C239.613,468.741 239.578,468.712 239.578,468.671C239.578,468.641 239.595,468.616 239.63,468.596C239.666,468.575 239.713,468.565 239.771,468.565L240.203,468.565C240.297,468.565 240.395,468.556 240.498,468.538C240.601,468.521 240.698,468.503 240.789,468.486C240.88,468.468 240.952,468.459 241.005,468.459C241.087,468.459 241.128,468.489 241.128,468.547C241.128,468.583 241.108,468.613 241.066,468.64C241.025,468.666 240.972,468.688 240.908,468.706C240.796,468.735 240.692,468.776 240.595,468.829C240.498,468.882 240.409,468.932 240.326,468.979C240.291,469.002 240.21,469.066 240.084,469.168C239.958,469.271 239.814,469.39 239.652,469.525C239.491,469.66 239.34,469.789 239.199,469.913C239.164,469.948 239.146,469.977 239.146,470.001C239.146,470.007 239.149,470.016 239.155,470.027C239.161,470.039 239.166,470.051 239.172,470.063C239.325,470.25 239.489,470.441 239.666,470.635C239.842,470.829 240.005,470.999 240.155,471.146C240.304,471.293 240.409,471.396 240.467,471.454C240.567,471.548 240.68,471.632 240.807,471.706C240.933,471.779 241.04,471.83 241.128,471.86C241.193,471.883 241.253,471.904 241.309,471.921C241.364,471.939 241.392,471.971 241.392,472.018C241.392,472.083 241.334,472.115 241.216,472.115C240.987,472.115 240.73,472.111 240.445,472.102C240.16,472.093 239.868,472.089 239.569,472.089C239.463,472.089 239.41,472.062 239.41,472.009C239.41,471.974 239.425,471.945 239.454,471.921C239.484,471.898 239.519,471.88 239.56,471.869C239.625,471.845 239.68,471.819 239.727,471.789C239.774,471.76 239.798,471.719 239.798,471.666C239.798,471.648 239.792,471.629 239.78,471.609C239.768,471.588 239.754,471.566 239.736,471.543L238.67,470.336C238.635,470.295 238.606,470.274 238.582,470.274C238.553,470.274 238.538,470.295 238.538,470.336C238.532,470.418 238.529,470.507 238.529,470.604L238.529,471.208C238.529,471.314 238.532,471.416 238.538,471.516C238.538,471.634 238.567,471.716 238.626,471.763C238.685,471.81 238.758,471.848 238.846,471.877C238.893,471.895 238.939,471.911 238.983,471.926C239.027,471.94 239.049,471.971 239.049,472.018C239.049,472.059 239.021,472.086 238.965,472.098C238.91,472.109 238.87,472.115 238.846,472.115C238.735,472.115 238.653,472.111 238.6,472.102C238.547,472.093 238.498,472.086 238.454,472.08C238.41,472.074 238.335,472.071 238.23,472.071C238.13,472.071 238.051,472.074 237.992,472.08C237.933,472.086 237.873,472.093 237.811,472.102C237.75,472.111 237.66,472.115 237.543,472.115Z" style="fill:rgb(64,64,64);fill-rule:nonzero;"/>
        </g>
        <g transform="matrix(10.5016,0,0,10.5016,-1923.51,-3534.31)">
            <path d="M243.163,472.212C242.834,472.212 242.538,472.136 242.273,471.983C242.009,471.83 241.799,471.62 241.643,471.353C241.488,471.086 241.41,470.782 241.41,470.441C241.41,470.195 241.458,469.954 241.555,469.719C241.652,469.484 241.789,469.27 241.965,469.076C242.141,468.882 242.347,468.728 242.582,468.613C242.817,468.499 243.069,468.442 243.339,468.442C243.68,468.442 243.987,468.524 244.26,468.688C244.533,468.853 244.75,469.069 244.912,469.336C245.073,469.603 245.154,469.895 245.154,470.212C245.154,470.553 245.079,470.876 244.929,471.181C244.78,471.487 244.558,471.735 244.264,471.926C243.971,472.117 243.604,472.212 243.163,472.212ZM243.348,471.948C243.548,471.948 243.727,471.91 243.885,471.833C244.044,471.757 244.167,471.634 244.255,471.463C244.326,471.328 244.373,471.164 244.396,470.97C244.42,470.776 244.432,470.594 244.432,470.424C244.432,470.142 244.38,469.87 244.278,469.609C244.175,469.347 244.031,469.133 243.846,468.966C243.661,468.798 243.442,468.715 243.19,468.715C243.031,468.715 242.889,468.74 242.762,468.79C242.636,468.839 242.52,468.932 242.414,469.067C242.297,469.214 242.22,469.393 242.185,469.604C242.15,469.816 242.132,470.027 242.132,470.239C242.132,470.527 242.185,470.801 242.291,471.062C242.397,471.324 242.541,471.537 242.723,471.701C242.905,471.866 243.113,471.948 243.348,471.948Z" style="fill:rgb(64,64,64);fill-rule:nonzero;"/>
        </g>
        <g transform="matrix(10.5016,0,0,10.5016,-1923.51,-3534.31)">
            <path d="M247.541,472.212C247.412,472.212 247.283,472.2 247.154,472.177C247.025,472.153 246.901,472.127 246.784,472.098C246.655,472.062 246.542,472.03 246.445,472.001C246.348,471.971 246.285,471.957 246.255,471.957C246.22,471.957 246.186,471.968 246.154,471.992C246.122,472.015 246.091,472.042 246.061,472.071C246.032,472.1 246.006,472.115 245.982,472.115C245.959,472.115 245.932,472.105 245.903,472.084C245.874,472.064 245.859,472.039 245.859,472.009C245.859,471.957 245.869,471.866 245.89,471.736C245.91,471.607 245.921,471.487 245.921,471.375L245.921,467.103C245.921,466.95 245.882,466.818 245.806,466.706C245.73,466.594 245.633,466.512 245.515,466.459C245.492,466.448 245.467,466.432 245.44,466.411C245.414,466.39 245.401,466.362 245.401,466.327C245.401,466.298 245.412,466.277 245.436,466.266C245.459,466.254 245.483,466.245 245.506,466.239C245.583,466.222 245.687,466.189 245.819,466.142C245.951,466.095 246.076,466.048 246.194,466.001C246.311,465.954 246.39,465.922 246.431,465.904C246.467,465.887 246.493,465.878 246.511,465.878C246.522,465.878 246.534,465.884 246.546,465.896C246.558,465.907 246.564,465.922 246.564,465.94C246.564,465.963 246.559,466.061 246.55,466.235C246.542,466.408 246.537,466.618 246.537,466.865L246.537,468.671C246.537,468.782 246.543,468.857 246.555,468.895C246.567,468.933 246.587,468.955 246.616,468.961C246.799,468.809 247.01,468.684 247.251,468.587C247.492,468.49 247.709,468.442 247.903,468.442C248.202,468.442 248.471,468.518 248.709,468.671C248.947,468.823 249.136,469.03 249.277,469.292C249.418,469.553 249.488,469.848 249.488,470.177C249.488,470.576 249.406,470.93 249.242,471.239C249.077,471.547 248.85,471.786 248.559,471.957C248.268,472.127 247.929,472.212 247.541,472.212ZM247.744,471.939C247.967,471.939 248.16,471.87 248.321,471.732C248.483,471.594 248.607,471.406 248.696,471.168C248.784,470.93 248.828,470.665 248.828,470.371C248.828,470.142 248.785,469.907 248.7,469.666C248.615,469.425 248.483,469.223 248.304,469.058C248.124,468.894 247.894,468.812 247.612,468.812C247.377,468.812 247.171,468.85 246.995,468.926C246.819,469.002 246.666,469.099 246.537,469.217L246.537,470.926C246.537,471.131 246.594,471.311 246.709,471.463C246.823,471.616 246.973,471.733 247.158,471.816C247.343,471.898 247.539,471.939 247.744,471.939Z" style="fill:rgb(64,64,64);fill-rule:nonzero;"/>
        </g>
        <g transform="matrix(10.5016,0,0,10.5016,-1923.51,-3534.31)">
            <path d="M251.576,472.133C251.5,472.133 251.438,472.125 251.391,472.111C251.344,472.096 251.321,472.071 251.321,472.036C251.321,471.995 251.344,471.962 251.391,471.939C251.438,471.915 251.512,471.895 251.612,471.877C251.758,471.848 251.879,471.777 251.973,471.666C252.067,471.554 252.128,471.396 252.158,471.19C252.228,470.662 252.29,470.158 252.343,469.679C252.396,469.201 252.438,468.769 252.47,468.384C252.503,468 252.519,467.684 252.519,467.437L252.519,467.288C252.519,467.235 252.516,467.188 252.51,467.147C252.504,467.1 252.495,467.051 252.484,467.001C252.472,466.951 252.437,466.903 252.378,466.856C252.272,466.768 252.169,466.708 252.07,466.675C251.97,466.643 251.852,466.615 251.717,466.592C251.659,466.58 251.612,466.558 251.576,466.525C251.541,466.493 251.523,466.456 251.523,466.415C251.523,466.368 251.551,466.34 251.607,466.332C251.663,466.323 251.735,466.318 251.823,466.318C251.882,466.318 251.971,466.321 252.092,466.327C252.212,466.333 252.343,466.342 252.484,466.354C252.625,466.365 252.755,466.374 252.876,466.38C252.996,466.386 253.086,466.389 253.144,466.389C253.186,466.389 253.221,466.401 253.25,466.424C253.279,466.448 253.3,466.483 253.312,466.53C253.341,466.636 253.371,466.747 253.4,466.865C253.429,466.982 253.464,467.097 253.506,467.208L254.898,470.741C254.915,470.782 254.947,470.807 254.994,470.816C255.041,470.825 255.077,470.808 255.1,470.767L256.836,467.155C256.865,467.056 256.894,466.944 256.924,466.821C256.953,466.697 256.977,466.589 256.994,466.495C257.012,466.418 257.041,466.38 257.082,466.38L257.399,466.38C257.576,466.38 257.762,466.368 257.959,466.345C258.156,466.321 258.304,466.31 258.404,466.31C258.433,466.31 258.471,466.314 258.518,466.323C258.565,466.332 258.589,466.357 258.589,466.398C258.589,466.439 258.573,466.471 258.54,466.495C258.508,466.518 258.448,466.547 258.36,466.583C258.283,466.612 258.198,466.644 258.104,466.68C258.01,466.715 257.922,466.75 257.84,466.785C257.781,466.809 257.731,466.848 257.69,466.904C257.649,466.96 257.628,467.02 257.628,467.085C257.628,467.496 257.636,467.882 257.651,468.243C257.665,468.605 257.681,468.951 257.699,469.283C257.717,469.615 257.737,469.942 257.761,470.265C257.784,470.588 257.805,470.917 257.822,471.252C257.834,471.434 257.893,471.573 257.998,471.67C258.104,471.767 258.266,471.836 258.483,471.877C258.583,471.895 258.656,471.915 258.703,471.939C258.75,471.962 258.774,471.995 258.774,472.036C258.774,472.071 258.75,472.096 258.703,472.111C258.656,472.125 258.595,472.133 258.518,472.133C258.36,472.133 258.229,472.128 258.126,472.12C258.023,472.111 257.925,472.103 257.831,472.098C257.737,472.092 257.623,472.089 257.488,472.089C257.37,472.089 257.272,472.092 257.192,472.098C257.113,472.103 257.028,472.111 256.937,472.12C256.846,472.128 256.721,472.133 256.563,472.133C256.486,472.133 256.425,472.125 256.378,472.111C256.331,472.096 256.307,472.071 256.307,472.036C256.307,471.995 256.331,471.961 256.378,471.935C256.425,471.908 256.498,471.889 256.598,471.877C256.768,471.854 256.886,471.794 256.95,471.697C257.015,471.6 257.047,471.449 257.047,471.243C257.047,470.82 257.043,470.438 257.034,470.098C257.025,469.757 257.012,469.421 256.994,469.089C256.977,468.757 256.959,468.395 256.941,468.001C256.935,467.936 256.918,467.906 256.888,467.909C256.859,467.912 256.83,467.942 256.8,468.001L254.774,472.133C254.762,472.162 254.736,472.178 254.695,472.181C254.654,472.184 254.627,472.165 254.616,472.124C254.387,471.437 254.141,470.76 253.88,470.093C253.619,469.427 253.324,468.709 252.995,467.939C252.983,467.91 252.962,467.895 252.933,467.895C252.904,467.895 252.886,467.91 252.88,467.939C252.827,468.351 252.779,468.728 252.735,469.071C252.691,469.415 252.657,469.754 252.633,470.089C252.61,470.424 252.598,470.791 252.598,471.19C252.598,471.349 252.648,471.494 252.748,471.626C252.848,471.758 252.989,471.842 253.171,471.877C253.271,471.895 253.344,471.915 253.391,471.939C253.438,471.962 253.462,471.995 253.462,472.036C253.462,472.071 253.438,472.096 253.391,472.111C253.344,472.125 253.282,472.133 253.206,472.133C253.047,472.133 252.929,472.128 252.849,472.12C252.77,472.111 252.7,472.103 252.638,472.098C252.576,472.092 252.49,472.089 252.378,472.089C252.272,472.089 252.19,472.092 252.131,472.098C252.073,472.103 252.005,472.111 251.929,472.12C251.852,472.128 251.735,472.133 251.576,472.133Z" style="fill:rgb(64,64,64);fill-rule:nonzero;"/>
        </g>
        <g transform="matrix(10.5016,0,0,10.5016,-1923.51,-3534.31)">
            <path d="M259.743,472.212C259.637,472.212 259.53,472.171 259.421,472.089C259.313,472.007 259.222,471.907 259.148,471.789C259.075,471.672 259.038,471.56 259.038,471.454C259.038,471.267 259.088,471.12 259.188,471.014C259.288,470.908 259.446,470.811 259.664,470.723L260.562,470.353C260.68,470.306 260.749,470.265 260.769,470.23C260.79,470.195 260.803,470.118 260.809,470.001L260.826,469.437C260.832,469.284 260.79,469.152 260.699,469.041C260.608,468.929 260.477,468.873 260.307,468.873C260.219,468.873 260.13,468.888 260.042,468.917C259.954,468.947 259.881,468.985 259.822,469.032C259.787,469.055 259.763,469.091 259.752,469.138C259.74,469.185 259.734,469.234 259.734,469.287C259.734,469.311 259.735,469.337 259.738,469.367C259.741,469.396 259.743,469.422 259.743,469.446C259.743,469.475 259.706,469.515 259.633,469.565C259.559,469.615 259.477,469.659 259.386,469.697C259.295,469.735 259.22,469.754 259.161,469.754C259.132,469.754 259.109,469.747 259.091,469.732C259.073,469.717 259.064,469.698 259.064,469.675C259.064,469.581 259.095,469.48 259.157,469.371C259.219,469.262 259.305,469.161 259.417,469.067C259.552,468.944 259.699,468.835 259.857,468.741C260.016,468.647 260.172,468.574 260.324,468.521C260.477,468.468 260.612,468.442 260.729,468.442C260.941,468.442 261.116,468.516 261.254,468.666C261.392,468.816 261.458,469.002 261.452,469.226L261.408,471.34C261.402,471.463 261.43,471.563 261.492,471.639C261.553,471.716 261.631,471.754 261.725,471.754C261.872,471.754 261.98,471.722 262.051,471.657C262.08,471.628 262.104,471.613 262.121,471.613C262.151,471.613 262.174,471.622 262.192,471.639C262.209,471.657 262.218,471.681 262.218,471.71C262.218,471.775 262.186,471.839 262.121,471.904C262.027,471.998 261.926,472.073 261.817,472.128C261.709,472.184 261.607,472.212 261.514,472.212C261.243,472.212 261.029,472.059 260.87,471.754L260.844,471.754C260.65,471.913 260.465,472.029 260.289,472.102C260.113,472.175 259.931,472.212 259.743,472.212ZM260.157,471.789C260.274,471.789 260.374,471.77 260.456,471.732C260.539,471.694 260.612,471.642 260.677,471.578C260.706,471.548 260.731,471.509 260.751,471.459C260.772,471.409 260.785,471.328 260.791,471.217L260.809,470.785C260.815,470.72 260.812,470.673 260.8,470.644C260.788,470.615 260.765,470.6 260.729,470.6C260.718,470.6 260.697,470.603 260.668,470.609C260.638,470.615 260.6,470.626 260.553,470.644C260.242,470.756 260.026,470.872 259.906,470.992C259.785,471.112 259.725,471.222 259.725,471.322C259.725,471.475 259.771,471.591 259.862,471.67C259.953,471.75 260.051,471.789 260.157,471.789Z" style="fill:rgb(64,64,64);fill-rule:nonzero;"/>
        </g>
        <g transform="matrix(10.5016,0,0,10.5016,-1923.51,-3534.31)">
            <path d="M263.69,472.212C263.402,472.212 263.177,472.124 263.016,471.948C262.854,471.772 262.773,471.51 262.773,471.164L262.773,469.12C262.773,469.073 262.756,469.039 262.72,469.019C262.685,468.998 262.609,468.988 262.491,468.988L262.439,468.988C262.409,468.988 262.384,468.969 262.364,468.93C262.343,468.892 262.333,468.853 262.333,468.812C262.333,468.8 262.342,468.782 262.359,468.759C262.377,468.735 262.389,468.721 262.394,468.715C262.512,468.632 262.619,468.55 262.716,468.468C262.813,468.386 262.901,468.305 262.98,468.226C263.06,468.146 263.126,468.074 263.179,468.01C263.208,467.981 263.233,467.956 263.253,467.935C263.274,467.914 263.299,467.904 263.328,467.904C263.358,467.904 263.386,467.91 263.412,467.922C263.438,467.934 263.449,467.96 263.443,468.001L263.399,468.398C263.393,468.462 263.408,468.506 263.443,468.53C263.478,468.553 263.534,468.565 263.61,468.565L264.615,468.565C264.638,468.565 264.659,468.584 264.676,468.622C264.694,468.66 264.703,468.706 264.703,468.759C264.703,468.812 264.694,468.863 264.676,468.913C264.659,468.963 264.638,468.988 264.615,468.988L263.742,468.988C263.596,468.988 263.5,469 263.456,469.023C263.412,469.046 263.39,469.117 263.39,469.234L263.39,470.97C263.39,471.205 263.44,471.39 263.54,471.525C263.64,471.66 263.783,471.728 263.971,471.728C264.142,471.728 264.274,471.714 264.368,471.688C264.462,471.661 264.547,471.622 264.623,471.569C264.635,471.557 264.647,471.551 264.659,471.551C264.682,471.551 264.698,471.565 264.707,471.591C264.716,471.617 264.72,471.645 264.72,471.675C264.72,471.704 264.672,471.763 264.575,471.851C264.478,471.939 264.352,472.021 264.196,472.098C264.04,472.174 263.872,472.212 263.69,472.212Z" style="fill:rgb(64,64,64);fill-rule:nonzero;"/>
        </g>
        <g transform="matrix(10.5016,0,0,10.5016,-1923.51,-3534.31)">
            <path d="M267.812,472.256C267.771,472.256 267.751,472.233 267.751,472.186C267.751,472.127 267.758,472.04 267.773,471.926C267.787,471.811 267.795,471.716 267.795,471.639L267.795,471.587C267.566,471.81 267.335,471.97 267.103,472.067C266.871,472.164 266.617,472.212 266.341,472.212C266.153,472.212 265.983,472.172 265.83,472.093C265.678,472.014 265.557,471.896 265.469,471.741C265.381,471.585 265.337,471.393 265.337,471.164L265.337,469.375C265.337,469.246 265.308,469.143 265.249,469.067C265.19,468.991 265.093,468.926 264.958,468.873C264.929,468.861 264.902,468.847 264.879,468.829C264.855,468.812 264.844,468.779 264.844,468.732C264.844,468.679 264.857,468.644 264.883,468.627C264.91,468.609 264.94,468.597 264.976,468.591C265.175,468.58 265.33,468.563 265.438,468.543C265.547,468.522 265.683,468.491 265.848,468.45C265.865,468.445 265.879,468.442 265.888,468.442L265.918,468.442C265.983,468.442 266.012,468.483 266.006,468.565C265.989,468.7 265.976,468.813 265.967,468.904C265.958,468.995 265.954,469.108 265.954,469.243L265.954,470.961C265.954,471.102 265.989,471.233 266.059,471.353C266.13,471.474 266.222,471.572 266.337,471.648C266.451,471.725 266.57,471.763 266.694,471.763C266.846,471.763 266.98,471.754 267.094,471.736C267.209,471.719 267.322,471.669 267.434,471.587C267.498,471.54 267.58,471.463 267.68,471.358C267.78,471.252 267.83,471.108 267.83,470.926L267.83,469.314C267.83,469.19 267.793,469.098 267.72,469.036C267.646,468.975 267.563,468.932 267.469,468.908C267.375,468.885 267.299,468.873 267.24,468.873C267.187,468.873 267.143,468.863 267.108,468.842C267.072,468.822 267.055,468.782 267.055,468.723C267.055,468.671 267.074,468.635 267.112,468.618C267.15,468.6 267.193,468.591 267.24,468.591C267.422,468.585 267.573,468.578 267.693,468.569C267.814,468.56 267.923,468.546 268.019,468.525C268.116,468.505 268.218,468.48 268.323,468.45C268.335,468.445 268.35,468.44 268.367,468.437C268.385,468.434 268.4,468.433 268.411,468.433C268.488,468.433 268.526,468.465 268.526,468.53C268.526,468.536 268.525,468.546 268.522,468.56C268.519,468.575 268.514,468.591 268.508,468.609C268.502,468.627 268.495,468.676 268.486,468.759C268.478,468.841 268.469,468.926 268.46,469.014C268.451,469.102 268.447,469.17 268.447,469.217L268.447,471.252C268.447,471.41 268.463,471.523 268.495,471.591C268.527,471.659 268.564,471.692 268.605,471.692C268.652,471.692 268.721,471.688 268.812,471.679C268.903,471.67 268.969,471.666 269.011,471.666C269.04,471.666 269.069,471.672 269.099,471.684C269.128,471.695 269.143,471.728 269.143,471.78C269.143,471.827 269.131,471.858 269.107,471.873C269.084,471.888 269.055,471.898 269.019,471.904C268.79,471.933 268.594,471.977 268.429,472.036C268.265,472.095 268.118,472.15 267.989,472.203C267.971,472.209 267.945,472.219 267.909,472.234C267.874,472.249 267.842,472.256 267.812,472.256Z" style="fill:rgb(64,64,64);fill-rule:nonzero;"/>
        </g>
        <g transform="matrix(10.5016,0,0,10.5016,-1923.51,-3534.31)">
            <path d="M270.297,472.212C270.115,472.212 269.944,472.184 269.786,472.128C269.627,472.073 269.492,471.995 269.381,471.895C269.351,471.83 269.329,471.722 269.314,471.569C269.3,471.416 269.289,471.29 269.284,471.19C269.284,471.137 269.322,471.111 269.398,471.111C269.422,471.111 269.444,471.115 269.464,471.124C269.485,471.133 269.498,471.149 269.504,471.173C269.58,471.46 269.702,471.666 269.869,471.789C270.037,471.913 270.206,471.974 270.376,471.974C270.546,471.974 270.692,471.917 270.812,471.802C270.932,471.688 270.993,471.545 270.993,471.375C270.993,471.217 270.94,471.08 270.834,470.966C270.728,470.851 270.543,470.712 270.279,470.547C270.079,470.424 269.918,470.306 269.795,470.195C269.671,470.083 269.582,469.969 269.526,469.851C269.47,469.734 269.442,469.601 269.442,469.455C269.442,469.267 269.486,469.096 269.574,468.944C269.662,468.791 269.795,468.669 269.971,468.578C270.147,468.487 270.367,468.442 270.631,468.442C270.808,468.442 270.955,468.459 271.072,468.494C271.189,468.53 271.278,468.568 271.336,468.609C271.383,468.674 271.423,468.775 271.455,468.913C271.487,469.051 271.504,469.182 271.504,469.305C271.504,469.346 271.474,469.367 271.416,469.367C271.38,469.367 271.347,469.359 271.314,469.345C271.282,469.33 271.26,469.311 271.248,469.287C271.172,469.093 271.076,468.945 270.962,468.842C270.847,468.74 270.705,468.688 270.535,468.688C270.388,468.688 270.257,468.732 270.143,468.82C270.028,468.908 269.971,469.038 269.971,469.208C269.971,469.343 270.013,469.463 270.099,469.569C270.184,469.675 270.344,469.795 270.579,469.93C270.919,470.124 271.173,470.305 271.341,470.472C271.508,470.64 271.592,470.861 271.592,471.137C271.592,471.454 271.471,471.713 271.231,471.913C270.99,472.112 270.678,472.212 270.297,472.212Z" style="fill:rgb(64,64,64);fill-rule:nonzero;"/>
        </g>
        <g transform="matrix(10.5016,0,0,10.5016,-1923.51,-3534.31)">
            <path d="M273.547,472.221C273.254,472.221 272.988,472.146 272.75,471.996C272.512,471.846 272.324,471.641 272.186,471.38C272.048,471.118 271.979,470.826 271.979,470.503C271.979,470.121 272.063,469.775 272.23,469.463C272.398,469.152 272.622,468.904 272.904,468.719C273.186,468.534 273.498,468.442 273.838,468.442C274.22,468.442 274.555,468.544 274.842,468.75C274.913,468.803 274.948,468.859 274.948,468.917C274.948,468.964 274.928,469.017 274.887,469.076C274.845,469.135 274.796,469.183 274.737,469.221C274.678,469.259 274.622,469.278 274.569,469.278C274.54,469.278 274.511,469.268 274.481,469.248C274.452,469.227 274.42,469.205 274.384,469.182C274.255,469.082 274.111,468.988 273.953,468.9C273.794,468.812 273.662,468.768 273.556,468.768C273.268,468.768 273.035,468.901 272.856,469.168C272.677,469.436 272.587,469.787 272.587,470.221C272.587,470.497 272.647,470.747 272.768,470.97C272.888,471.193 273.05,471.369 273.252,471.499C273.455,471.628 273.68,471.692 273.926,471.692C274.097,471.692 274.243,471.664 274.367,471.609C274.49,471.553 274.622,471.454 274.763,471.314C274.775,471.302 274.79,471.291 274.807,471.283C274.825,471.274 274.84,471.269 274.851,471.269C274.916,471.269 274.948,471.311 274.948,471.393C274.948,471.428 274.938,471.468 274.917,471.512C274.897,471.556 274.863,471.607 274.816,471.666C274.722,471.783 274.61,471.885 274.481,471.97C274.352,472.055 274.21,472.118 274.054,472.159C273.898,472.2 273.73,472.221 273.547,472.221Z" style="fill:rgb(64,64,64);fill-rule:nonzero;"/>
        </g>
        <g transform="matrix(10.5016,0,0,10.5016,-1923.51,-3534.31)">
            <path d="M275.397,472.115C275.28,472.115 275.221,472.083 275.221,472.018C275.221,471.965 275.289,471.918 275.424,471.877C275.512,471.848 275.596,471.81 275.675,471.763C275.754,471.716 275.797,471.634 275.803,471.516L275.803,467.103C275.803,466.944 275.776,466.804 275.723,466.684C275.671,466.564 275.568,466.492 275.415,466.468C275.362,466.456 275.336,466.415 275.336,466.345C275.336,466.292 275.359,466.257 275.406,466.239C275.489,466.21 275.587,466.177 275.701,466.142C275.816,466.107 275.935,466.067 276.058,466.023C276.182,465.979 276.29,465.937 276.384,465.896C276.408,465.884 276.425,465.878 276.437,465.878C276.455,465.878 276.469,465.884 276.481,465.896C276.493,465.907 276.499,465.922 276.499,465.94C276.499,465.975 276.491,466.025 276.477,466.089C276.462,466.154 276.449,466.266 276.437,466.424C276.425,466.583 276.419,466.821 276.419,467.138L276.419,468.671C276.419,468.765 276.424,468.832 276.433,468.873C276.441,468.914 276.458,468.955 276.481,468.997C276.575,468.926 276.691,468.848 276.829,468.763C276.967,468.678 277.121,468.603 277.292,468.538C277.462,468.474 277.638,468.442 277.82,468.442C278.108,468.442 278.347,468.555 278.538,468.781C278.729,469.007 278.824,469.293 278.824,469.64L278.824,471.49C278.824,471.607 278.863,471.694 278.939,471.75C279.015,471.805 279.098,471.848 279.186,471.877C279.25,471.895 279.3,471.914 279.335,471.935C279.371,471.955 279.388,471.983 279.388,472.018C279.388,472.083 279.33,472.115 279.212,472.115C279.095,472.115 279.005,472.111 278.943,472.102C278.882,472.093 278.823,472.086 278.767,472.08C278.711,472.074 278.631,472.071 278.525,472.071C278.425,472.071 278.346,472.074 278.287,472.08C278.228,472.086 278.168,472.093 278.106,472.102C278.045,472.111 277.955,472.115 277.838,472.115C277.72,472.115 277.662,472.083 277.662,472.018C277.662,471.977 277.679,471.949 277.714,471.935C277.75,471.92 277.8,471.901 277.864,471.877C277.952,471.848 278.032,471.805 278.102,471.75C278.173,471.694 278.208,471.607 278.208,471.49L278.208,469.693C278.208,469.546 278.165,469.412 278.08,469.292C277.995,469.171 277.891,469.076 277.767,469.005C277.644,468.935 277.518,468.9 277.388,468.9C277.277,468.9 277.148,468.916 277.001,468.948C276.854,468.98 276.739,469.029 276.657,469.093C276.563,469.17 276.5,469.249 276.468,469.331C276.436,469.414 276.419,469.546 276.419,469.728L276.419,471.516C276.425,471.634 276.462,471.716 276.53,471.763C276.597,471.81 276.675,471.848 276.763,471.877C276.828,471.895 276.876,471.914 276.908,471.935C276.941,471.955 276.957,471.983 276.957,472.018C276.957,472.083 276.898,472.115 276.781,472.115C276.663,472.115 276.575,472.111 276.516,472.102C276.458,472.093 276.402,472.086 276.349,472.08C276.296,472.074 276.217,472.071 276.111,472.071C276.011,472.071 275.93,472.074 275.869,472.08C275.807,472.086 275.743,472.093 275.675,472.102C275.607,472.111 275.515,472.115 275.397,472.115Z" style="fill:rgb(64,64,64);fill-rule:nonzero;"/>
        </g>
        <g transform="matrix(10.5016,0,0,10.5016,-1923.51,-3534.31)">
            <path d="M281.265,472.221C280.942,472.221 280.66,472.142 280.419,471.983C280.178,471.824 279.99,471.6 279.855,471.309C279.72,471.018 279.653,470.682 279.653,470.3C279.653,469.96 279.73,469.65 279.886,469.371C280.042,469.092 280.249,468.867 280.507,468.697C280.765,468.527 281.047,468.442 281.353,468.442C281.588,468.442 281.796,468.489 281.978,468.583C282.16,468.676 282.303,468.807 282.406,468.975C282.508,469.142 282.56,469.334 282.56,469.552C282.56,469.734 282.472,469.825 282.295,469.825L280.437,469.825C280.354,469.825 280.297,469.847 280.265,469.891C280.233,469.935 280.216,470.021 280.216,470.151C280.216,470.433 280.278,470.689 280.401,470.921C280.525,471.153 280.689,471.338 280.895,471.476C281.1,471.614 281.326,471.684 281.573,471.684C281.749,471.684 281.909,471.65 282.053,471.582C282.197,471.515 282.325,471.416 282.436,471.287C282.46,471.258 282.477,471.239 282.489,471.23C282.501,471.221 282.516,471.217 282.533,471.217C282.58,471.217 282.604,471.246 282.604,471.305C282.604,471.416 282.551,471.54 282.445,471.675C282.357,471.786 282.251,471.883 282.128,471.965C282.005,472.048 281.87,472.111 281.723,472.155C281.576,472.199 281.423,472.221 281.265,472.221ZM280.454,469.552L281.256,469.552C281.397,469.552 281.517,469.549 281.617,469.543C281.717,469.537 281.814,469.525 281.908,469.508C281.937,469.502 281.956,469.483 281.965,469.45C281.974,469.418 281.978,469.372 281.978,469.314C281.978,469.143 281.903,468.998 281.754,468.878C281.604,468.757 281.426,468.697 281.221,468.697C281.086,468.697 280.95,468.737 280.815,468.816C280.68,468.895 280.569,468.994 280.481,469.111C280.393,469.229 280.348,469.346 280.348,469.463C280.348,469.522 280.384,469.552 280.454,469.552Z" style="fill:rgb(64,64,64);fill-rule:nonzero;"/>
        </g>
        <g transform="matrix(10.5016,0,0,10.5016,-1923.51,-3534.31)">
            <path d="M282.991,472.115C282.856,472.115 282.789,472.083 282.789,472.018C282.789,471.971 282.811,471.94 282.855,471.926C282.899,471.911 282.944,471.895 282.991,471.877C283.079,471.848 283.165,471.81 283.247,471.763C283.329,471.716 283.37,471.634 283.37,471.516L283.37,467.103C283.37,466.897 283.341,466.747 283.282,466.653C283.223,466.559 283.121,466.495 282.974,466.459C282.921,466.448 282.894,466.409 282.894,466.345C282.894,466.286 282.918,466.251 282.965,466.239C283.118,466.204 283.25,466.167 283.361,466.129C283.473,466.091 283.574,466.053 283.665,466.015C283.756,465.976 283.846,465.94 283.934,465.904C283.969,465.887 283.996,465.878 284.013,465.878C284.031,465.878 284.044,465.884 284.053,465.896C284.062,465.907 284.066,465.928 284.066,465.957C284.066,466.016 284.053,466.133 284.027,466.31C284,466.486 283.987,466.762 283.987,467.138L283.987,470.027C283.987,470.08 284.002,470.107 284.031,470.107C284.066,470.107 284.112,470.092 284.167,470.063C284.223,470.033 284.283,469.989 284.348,469.93C284.589,469.725 284.79,469.538 284.952,469.371C285.113,469.204 285.223,469.088 285.282,469.023C285.311,468.988 285.332,468.96 285.344,468.939C285.355,468.919 285.361,468.903 285.361,468.891C285.361,468.861 285.336,468.835 285.286,468.812C285.236,468.788 285.185,468.77 285.132,468.759C285.062,468.741 285.026,468.712 285.026,468.671C285.026,468.641 285.044,468.616 285.079,468.596C285.115,468.575 285.161,468.565 285.22,468.565L285.652,468.565C285.746,468.565 285.844,468.556 285.947,468.538C286.05,468.521 286.147,468.503 286.238,468.486C286.329,468.468 286.401,468.459 286.454,468.459C286.536,468.459 286.577,468.489 286.577,468.547C286.577,468.583 286.556,468.613 286.515,468.64C286.474,468.666 286.421,468.688 286.357,468.706C286.245,468.735 286.141,468.776 286.044,468.829C285.947,468.882 285.857,468.932 285.775,468.979C285.74,469.002 285.659,469.066 285.533,469.168C285.407,469.271 285.263,469.39 285.101,469.525C284.94,469.66 284.789,469.789 284.648,469.913C284.612,469.948 284.595,469.977 284.595,470.001C284.595,470.007 284.598,470.016 284.604,470.027C284.609,470.039 284.615,470.051 284.621,470.063C284.774,470.25 284.938,470.441 285.115,470.635C285.291,470.829 285.454,470.999 285.603,471.146C285.753,471.293 285.857,471.396 285.916,471.454C286.016,471.548 286.129,471.632 286.255,471.706C286.382,471.779 286.489,471.83 286.577,471.86C286.642,471.883 286.702,471.904 286.757,471.921C286.813,471.939 286.841,471.971 286.841,472.018C286.841,472.083 286.782,472.115 286.665,472.115C286.436,472.115 286.179,472.111 285.894,472.102C285.609,472.093 285.317,472.089 285.018,472.089C284.912,472.089 284.859,472.062 284.859,472.009C284.859,471.974 284.874,471.945 284.903,471.921C284.932,471.898 284.968,471.88 285.009,471.869C285.073,471.845 285.129,471.819 285.176,471.789C285.223,471.76 285.247,471.719 285.247,471.666C285.247,471.648 285.241,471.629 285.229,471.609C285.217,471.588 285.203,471.566 285.185,471.543L284.119,470.336C284.084,470.295 284.054,470.274 284.031,470.274C284.002,470.274 283.987,470.295 283.987,470.336C283.981,470.418 283.978,470.507 283.978,470.604L283.978,471.208C283.978,471.314 283.981,471.416 283.987,471.516C283.987,471.634 284.016,471.716 284.075,471.763C284.134,471.81 284.207,471.848 284.295,471.877C284.342,471.895 284.388,471.911 284.432,471.926C284.476,471.94 284.498,471.971 284.498,472.018C284.498,472.059 284.47,472.086 284.414,472.098C284.358,472.109 284.319,472.115 284.295,472.115C284.184,472.115 284.101,472.111 284.049,472.102C283.996,472.093 283.947,472.086 283.903,472.08C283.859,472.074 283.784,472.071 283.679,472.071C283.579,472.071 283.499,472.074 283.441,472.08C283.382,472.086 283.322,472.093 283.26,472.102C283.198,472.111 283.109,472.115 282.991,472.115Z" style="fill:rgb(64,64,64);fill-rule:nonzero;"/>
        </g>
        <g transform="matrix(0.592778,0,0,0.592778,205.519,607.489)">
            <rect x="330.126" y="1292.76" width="8.545" height="81.427" style="fill:rgb(64,64,64);"/>
        </g>
        <g transform="matrix(0.592778,0,0,0.592778,262.67,607.489)">
            <rect x="330.126" y="1292.76" width="8.545" height="81.427" style="fill:rgb(64,64,64);"/>
        </g>
        <g transform="matrix(1.01045,0,0,0.808,80.1388,320.497)">
            <rect x="331.892" y="1292.76" width="5.013" height="81.427" style="fill:rgb(64,64,64);"/>
        </g>
        <g transform="matrix(1.01045,0,0,0.808,108.37,320.497)">
            <rect x="331.892" y="1292.76" width="5.013" height="81.427" style="fill:rgb(64,64,64);"/>
        </g>
        <g transform="matrix(0.660995,0,0,0.531355,211.286,689.396)">
            <rect x="330.567" y="1292.76" width="7.664" height="81.427" style="fill:rgb(64,64,64);"/>
        </g>
    </g>
</svg>
