<?xml version="1.0" encoding="UTF-8"?><svg id="Ebene_2" xmlns="http://www.w3.org/2000/svg" viewBox="0 0 98.74 14.07"><g id="Ebene_1-2"><path d="M14.03.55c-.2.2-.42.32-.57.58-.09.16-.11.13-.26.23-.04.01-.08.05-.12.12-.22.32-1.21,1.19-1.58,1.52-.11.09-.23.2-.32.32-.28.43-1.46,1.47-1.9,1.81-.2.12-.26.39-.43.48-.24.07-2.12,1.74-2.1,2.01.32-.04.63-.36.78-.36.26,0,.39-.18.59-.28.07-.04.09-.05.19-.07.26-.04.93-.42,1.17-.59.27-.16,1.2-.55,1.48-.66.15-.04.38-.23.48-.23.18,0,.31-.13.49-.13.07,0,.09.04.09.15,0,.18-.09.22-.26.26-.2.05-1.93.75-2.09.86-.15.11-.35.12-.47.23-.31.31-1.7.73-1.85.92-.15.18-.34.27-.57.31-.18.04-.24.12-.39.22-.04.04-.05.04-.09.05-.36.12-.71.34-1,.59-.63.58-1.24,1.15-1.77,1.81-.23.28-.47.57-.75.79-.22.18-.34.4-.5.61-.12.16-.28.27-.4.42-.31.38-.59.77-.93,1.13-.2.2-.43.43-.74.43-.12,0-.23-.05-.23-.2,0-.2.12-.34.19-.51.15-.36.12-.65.43-.96.23-.26.34-.57.59-.78.58-.5,1.06-1.09,1.7-1.51.15-.11.36-.22.46-.36.23-.34.96-.42,1.43-1.02.16-.22.39-.32.59-.53.36-.43,1.87-1.9,2.29-2.14.47-.26.7-.67,1.11-1,.57-.44,3.89-3.53,3.93-3.93-.21,0-.53.3-.74.3-.12,0-.49.4-.67.4-.55.28-1.17.65-1.75.88-.31.12-.55.35-.86.5-.13.07-.58.46-.58.59.07.09.61-.08.61.49,0,.31-.47.65-.71.78-.09.05-.19.07-.28.12-.09.07-.15.13-.27.13-.39,0-.34-.3-.54-.44-.22,0-.61.31-.82.31-.05,0-.12-.03-.12-.09,0-.19.44-.23.55-.31.11-.05.17-.15.28-.22.28-.15.4-.96.78-1.2.15-.09.27-.23.44-.3.28-.09.55-.3.82-.44.26-.15,1.17-.63,1.41-.7.15-.04.23-.11.34-.2.11-.07,1.31-.67,1.36-.67.15,0,.96-.59,1.21-.7.22-.11.27-.34.61-.34.18,0,.39.08.39.28,0,.12-.05.18-.15.27ZM2.47,11.01c-.11,0-.36.38-.51.46-.34.03-1.09,1.08-1.11,1.43.09,0,.18-.07.23-.11.23-.15.34-.4.49-.62.09-.11.19-.19.28-.28.18-.16.16-.34.42-.48.09-.05.23-.24.24-.35l-.04-.04ZM7.73,4.57s-.09.07-.11.11c0,.03.03.04.07.04.07,0,.09-.03.09-.08,0-.04-.01-.07-.05-.07Z"/><path d="M16.51,7.77c-.09.03-.19.13-.28.18-.32.13-.31.2-.51.24-.09.01-.12,0-.19.05-.09.05-.22.08-.31.08-.05,0-.08.03-.13.03-.09,0-.19.03-.3.03-.09,0-.15-.03-.24-.03-.05,0-.09.01-.13.01-.2,0-.47-.15-.57-.31-.07-.11-.07-.4-.19-.4-.07,0-.12-.01-.19-.01-.26,0-.27.28-.65.35-.15.01-.39.16-.43.16-.09,0-.18.07-.27.07-.05,0-.05-.03-.09-.03-.07,0-.13.05-.22.05-.04,0-.07-.01-.11-.01-.11,0-.19.05-.28.05-.12,0-.26-.04-.36-.04-.12,0-.24-.11-.34-.15-.09-.04-.11-.22-.11-.31,0-.26.49-.62.65-.82.07-.09.16-.11.26-.2.11-.15.3-.19.42-.34.09-.09.46-.2.49-.2.07-.05.16-.07.2-.12.09-.11.26-.18.4-.18.05,0,.09.04.13.04.09,0,.12-.07.22-.07.2,0,.43.13.43.34,0,.22-.39.28-.58.28-.04-.01-.27-.05-.31-.05s-.09.01-.16.05c-.03.01-.05.03-.08.03-.04,0-.08-.01-.13-.01-.07,0-.13.01-.21.07-.15.12-.3.2-.39.27-.05.04-.12.11-.27.22-.09.07-.32.31-.32.42,0,.26.38.36.54.36.23,0,.42-.16.67-.16s.24-.13.4-.16c.01,0,.11-.03.15-.03.15,0,.44-.28.62-.35.12-.04.11-.16.23-.22.11-.05.07-.15.17-.16.22-.05.42-.22.65-.22.07,0,.15.04.15.11,0,.05-.07.23-.12.23-.04,0-.04-.03-.08-.03s-.05.09-.05.13c-.04.2-.17.36-.17.57,0,.26.28.26.49.3.07.01.12.05.21.05.07,0,.11-.05.2-.05.04,0,.05.03.09.03.07,0,.12-.09.28-.09.15,0,.35-.13.47-.18.15-.05.26-.16.4-.16.05,0,.16,0,.16.07,0,.09-.2.2-.3.23Z"/><path d="M21.24,5.07c-.18.22-.55.89-.74,1.04-.23.17-.43.39-.55.65-.11.27-.35.3-.5.5-.22.28-1.52,1.21-1.87,1.21-.2,0-.4.08-.62.08-.07,0-.11-.03-.11-.08,0-.07.03-.15.07-.2.13-.31.32-.22.54-.43.04-.04.09-.12.15-.12s.03.09.23.13c.07,0,.12.01.22.01.2,0,.3-.09.44-.26.15-.17.31-.23.4-.38.15-.23.46-.38.62-.61.15-.22.34-.38.44-.63.07-.19.39-.42.39-.59,0-.13-.07-.2-.22-.2s-.26.07-.3.22c-.09.26-.39.32-.54.53-.11.16-.31.16-.4.32s-.46.22-.61.38c-.2.26-.62.4-.9.63-.22.17-.97.61-1.21.63-.04,0-.07-.04-.07-.07,0-.16.17-.24.27-.3.2-.13.24-.07.51-.26.22-.15.36-.2.54-.35.27-.23.58-.3.81-.59.19-.24.49-.31.71-.57.22-.26.44-.49.77-.61.09-.04.26-.05.32-.16.15-.26.21-.5.5-.67.16-.09.49-.28.69-.28.16,0,.24.28.24.43,0,.22-.11.42-.23.59ZM24.03,7.88c-.19.07-.38.12-.46.19-.05.05-.15.05-.24.05h-.2c-.17,0-.35,0-.46.07-.03.01-.07.03-.13.03-.2,0-.39-.11-.59-.11h-.17c-.22,0-.4-.18-.61-.22-.2-.04-.43-.39-.63-.51-.15-.09-.36-.26-.36-.46,0-.26.46-.36.65-.36.15,0,.31.01.46.01.09,0,.16,0,.26-.04.31-.15.66-.12.97-.27.23-.11.81-.15.81-.51,0-.2.24-.27.42-.27.19,0,.57.09.57.35,0,.23-.26.12-.39.23-.18.11-.36.26-.58.3-.2.01-.38.12-.59.16-.2.04-.39.11-.59.11-.07,0-.13-.03-.2-.03-.17,0-.19.18-.3.24-.09.05-.27-.01-.27.16,0,.04.01.11.05.18.15.32.34.24.58.42.18.15.35.27.61.27.09,0,.19-.01.28-.04.44-.11.93-.08,1.32-.34.15-.09.23-.05.38-.16.01-.01.04-.01.07-.01.09,0,.13.04.13.11,0,.09-.49.38-.75.46Z"/><path d="M28.21,6.88c-.11.15-.34.51-.49.62-.15.09-.28.28-.43.32-.03,0-.05.01-.09.05-.11.11-.11.05-.23.11-.11.04-.16.09-.31.11-.08.01-.17.04-.27.08-.07.07-.15.09-.21.11-.07.01-.15.04-.24.08-.12.04-.21.07-.31.07-.07,0-.15-.01-.26-.01-.05,0-.11.03-.18.03-.04,0-.08-.01-.12-.01s-.05.03-.09.03c-.09,0-.16-.09-.27-.11-.11-.01-.15-.15-.15-.24,0-.26.23-.26.23-.58,0-.07-.01-.13-.01-.2s.04-.12.12-.13c.12-.04.16-.05.26-.15.07-.09.31-.09.42-.16.15-.09.31-.12.46-.22.07-.05.36-.19.46-.19.07,0,.09.04.09.11,0,.18-.16.15-.22.24-.05.15-.2.2-.35.22-.11,0-.5.3-.53.39-.04.11-.26.15-.26.31,0,.18.12.16.27.18.09,0,.16.04.26.04.04,0,.05-.03.11-.03s.11.01.16.01c.11,0,.15-.07.24-.07.45-.04.7-.32,1.09-.48.05-.04.11-.04.15-.08.09-.09.19-.3.19-.42,0-.16-.08-.27-.26-.34-.04-.01-.08-.04-.12-.08-.08-.12-.44-.09-.44-.32,0-.15.09-.32.26-.32.15,0,.26.09.4.09.2,0,.73.58.73.81,0,.05-.01.09-.05.15Z"/><path d="M33.92,3.76c-.08.23-.69.43-.79.75-.11.31-.97.62-.97.86,0,.19-1.25.78-1.5,1.06-.16.16-.5.51-.74.85-.16.22-.27.43-.27.55,0,.22.38.24.54.24.81,0,1.16-1.1,1.7-1.21.07-.01.15-.05.21-.05.04,0,.2.16.24.2.17.16.24.3.32.42.08.12.17.22.42.26.09.01.34.01.43.01.04,0,.15-.03.19-.07.04-.04.11-.04.16-.05l.21-.07c.07-.04.16-.09.26-.09.04,0,.07.03.07.09s-.15.16-.24.22c-.16.08-.32.18-.48.23-.13.05-.45.09-.5.09-.38,0-.5-.04-.55-.09-.07-.07-.03-.13-.2-.17-.2-.04-.21-.08-.21-.28,0-.12-.12-.17-.23-.17-.22,0-.12.31-.39.35-.17,0-.65.77-.98.77-.04,0-.05-.01-.09-.01-.38,0-.71.18-1.1.18-.19,0-.32-.05-.4-.15-.08-.08-.26-.17-.26-.34-.01-.16-.03-.22-.03-.27,0-.08.09-.23.09-.27s.04-.13.15-.22c.24-.2.46-.53.62-.63.15-.11.31-.23.43-.47.19-.38.32-.35.53-.55.2-.26.42-.44.62-.7.31-.38.73-.63,1.06-.97.42-.42.75-.51,1.24-.82.2-.12.59-.38.85-.38.12,0,.19.07.19.2,0,.3-.51.46-.58.71Z"/><path d="M53.93.46c-.01.2-.05.15-.17.26-.07.05-.11.12-.16.22-.15.26-.32.44-.53.7-.28.32-.67.53-.93.86-.17.23-.47.28-.63.51-.18.26-.4.39-.62.59-.11.11-.34.48-.44.53-.15.05-.31.27-.46.38-.15.11-.15.48-.39.66-.28.22-.2.05-.46.42-.22.31-.63.61-.7.94-.11.4-1.16,1.16-1.16,1.5,0,.16.15.3.15.44,0,.2-.67.4-.82.4-.12,0-.15-.22-.15-.31,0-.75,1.21-1.62,1.4-2.17,0-.04.05-.26.11-.26.04,0,.05.03.09.03.12,0,.28-.59.39-.7.09-.09.17-.22.17-.34,0-.07-.04-.09-.11-.09-.24,0-.81.51-1.16.62-.55.18-.96.62-1.48.88-.22.07-.96.53-1.12.53-.04,0-.03-.01-.07-.01-.19,0-.51.35-.74.39-.39.12-.75.4-1.17.4-.23,0-.32-.16-.32-.38,0-.31.16-.63.39-.84.22-.18.28-.5.4-.54.27-.08.65-.58.89-.79.22-.17.42-.39.65-.54.19-.11.59-.81.94-1.09.15-.11.74-.55.74-.74,0-.04-.03-.05-.07-.05-.15,0-.32.09-.43.19-.22.2-.62.5-.89.61-.36.15-.74.5-1.01.77-.39.39-.96.59-1.31,1.05-.12.17-.45.3-.65.36-.48.2-.89.58-1.33.85-.54.34-1.29.66-1.87.97-.23.12-.47.24-.69.39-.32.26-.65.07-.9.22-.05.01-.09.03-.15.03-.26,0-.73-.24-.73-.53,0-.18.11-.35.15-.53.04-.2.38-.55.59-.55.09,0,.19.12.19.22,0,.2-.19.34-.19.5s.2.17.32.17c.32,0,.62-.23.93-.23.23,0,1.15-.51,1.44-.62.23-.09.34-.09.46-.31.11-.18.73-.34.93-.47.46-.36,1.1-1.04,1.63-1.25.54-.22.89-.71,1.39-.89.39-.13.2-.42.7-.67.53-.27,1.25-.59,1.68-1.01.31-.28.98-.54,1.17-.77.11-.11.35-.53.53-.53.2,0,.22.16.22.31,0,.27-.18.5-.4.65-.44.23-.4.5-.7.79-.15.15-.51.51-.7.59-.23.11-.51.42-.63.63-.15.26-.4.4-.61.61-.16.12-.28.27-.43.42-.24.27-.69.9-.93,1.08-.21.17-.74.82-.74,1.1,0,.12.22.12.31.12.15,0,.28-.15.43-.24.09-.05.19-.08.3-.12.16-.04.32-.08.47-.18l.31-.16c.15-.05.28-.15.4-.24.36-.22.7-.47,1.08-.65.34-.15.86-.39,1.12-.65.15-.16.19-.12.35-.22.13-.09.26-.19.35-.28.32-.27.67-.46,1.04-.66.16-.09.34-.15.48-.24.34-.19.43-.58.7-.75.3-.19.32-.48.7-.66.38-.16.71-.4,1.02-.71.16-.2.36-.31.53-.51.12-.18.3-.28.42-.46.07-.09.18-.15.3-.15.11,0,.2.05.2.16v.05Z"/><path d="M56.9,7.77c-.09.03-.19.13-.28.18-.32.13-.31.2-.51.24-.09.01-.12,0-.19.05-.09.05-.22.08-.31.08-.05,0-.08.03-.13.03-.09,0-.19.03-.3.03-.09,0-.15-.03-.24-.03-.05,0-.09.01-.13.01-.2,0-.47-.15-.57-.31-.07-.11-.07-.4-.19-.4-.07,0-.12-.01-.19-.01-.26,0-.27.28-.65.35-.15.01-.39.16-.43.16-.09,0-.18.07-.27.07-.05,0-.05-.03-.09-.03-.07,0-.13.05-.22.05-.04,0-.07-.01-.11-.01-.11,0-.19.05-.28.05-.12,0-.26-.04-.36-.04-.12,0-.24-.11-.34-.15-.09-.04-.11-.22-.11-.31,0-.26.49-.62.65-.82.07-.09.16-.11.26-.2.11-.15.3-.19.42-.34.09-.09.46-.2.49-.2.07-.05.16-.07.2-.12.09-.11.26-.18.4-.18.05,0,.09.04.13.04.09,0,.12-.07.22-.07.2,0,.43.13.43.34,0,.22-.39.28-.58.28-.04-.01-.27-.05-.31-.05s-.09.01-.16.05c-.03.01-.05.03-.08.03-.04,0-.08-.01-.13-.01-.07,0-.13.01-.21.07-.15.12-.3.2-.39.27-.05.04-.12.11-.27.22-.09.07-.32.31-.32.42,0,.26.38.36.54.36.23,0,.42-.16.67-.16s.24-.13.4-.16c.01,0,.11-.03.15-.03.15,0,.44-.28.62-.35.12-.04.11-.16.23-.22.11-.05.07-.15.17-.16.22-.05.42-.22.65-.22.07,0,.15.04.15.11,0,.05-.07.23-.12.23-.04,0-.04-.03-.08-.03s-.05.09-.05.13c-.04.2-.17.36-.17.57,0,.26.28.26.49.3.07.01.12.05.21.05.07,0,.11-.05.2-.05.04,0,.05.03.09.03.07,0,.12-.09.28-.09.15,0,.35-.13.47-.18.15-.05.26-.16.4-.16.05,0,.16,0,.16.07,0,.09-.2.2-.3.23Z"/><path d="M67.43,5.67h-.12c-.2,0-.38-.05-.58-.05-.07,0-.12,0-.15.01-.07.04-.26.04-.46.04h-.44c-.15,0-.3.04-.45.04-.26,0-.5-.04-.75-.04-.2,0-.38.05-.58.05-.15,0-.3-.04-.44-.04-.28,0-.55.05-.82.05-.15,0-.28-.03-.43-.03-.2,0-.4.07-.61.07-.15,0-.27-.04-.42-.04-.42,0-.81.62-1.13.84-.15.09-.3.2-.39.36-.11.22-.48.36-.48.82,0,.24.42.3.59.3.2,0,.36-.01.57-.03.18,0,.35-.13.53-.13.22,0,1.04-.22,1.21-.32,0,0,.12-.04.24-.09.09-.04.26-.16.34-.16.01,0,.03,0,.04.01.04.03.05.07.05.11,0,.01-.01.04-.01.05-.03.11-.13.12-.19.16-.11.07-.38.15-.47.24-.16.15-.46.13-.66.23-.27.12-.75.22-1.06.22-.27,0-.54.12-.82.12-.46,0-1.17-.07-1.17-.67,0-.15.08-.23.19-.3.43-.24.57-.93.92-1.06.09-.05.32-.12.32-.27v-.05s0-.05-.03-.05c-.22,0-.93.63-1.08.78-.16.22-.5.32-.75.44-.07.01-.11.04-.15.08-.12.08-.34.13-.58.26-.18.09-.38.2-.55.27s-.3.16-.4.16c-.05,0-.09-.13-.09-.15.01-.11.3-.22.39-.24.15-.04.21-.15.36-.19.23-.08.12-.04.3-.19.09-.09.28-.04.5-.24.04-.04.28-.18.46-.31.18-.12.35-.27.54-.4.23-.16.47-.34.47-.38,0-.09-.15-.16-.24-.16l-.36.04c-.07,0-.13-.03-.24-.03-.08.01-.2.03-.31.03h-.09s-.09-.01-.13-.03c-.04,0-.12-.01-.16-.04-.04-.03-.09-.11-.09-.12.01-.07.09-.09.23-.13.05-.03.13-.03.2-.03h.15c.07,0,.13,0,.2-.01.09-.01.19-.01.26-.01.15,0,.24.01.31.01h.24c.26,0,.57-.01.85-.08.32-.08.55-.13.77-.34.2-.18.32-.3.59-.35.19-.04.31-.15.55-.3.19-.11.39-.24.58-.38.24-.16.43-.31.65-.42.19-.09.32-.18.46-.18.09,0,.13.04.13.11,0,.09-.12.19-.28.28-.2.11-.39.23-.47.34-.13.16-.47.38-.81.59-.3.19-.47.38-.48.55l.04.04c.17.05.51.05.75.05.27,0,.53-.05.79-.05.15,0,.23.08.38.08.05,0,.12-.03.17-.03.27,0,.54.09.82.09.2,0,.34-.13.54-.13.12,0,.23.05.35.05.21,0,.42-.08.62-.08s.36.03.57.03.4-.03.61-.03h.08c.15,0,.32.01.32.18s-.13.18-.26.18Z"/><path d="M69.15,7.69c-.13.08-.32.17-.57.27-.12.05-.44.12-.54.23-.03.03-.73.22-.79.22s-.13-.01-.2-.05c-.04-.01-.09-.03-.19-.03h-.09c-.12,0-.24-.01-.36-.13-.11-.11-.27-.28-.27-.46,0-.11-.27-.17-.36-.17-.08,0-.74.32-.82.36-.15.09-.3.13-.43.13-.11,0-.26.05-.36.09-.16.04-.31.05-.49.07h-.3c-.05.01-.13,0-.19,0-.11,0-.22,0-.31-.04-.12-.05-.21-.15-.21-.31,0-.08.12-.23.16-.4.04-.17.08-.39.18-.42.15-.03.3-.26.5-.46.12-.12.24-.23.4-.28.15-.05.42-.2.57-.2.11,0,.13.11.13.2,0,.15-.13.26-.3.38-.2.13-.46.28-.59.54-.07.12-.11.27-.11.44,0,.2.15.23.31.23.26,0,.39-.11.62-.11.34,0,.4-.16.67-.23.22-.04.4-.18.57-.32.09-.09.23-.07.34-.12.2-.09.34-.23.55-.27.18-.04.4-.15.58-.15.09,0,.15.05.15.15,0,.47-.31.65-.31.89,0,.12.05.24.2.24s.17-.03.3-.03.24-.11.4-.11c.12,0,.26-.03.35-.12.11-.09.3-.03.39-.12.04-.04.15-.07.26-.12.12-.05.26-.13.34-.13.09,0,.11.07.11.13,0,.03-.09.11-.27.22Z"/><path d="M73.56,6.71c-.07.2-.4.67-.58.78-.28.2-.63.31-.9.53-.15.11-.42.08-.51.18-.08.08-.53.07-.67.13-.2.09-.54.16-.74.16-.11,0-.11-.07-.22-.07s-.22.07-.34.07c-.2,0-.47-.4-.81-.4-.09,0-.11-.08-.2-.08-.04,0-.09,0-.15.01-.01,0-.04.01-.05.01-.09,0-.17-.03-.17-.11,0-.05.03-.11.09-.13.3-.15.26-.57.65-.57.13,0,.16.16.34.16.12-.01.13-.05.31-.08.23-.04.23-.09.43-.09.01,0,.28-.05.3-.05.11,0,.39-.22.55-.26.26-.05.44-.24.67-.3.27-.08,1.04-.38,1.24-.55.09-.07.36-.13.49-.13.05,0,.08.04.17.04.16,0,.27.18.27.34,0,.26-.12.24-.16.42ZM72.61,6.44h-.18c-.23.04-.32.2-.53.27-.17.07-.3.22-.5.26-.2.04-.32.12-.47.19-.18.09-.35.07-.53.18-.16.12-.38.19-.58.26-.09.04-.19.01-.19.13,0,.27.43.2.62.24.01.01.05.01.11.01.2,0,.36-.13.57-.13.05,0,.09.01.13.01.22,0,.36-.12.46-.12.05,0,.08.04.15.04.15,0,.46-.19.58-.26.35-.18.16-.16.32-.32.17-.16.23-.27.23-.5,0-.16,0-.26-.2-.26Z"/><path d="M78.64,7.8c-.09.04-.09.08-.19.08s-.32.09-.39.15c-.11.11-.38.07-.55.22-.2.15-.39.04-.57.15-.16.09-.32.03-.49.12-.07.05-.26.05-.36.05l-.24.04h-.46c-.26-.01-.55-.03-.71-.11-.16-.07-.39-.05-.5-.26-.07-.12-.15-.18-.15-.36s.12-.38.32-.53c.19-.13.5-.43.5-.43.13-.12.36-.23.54-.35.19-.13.47-.27.7-.43.17-.12.73-.26.83-.26.26,0,.54.18.54.44,0,.07-.01.12-.05.16-.18.22-.03.24-.32.46-.12.07-.15.12-.22.24-.12.26-.28.2-.46.32-.07.05-.09.11-.2.11-.09,0-.31-.01-.31-.16,0-.27.38-.38.57-.48.11-.07.27-.32.32-.43.03-.04.04-.07.04-.11,0-.09-.07-.12-.16-.12-.23,0-.59.2-.83.32-.23.12-.36.27-.54.4-.11.09-.27.18-.36.31-.09.13-.24.24-.24.44,0,.03.01.05.01.08.04.18.05.15.21.27.07.07.27.07.42.07h.4c.07-.01.13-.01.22,0,.04,0,.09.01.15.01.32,0,.84-.11,1.02-.19.2-.09.46-.09.62-.19.09-.05.16-.09.26-.12.28-.09.46-.16.71-.28.07-.03.15-.07.2-.07s.08.01.08.12c-.09.13-.2.22-.36.3Z"/><path d="M86.55,2.28c-.17.09-.26.28-.43.39-.16.09-.24.43-.43.46-.16.04-.35.07-.4.27-.07.18-.38.28-.54.38-.22.11-.89.66-1.02.86-.15.18-.4.5-.61.59-.16.07-.27.23-.36.38-.11.17-.89.73-1.1.94-.26.26-.44.46-.75.67-.08.08-.74.85-.74.92s.2.13.26.13c.09,0,.16-.07.26-.07s.19.04.19.13c0,.2-.27.27-.43.27-.11,0-.21.08-.34.08s-.23.04-.38.04c-.16,0-.35-.12-.35-.3,0-.08.43-.71.53-.78.28-.22.59-.73.88-.88.13-.05.32-.27.32-.47-.39,0-1.06.89-1.54.93-.17.04-.09.16-.35.2-.11,0-.67.47-.93.47-.04,0-.11-.01-.11-.08,0-.18.82-.55,1.01-.66.09-.07.19-.15.31-.2.12-.04.19-.12.3-.22.2-.13.71-.4.83-.57.2-.2.61-.27.78-.48.15-.23.7-.47.96-.58.19-.07.53-.51.7-.65.2-.15.38-.31.59-.46.2-.15.35-.24.44-.46.07-.17.35-.22.5-.39.05-.05.7-.61.74-.61.15-.07.27-.12.32-.27.08-.19.47-.46.63-.55.27-.15.49-.46.81-.46.11,0,.22.09.22.2,0,.26-.54.69-.75.79ZM86.51,7.54c-.04.13-.83.46-.97.53-.31.15-.31.26-.67.3-.34.04-.66.22-.98.22-.38,0-.98-.22-.98-.69,0-.11.04-.2.04-.31,0-.09-.04-.15-.12-.15-.2,0-.53.22-.67.36-.11.11-.65.43-.81.43-.11,0-.19.12-.3.12-.07,0-.11-.08-.11-.13,0-.12.09-.12.19-.16.2-.04.31-.26.51-.31.47-.11.86-.51,1.2-.84.12-.11.28-.31.43-.38.2-.09.2-.34.42-.39.09-.04.34-.19.39-.19.11,0,.12.22.12.31,0,.46-.58.83-.58,1.31,0,.31.13.62.47.62.11,0,.15-.12.24-.12s.15.04.24.04c.21,0,.81-.27,1.04-.36.15-.05.31-.13.43-.2.09-.05.24-.13.35-.18.01,0,.03-.01.04-.01.05,0,.08.05.08.12v.07Z"/><path d="M90.65,7.65c-.08.07-.24.15-.34.2-.09.05-.36.19-.43.2-.08.03-.13.05-.21.09-.13.07-.26.13-.4.16-.11.03-.24.03-.38.05-.11.01-.21.05-.28.09-.05.03-.11.04-.15.04-.07,0-.13-.01-.2-.01-.15,0-.26.05-.4.05h-.05c-.15,0-.34,0-.46-.05-.09-.04-.24-.04-.34-.04-.2-.01-.31-.13-.49-.18-.2-.04-.35-.3-.35-.51,0-.12.16-.36.28-.58.13-.26.36-.53.51-.58l.26-.22c.17-.15.38-.31.59-.43.17-.09.35-.18.54-.18.11,0,.2-.07.31-.07.01,0,.15.05.16.05.07.09.21.09.21.22,0,.22-.36.74-.57.78-.23.07-.46.24-.67.36-.23.12-.4.19-.65.31-.04.01-.31.13-.31.19,0,.13.07.22.19.3.26.16.62.24.82.24.15,0,.26-.01.4-.01.31,0,.57-.08.88-.12.07-.01.17-.03.28-.07.13-.04.28-.11.42-.16.13-.07.57-.24.65-.31.07-.04.12-.07.19-.07.05,0,.08.03.08.08,0,.07-.05.11-.09.15ZM88.28,6.21c-.12,0-.63.34-.75.43-.07.05-.19.16-.19.27.04,0,.09.01.13.01.15,0,.16-.13.27-.13.13,0,.27-.32.51-.32.07,0,.11-.2.11-.24h-.08Z"/><path d="M95.2,5.07c-.18.22-.55.89-.74,1.04-.23.17-.43.39-.55.65-.11.27-.35.3-.5.5-.22.28-1.52,1.21-1.87,1.21-.2,0-.4.08-.62.08-.07,0-.11-.03-.11-.08,0-.07.03-.15.07-.2.13-.31.32-.22.54-.43.04-.04.09-.12.15-.12s.03.09.23.13c.07,0,.12.01.22.01.2,0,.3-.09.44-.26.15-.17.31-.23.4-.38.15-.23.46-.38.62-.61.15-.22.34-.38.44-.63.07-.19.39-.42.39-.59,0-.13-.07-.2-.22-.2s-.26.07-.3.22c-.09.26-.39.32-.54.53-.11.16-.31.16-.4.32s-.46.22-.61.38c-.2.26-.62.4-.9.63-.22.17-.97.61-1.21.63-.04,0-.07-.04-.07-.07,0-.16.17-.24.27-.3.2-.13.24-.07.51-.26.22-.15.36-.2.54-.35.27-.23.58-.3.81-.59.19-.24.49-.31.71-.57.22-.26.44-.49.77-.61.09-.04.26-.05.32-.16.15-.26.21-.5.5-.67.16-.09.49-.28.69-.28.16,0,.24.28.24.43,0,.22-.11.42-.23.59ZM97.98,7.88c-.19.07-.38.12-.46.19-.05.05-.15.05-.24.05h-.2c-.17,0-.35,0-.46.07-.03.01-.07.03-.13.03-.2,0-.39-.11-.59-.11h-.17c-.22,0-.4-.18-.61-.22-.2-.04-.43-.39-.63-.51-.15-.09-.36-.26-.36-.46,0-.26.46-.36.65-.36.15,0,.31.01.46.01.09,0,.16,0,.26-.04.31-.15.66-.12.97-.27.23-.11.81-.15.81-.51,0-.2.24-.27.42-.27.19,0,.57.09.57.35,0,.23-.26.12-.39.23-.18.11-.36.26-.58.3-.2.01-.38.12-.59.16-.2.04-.39.11-.59.11-.07,0-.13-.03-.2-.03-.17,0-.19.18-.3.24-.09.05-.27-.01-.27.16,0,.04.01.11.05.18.15.32.34.24.58.42.18.15.35.27.61.27.09,0,.19-.01.28-.04.44-.11.93-.08,1.32-.34.15-.09.23-.05.38-.16.01-.01.04-.01.07-.01.09,0,.13.04.13.11,0,.09-.49.38-.75.46Z"/></g></svg>