<?xml version="1.0" encoding="UTF-8"?><svg id="Ebene_2" xmlns="http://www.w3.org/2000/svg" viewBox="0 0 48.72 26.91"><defs><style>.cls-1{fill:#202020;}</style></defs><g id="Ebene_1-2"><path class="cls-1" d="M48.72.09c-1.3,2.75-2.77,5.33-4.3,7.86-2.06,2-4.06,4.04-6.09,6.06l-12.16,12.16c-.98.98-2.56.98-3.54,0l-12.2-12.2-6.1-6.1C2.83,5.3,1.32,2.74,0,0c2.74,1.32,5.3,2.83,7.87,4.33,3.86,3.86,14.31,14.31,18.3,18.31,0,0-3.54,0-3.54,0l12.16-12.16c2.02-2.03,4.07-4.04,6.06-6.09,2.53-1.52,5.11-2.99,7.86-4.3h0Z"/></g></svg>