<?xml version="1.0" encoding="UTF-8"?>
<svg id="Layer_2" data-name="Layer 2" xmlns="http://www.w3.org/2000/svg" viewBox="0 0 678.97 162.97">
  <defs>
    <style>
      .cls-1 {
        fill: #c19c60;
        stroke-width: 0px;
      }
    </style>
  </defs>
  <g id="Layer_1-2" data-name="Layer 1">
    <g>
      <path class="cls-1" d="M0,157.46c7.58-2.52,9.18-9.41,9.18-25.94V29.15C9.18,12.62,7.58,5.74,0,3.21V0h48.2c52.33,0,64.27,25.94,64.27,44.53,0,28.69-20.66,53.02-67.71,53.02h-11.25v33.97c0,16.53,1.61,23.41,9.18,25.94v3.21H0v-3.21ZM86.54,50.5c0-19.74-9.64-46.83-45.91-46.83-2.29,0-5.51.23-7.12.46v89.75h10.1c30.07,0,42.92-17.44,42.92-43.38Z"/>
      <path class="cls-1" d="M188.68,151.5v-37.87c-6.43,26.63-22.95,49.35-46.83,49.35-16.99,0-31.22-10.79-31.22-30.07,0-23.64,24.1-32.82,52.56-40.86l25.48-7.35c-.46-22.72-12.85-31.45-29.84-31.45-12.85,0-25.48,5.51-37.18,19.51l-2.3-2.07c12.85-15.84,30.53-26.4,51.42-26.4,27.77,0,40.86,14.92,40.86,42.92v44.3c0,16.53,1.61,23.41,9.18,25.94v3.21h-22.95c-5.97,0-9.18-3.21-9.18-9.18ZM153.33,146.22c22.5,0,35.12-31.68,35.35-52.33v-5.97l-24.56,7.12c-10.79,2.98-32.13,10.79-32.13,29.84,0,15.15,10.79,21.35,21.35,21.35Z"/>
      <path class="cls-1" d="M236.88,151.72l-2.3-30.07,2.3-.46c9.87,22.04,26.4,37.41,46.83,37.64,14.23.23,23.41-9.18,23.41-19.74,0-14.69-11.71-20.43-31.68-26.63-24.1-7.35-39.02-14-39.02-34.66,0-17.44,13.54-33.51,44.76-33.51,13.08,0,27.08,2.53,34.89,5.74l1.15,25.25-2.75.46c-7.8-16.3-22.04-28.23-38.79-28.23-14.46,0-23.87,7.57-23.87,17.44,0,12.85,11.48,18.36,32.14,25.25,18.36,6.2,38.56,11.71,38.56,35.12,0,17.44-11.02,37.19-44.3,37.19-16.76,0-32.59-5.05-41.32-10.79Z"/>
      <path class="cls-1" d="M339.71,151.72l-2.3-30.07,2.3-.46c9.87,22.04,26.4,37.41,46.83,37.64,14.23.23,23.41-9.18,23.41-19.74,0-14.69-11.71-20.43-31.68-26.63-24.1-7.35-39.02-14-39.02-34.66,0-17.44,13.54-33.51,44.76-33.51,13.08,0,27.09,2.53,34.89,5.74l1.15,25.25-2.75.46c-7.8-16.3-22.04-28.23-38.79-28.23-14.46,0-23.87,7.57-23.87,17.44,0,12.85,11.48,18.36,32.14,25.25,18.36,6.2,38.56,11.71,38.56,35.12,0,17.44-11.02,37.19-44.3,37.19-16.76,0-32.59-5.05-41.32-10.79Z"/>
      <path class="cls-1" d="M518.07,151.5v-37.87c-6.43,26.63-22.95,49.35-46.83,49.35-16.99,0-31.22-10.79-31.22-30.07,0-23.64,24.1-32.82,52.56-40.86l25.48-7.35c-.46-22.72-12.85-31.45-29.84-31.45-12.85,0-25.48,5.51-37.18,19.51l-2.3-2.07c12.85-15.84,30.53-26.4,51.42-26.4,27.77,0,40.86,14.92,40.86,42.92v44.3c0,16.53,1.61,23.41,9.18,25.94v3.21h-22.95c-5.97,0-9.18-3.21-9.18-9.18ZM482.72,146.22c22.5,0,35.12-31.68,35.35-52.33v-5.97l-24.56,7.12c-10.79,2.98-32.13,10.79-32.13,29.84,0,15.15,10.79,21.35,21.35,21.35Z"/>
      <path class="cls-1" d="M568.57,120.05v-41.32c0-13.54-3.44-15.84-9.18-18.36v-3.21l30.3-13.31,2.3,1.84v71.39c0,24.56,3.9,36.73,21.58,36.73,10.33,0,21.58-6.2,32.82-17.44v-57.61c0-13.54-3.44-15.84-9.18-18.36v-3.21l30.3-13.31,2.29,1.84v85.85c0,16.53,1.61,23.41,9.18,25.94v3.21h-23.41c-5.97,0-9.18-3.21-9.18-9.18v-10.33c-13.08,12.62-28.92,21.81-43.38,21.81-24.33,0-34.43-14.92-34.43-42.92Z"/>
    </g>
  </g>
</svg>