<?xml version="1.0" encoding="UTF-8"?><svg id="Ebene_2" xmlns="http://www.w3.org/2000/svg" viewBox="0 0 148.76 110.09"><defs><style>.cls-1{fill:#c3943a;}</style></defs><g id="Ebene_1-2"><path class="cls-1" d="M30.93,0c17.74,0,29.57,13.19,29.57,30.93,0,28.2-13.65,58.23-46.4,79.15L0,95.53c13.65-12.74,26.84-29.57,30.93-43.67v-.91l-22.75-5.46c-3.64-4.55-5.91-10.92-5.91-17.29C2.28,11.83,14.1,0,30.93,0ZM119.19,0c17.74,0,29.57,13.19,29.57,30.93,0,28.2-13.65,58.23-46.4,79.15l-14.1-14.56c13.65-12.74,26.84-29.57,30.93-43.67v-.91l-22.75-5.46c-3.64-4.55-5.91-10.92-5.91-17.29,0-16.38,11.83-28.2,28.66-28.2Z"/></g></svg>