<?xml version="1.0" encoding="UTF-8" standalone="no"?>
<!DOCTYPE svg PUBLIC "-//W3C//DTD SVG 1.1//EN" "http://www.w3.org/Graphics/SVG/1.1/DTD/svg11.dtd">
<svg width="100%" height="100%" viewBox="0 0 396 306" version="1.1" xmlns="http://www.w3.org/2000/svg" xmlns:xlink="http://www.w3.org/1999/xlink" xml:space="preserve" xmlns:serif="http://www.serif.com/" style="fill-rule:evenodd;clip-rule:evenodd;stroke-linejoin:round;stroke-miterlimit:2;">
    <g transform="matrix(1,0,0,1,-1952.34,-1574.67)">
        <g>
            <g transform="matrix(179.85,0,0,179.85,-39820.6,-82522.4)">
                <path d="M232.292,469.296C232.274,469.296 232.266,469.29 232.266,469.278C232.266,469.255 232.302,469.208 232.376,469.138C232.449,469.067 232.521,468.985 232.592,468.891C232.644,468.815 232.69,468.735 232.728,468.653C232.766,468.571 232.785,468.497 232.785,468.433C232.785,468.368 232.772,468.321 232.746,468.292C232.719,468.262 232.68,468.233 232.627,468.204C232.586,468.174 232.546,468.141 232.508,468.102C232.47,468.064 232.451,468.013 232.451,467.948C232.451,467.843 232.527,467.743 232.68,467.649C232.727,467.613 232.774,467.596 232.821,467.596C232.92,467.596 233.017,467.625 233.111,467.684C233.205,467.743 233.252,467.843 233.252,467.983C233.252,468.089 233.22,468.215 233.155,468.362C233.091,468.509 233.009,468.653 232.909,468.794C232.809,468.935 232.705,469.054 232.596,469.151C232.487,469.248 232.386,469.296 232.292,469.296Z" style="fill:rgb(222,201,164);fill-rule:nonzero;"/>
            </g>
            <g transform="matrix(179.85,0,0,179.85,-39602.3,-82522.4)">
                <path d="M232.292,469.296C232.274,469.296 232.266,469.29 232.266,469.278C232.266,469.255 232.302,469.208 232.376,469.138C232.449,469.067 232.521,468.985 232.592,468.891C232.644,468.815 232.69,468.735 232.728,468.653C232.766,468.571 232.785,468.497 232.785,468.433C232.785,468.368 232.772,468.321 232.746,468.292C232.719,468.262 232.68,468.233 232.627,468.204C232.586,468.174 232.546,468.141 232.508,468.102C232.47,468.064 232.451,468.013 232.451,467.948C232.451,467.843 232.527,467.743 232.68,467.649C232.727,467.613 232.774,467.596 232.821,467.596C232.92,467.596 233.017,467.625 233.111,467.684C233.205,467.743 233.252,467.843 233.252,467.983C233.252,468.089 233.22,468.215 233.155,468.362C233.091,468.509 233.009,468.653 232.909,468.794C232.809,468.935 232.705,469.054 232.596,469.151C232.487,469.248 232.386,469.296 232.292,469.296Z" style="fill:rgb(222,201,164);fill-rule:nonzero;"/>
            </g>
        </g>
    </g>
</svg>
