<?xml version="1.0" encoding="UTF-8" standalone="no"?>
<!DOCTYPE svg PUBLIC "-//W3C//DTD SVG 1.1//EN" "http://www.w3.org/Graphics/SVG/1.1/DTD/svg11.dtd">
<svg width="100%" height="100%" viewBox="0 0 1407 588" version="1.1" xmlns="http://www.w3.org/2000/svg" xmlns:xlink="http://www.w3.org/1999/xlink" xml:space="preserve" xmlns:serif="http://www.serif.com/" style="fill-rule:evenodd;clip-rule:evenodd;stroke-linejoin:round;stroke-miterlimit:2;">
    <g transform="matrix(1,0,0,1,-782.152,-1122.5)">
        <g>
            <path d="M2186.27,1125.04C2131.49,1126.62 2080.7,1131.83 2028.86,1150.69C1954.64,1177.69 1893.98,1225.83 1750.02,1297.09C1554.41,1393.91 1549.05,1397.58 1377.27,1392.64C1377.03,1392.63 1305.71,1390.42 1283.79,1389.94C1232.69,1388.81 1113.03,1392.61 950.8,1473.75C862.082,1518.12 799.72,1566.18 784.685,1578.55C795.508,1569.51 1016.64,1386.17 1272.92,1385.32C1298.15,1385.24 1393.99,1388.62 1438.68,1388.94C1538.46,1389.65 1570.93,1379.31 1687.36,1323.23C1698.18,1318.03 1748.4,1293.73 1768.92,1283.48C1900.98,1217.57 1959.85,1172.71 2032.51,1147.91C2083.41,1130.53 2133.39,1126.05 2186.27,1125.04Z" style="fill:rgb(64,64,64);"/>
            <g transform="matrix(0.876076,0,0,0.876076,199.847,234.611)">
                <path d="M2186.27,1125.04C2126.59,1126.8 2075.18,1132.85 2022.11,1153.33C1950.87,1180.82 1889.7,1228.17 1750.14,1297.33C1554.55,1394.25 1549.05,1397.95 1377.26,1392.99C1354.34,1392.32 1290.27,1390.18 1272.92,1390.12C1029.34,1389.38 813.466,1554.9 784.685,1578.55C799.501,1566.16 1017.1,1387.42 1269.79,1385.02C1282.61,1384.9 1301.53,1385.4 1382.02,1387.5C1549.23,1391.86 1554.34,1387.72 1748.2,1293.39C1873.8,1232.28 1936.53,1188.3 1999.93,1160.52C2058,1135.08 2110.79,1126.44 2186.27,1125.04Z" style="fill:rgb(64,64,64);"/>
            </g>
            <g transform="matrix(0.767508,0,0,0.767508,374.928,440.148)">
                <path d="M2186.27,1125.04C2121.68,1126.99 2069.79,1133.96 2015.43,1156.11C1946.96,1184.01 1885.43,1230.55 1750.28,1297.61C1555.66,1394.17 1549.19,1398.52 1377.16,1393.38C1341.83,1392.32 1288.61,1390.5 1271.37,1390.48C1029.07,1390.33 814.24,1554.31 784.685,1578.55C804.299,1562.11 918.946,1470.92 1073.3,1419.43C1190.26,1380.42 1272.92,1384.46 1297.76,1385.01C1521.3,1389.89 1527.95,1398.79 1678.19,1326.92C1683.38,1324.44 1746,1294.34 1773.64,1280.5C1888.52,1222.96 1947.02,1181.98 2009.28,1156.41C2065.05,1133.5 2117.29,1126.26 2186.27,1125.04Z" style="fill:rgb(64,64,64);"/>
            </g>
            <g transform="matrix(0.672395,0,0,0.672395,528.312,620.214)">
                <path d="M2186.27,1125.04C2116.82,1127.2 2064.55,1135.15 2008.81,1159.04C1942.92,1187.27 1881.18,1232.95 1750.43,1297.93C1555.97,1394.56 1549.23,1399.02 1377.15,1393.83C1333.59,1392.52 1286.88,1390.82 1268.28,1390.9C1027.91,1392 814.956,1553.77 784.685,1578.55C799.108,1566.44 1002.85,1398.52 1244.87,1385.08C1268.14,1383.79 1281.09,1384.16 1321.12,1385.12C1526.87,1390.02 1533.39,1395.96 1686.91,1322.3C1693.65,1319.06 1744.02,1294.89 1771.01,1281.44C1890,1222.1 1949.03,1180.19 2013.27,1154.64C2068.14,1132.81 2120.07,1126.16 2186.27,1125.04Z" style="fill:rgb(64,64,64);"/>
            </g>
            <g transform="matrix(0.589069,0,0,0.589069,662.687,777.965)">
                <path d="M2186.27,1125.04C2108.23,1127.55 2055.51,1137.38 1996.92,1164.54C1935.21,1193.14 1873.44,1237.15 1750.61,1298.29C1556.3,1395.01 1549.24,1399.6 1377.13,1394.35C1327.09,1392.82 1285.32,1391.2 1265.2,1391.39C1026.8,1393.69 815.707,1553.21 784.685,1578.55C799.775,1565.85 999.759,1401.03 1238.66,1385.01C1266.07,1383.17 1282.74,1383.74 1315.44,1384.49C1526.81,1389.33 1531.86,1396.07 1686.71,1321.89C1759.5,1287.03 1784.14,1274.44 1792.53,1270.15C1904.87,1212.74 1959.55,1173.82 2024.09,1150.35C2076.62,1131.24 2127.49,1125.97 2186.27,1125.04Z" style="fill:rgb(64,64,64);"/>
            </g>
            <g transform="matrix(-0.567652,-0.0949867,0.113749,-0.679778,2599.18,2834.94)">
                <g transform="matrix(1,0,0,1,140.184,64.0766)">
                    <path d="M2184.15,1589.11C2174.71,1583.18 2153.04,1570.18 2127.05,1569.62C2113.87,1569.35 2103.62,1572.58 2102.62,1572.85C2094.74,1575.04 2082.25,1579.95 2070.57,1587.54C2070.41,1587.64 2063.81,1591.68 2055.22,1598.69C2054.38,1599.37 2050.39,1602.63 2045.1,1607.59C2038.54,1613.74 2033.79,1619.15 2031.93,1621.29C2030.9,1622.47 2025.09,1628.92 2019.98,1636.32C2024.71,1625.34 2030.68,1616 2031.76,1614.32C2040.43,1600.76 2047.53,1593.21 2050.47,1590.1C2057.85,1582.3 2064.56,1577.35 2065.89,1576.37C2077.25,1568 2093.64,1558.59 2117.71,1558.87C2120.22,1558.9 2128.54,1559.3 2137.29,1561.67C2150.72,1565.3 2162.96,1571.82 2175.58,1581.71C2179.16,1584.51 2183.49,1588.5 2184.15,1589.11Z" style="fill:rgb(64,64,64);"/>
                </g>
                <g transform="matrix(-0.999852,-0.0171925,0.0171925,-0.999852,4315.15,3317.47)">
                    <path d="M2184.15,1589.11C2174.71,1583.18 2153.04,1570.18 2127.05,1569.62C2113.87,1569.35 2103.62,1572.58 2102.62,1572.85C2094.74,1575.04 2082.25,1579.95 2070.57,1587.54C2070.41,1587.64 2063.81,1591.68 2055.22,1598.69C2054.38,1599.37 2050.39,1602.63 2045.1,1607.59C2038.54,1613.74 2033.79,1619.15 2031.93,1621.29C2030.9,1622.47 2025.09,1628.92 2019.98,1636.32C2024.71,1625.34 2030.68,1616 2031.76,1614.32C2040.43,1600.76 2047.53,1593.21 2050.47,1590.1C2057.85,1582.3 2064.56,1577.35 2065.89,1576.37C2077.25,1568 2093.64,1558.59 2117.71,1558.87C2120.22,1558.9 2128.54,1559.3 2137.29,1561.67C2150.72,1565.3 2162.96,1571.82 2175.58,1581.71C2179.16,1584.51 2183.49,1588.5 2184.15,1589.11Z" style="fill:rgb(64,64,64);"/>
                </g>
                <g transform="matrix(1,0,0,1,187.254,120.561)">
                    <path d="M2115.27,1342.84C2115.89,1346.6 2116.5,1350.35 2117.1,1354.11C2120.92,1378.45 2122.51,1391.96 2122.89,1395.26C2125.5,1417.53 2127.46,1446.11 2127.76,1450.54C2128.05,1454.77 2129.16,1470.94 2130.75,1503.5C2131.4,1516.89 2131.34,1516.89 2131.92,1530.28C2130.31,1521.49 2128.56,1512.73 2126.95,1503.94C2121.07,1471.96 2118.44,1455.88 2117.75,1451.69C2117.04,1447.31 2112.41,1419.05 2109.86,1396.77C2108.05,1380.91 2106.36,1358.69 2106.1,1355.38C2105.92,1353.04 2104.61,1335.78 2104.08,1326.1C2103.89,1322.65 2107.52,1320.73 2110.07,1322.33C2110.2,1322.41 2110.89,1322.85 2111.36,1323.69C2111.43,1323.83 2111.63,1324.38 2111.97,1325.24L2112.38,1325.14C2112.47,1325.77 2112.57,1326.39 2112.67,1327.02C2114.69,1331.93 2119.12,1341.33 2126.91,1349.1C2137.52,1359.68 2148.24,1360.12 2150.25,1360.29C2146.34,1360.53 2131.19,1361.52 2115.27,1342.84Z" style="fill:rgb(64,64,64);"/>
                </g>
            </g>
            <g transform="matrix(1,0,0,1,-863.934,-223.679)">
                <g transform="matrix(1,0,0,1,140.184,64.0766)">
                    <path d="M2184.15,1589.11C2174.71,1583.18 2153.04,1570.18 2127.05,1569.62C2113.87,1569.35 2103.62,1572.58 2102.62,1572.85C2094.74,1575.04 2082.25,1579.95 2070.57,1587.54C2070.41,1587.64 2063.81,1591.68 2055.22,1598.69C2054.38,1599.37 2050.39,1602.63 2045.1,1607.59C2038.54,1613.74 2033.79,1619.15 2031.93,1621.29C2030.9,1622.47 2025.09,1628.92 2019.98,1636.32C2024.71,1625.34 2030.68,1616 2031.76,1614.32C2040.43,1600.76 2047.53,1593.21 2050.47,1590.1C2057.85,1582.3 2064.56,1577.35 2065.89,1576.37C2077.25,1568 2093.64,1558.59 2117.71,1558.87C2120.22,1558.9 2128.54,1559.3 2137.29,1561.67C2150.72,1565.3 2162.96,1571.82 2175.58,1581.71C2179.16,1584.51 2183.49,1588.5 2184.15,1589.11Z" style="fill:rgb(64,64,64);"/>
                </g>
                <g transform="matrix(-0.999852,-0.0171925,0.0171925,-0.999852,4315.15,3317.47)">
                    <path d="M2184.15,1589.11C2174.71,1583.18 2153.04,1570.18 2127.05,1569.62C2113.87,1569.35 2103.62,1572.58 2102.62,1572.85C2094.74,1575.04 2082.25,1579.95 2070.57,1587.54C2070.41,1587.64 2063.81,1591.68 2055.22,1598.69C2054.38,1599.37 2050.39,1602.63 2045.1,1607.59C2038.54,1613.74 2033.79,1619.15 2031.93,1621.29C2030.9,1622.47 2025.09,1628.92 2019.98,1636.32C2024.71,1625.34 2030.68,1616 2031.76,1614.32C2040.43,1600.76 2047.53,1593.21 2050.47,1590.1C2057.85,1582.3 2064.56,1577.35 2065.89,1576.37C2077.25,1568 2093.64,1558.59 2117.71,1558.87C2120.22,1558.9 2128.54,1559.3 2137.29,1561.67C2150.72,1565.3 2162.96,1571.82 2175.58,1581.71C2179.16,1584.51 2183.49,1588.5 2184.15,1589.11Z" style="fill:rgb(64,64,64);"/>
                </g>
                <g transform="matrix(1,0,0,1,189.306,128.728)">
                    <path d="M2115.27,1342.84C2115.89,1346.6 2116.5,1350.35 2117.1,1354.11C2120.92,1378.45 2122.51,1391.96 2122.89,1395.26C2125.5,1417.53 2127.46,1446.11 2127.76,1450.54C2128.05,1454.77 2129.16,1470.94 2130.75,1503.5C2131.4,1516.89 2131.34,1516.89 2131.92,1530.28C2130.31,1521.49 2128.56,1512.73 2126.95,1503.94C2121.07,1471.96 2118.44,1455.88 2117.75,1451.69C2117.04,1447.31 2112.41,1419.05 2109.86,1396.77C2108.05,1380.91 2106.36,1358.69 2106.1,1355.38C2105.92,1353.04 2104.61,1335.78 2104.08,1326.1C2103.89,1322.65 2107.52,1320.73 2110.07,1322.33C2110.2,1322.41 2110.89,1322.85 2111.36,1323.69C2111.43,1323.83 2111.63,1324.38 2111.97,1325.24L2112.38,1325.14C2112.47,1325.77 2112.57,1326.39 2112.67,1327.02C2114.69,1331.93 2119.12,1341.33 2126.91,1349.1C2137.52,1359.68 2148.24,1360.12 2150.25,1360.29C2146.34,1360.53 2131.19,1361.52 2115.27,1342.84Z" style="fill:rgb(64,64,64);"/>
                </g>
            </g>
        </g>
    </g>
</svg>
